ply
format ascii 1.0
comment Created by Blender 2.79 (sub 4) - www.blender.org, source file: 'tap_new_version.blend'
element vertex 710
property float x
property float y
property float z
element face 1416
property list uchar int vertex_indices
end_header
-0.008520 -0.290369 0.239465
-0.008520 -0.303353 0.251908
-0.026329 -0.290796 0.253789
0.012791 -0.290355 0.249059
0.011946 -0.293203 0.251287
0.014858 -0.291367 0.251697
-0.029503 -0.272060 0.248189
-0.030432 -0.279017 0.252978
-0.030704 -0.271748 0.250127
-0.008520 -0.270426 0.241601
0.011424 -0.270426 0.237519
0.030552 -0.272356 0.251660
-0.027867 -0.252130 0.249848
-0.030348 -0.251147 0.253276
-0.008520 -0.250482 0.240989
0.011424 -0.250482 0.242169
0.030181 -0.261633 0.249741
0.030687 -0.252958 0.250492
0.033436 -0.254223 0.253136
-0.027753 -0.248197 0.251899
-0.008910 -0.231901 0.251227
0.011837 -0.231547 0.251189
0.031596 -0.246173 0.252450
-0.027144 -0.292156 0.260576
-0.027987 -0.292111 0.273156
-0.030397 -0.289309 0.272641
-0.008520 -0.302722 0.271851
0.011424 -0.305092 0.271851
0.029851 -0.291333 0.272062
-0.036815 -0.270426 0.271851
0.032430 -0.288286 0.272013
0.033102 -0.269981 0.254093
0.040333 -0.270426 0.271851
-0.034082 -0.247534 0.272165
0.037090 -0.246970 0.271258
-0.030851 -0.242796 0.270817
-0.007951 -0.229489 0.253706
-0.017516 -0.227049 0.273555
0.010665 -0.228961 0.253390
0.020389 -0.226707 0.272929
0.034905 -0.241635 0.273216
-0.011275 -0.223606 0.271296
0.014096 -0.223119 0.271533
-0.029918 -0.288587 0.289506
-0.026558 -0.291907 0.289382
-0.008520 -0.299600 0.291795
0.011424 -0.299513 0.291795
0.033121 -0.288577 0.281374
0.030143 -0.292582 0.291126
0.032947 -0.289601 0.291717
-0.030343 -0.288688 0.293456
-0.038234 -0.270426 0.291795
0.041077 -0.270426 0.291795
-0.039895 -0.250482 0.291795
0.042387 -0.250482 0.291795
-0.028331 -0.231508 0.283406
-0.031171 -0.230378 0.292755
0.029703 -0.230631 0.280540
0.033910 -0.230608 0.292401
-0.028499 -0.227689 0.291890
-0.008761 -0.213768 0.290262
0.011904 -0.213798 0.290395
0.031787 -0.227732 0.293134
-0.027061 -0.292069 0.293796
-0.030561 -0.293438 0.311777
-0.032384 -0.291961 0.311702
-0.008520 -0.299846 0.311738
0.011424 -0.299080 0.311738
0.031589 -0.292700 0.311722
0.034148 -0.290572 0.311753
-0.046203 -0.269306 0.310907
0.046579 -0.270426 0.311738
-0.048178 -0.251116 0.308933
-0.048595 -0.261536 0.313472
-0.049661 -0.249606 0.313430
0.050784 -0.250455 0.311063
-0.048105 -0.247110 0.310583
-0.039835 -0.230539 0.311738
0.042671 -0.230539 0.311738
-0.026865 -0.215052 0.312235
-0.007138 -0.207880 0.301767
-0.019526 -0.209211 0.314311
0.009422 -0.207471 0.301869
0.022440 -0.209856 0.312688
0.030891 -0.215535 0.312680
-0.010131 -0.206860 0.307714
0.013140 -0.206291 0.308736
-0.032686 -0.296694 0.331634
-0.037198 -0.292316 0.331583
-0.008520 -0.300754 0.331682
0.011424 -0.299963 0.331682
0.034120 -0.293514 0.331744
0.035837 -0.292364 0.331626
-0.049652 -0.269024 0.320348
-0.049765 -0.279467 0.333198
-0.051336 -0.271401 0.329034
0.050665 -0.273284 0.330743
0.052123 -0.269310 0.329081
0.052569 -0.269393 0.332681
-0.051561 -0.247290 0.331729
0.052043 -0.250552 0.314416
0.054328 -0.247370 0.331536
-0.049786 -0.241076 0.331503
-0.045622 -0.229720 0.331840
0.048878 -0.229357 0.331474
0.052998 -0.241123 0.332065
-0.029807 -0.212526 0.321726
-0.031671 -0.208939 0.331594
0.031118 -0.210835 0.321928
0.035189 -0.209443 0.331107
-0.029606 -0.207277 0.331381
-0.008520 -0.196935 0.331682
0.011424 -0.196889 0.331682
0.033124 -0.207564 0.331711
-0.028463 -0.299060 0.351625
-0.044624 -0.288541 0.351591
-0.008520 -0.300301 0.351625
0.011424 -0.300461 0.351625
0.036423 -0.294746 0.351676
0.037585 -0.294007 0.351572
-0.048055 -0.280335 0.351690
-0.050902 -0.271718 0.351585
0.052032 -0.274182 0.351436
0.052778 -0.271496 0.351792
-0.049338 -0.248408 0.353772
0.052835 -0.246440 0.351610
-0.048872 -0.240016 0.349770
-0.047305 -0.230649 0.352064
0.050073 -0.228009 0.351711
0.052449 -0.242011 0.351579
-0.034286 -0.206541 0.351565
0.036977 -0.206534 0.351499
-0.033264 -0.205440 0.351688
-0.008113 -0.193892 0.353971
0.011516 -0.194304 0.353254
0.036076 -0.205387 0.351751
-0.034355 -0.294911 0.371477
-0.035990 -0.293728 0.371663
-0.008520 -0.299700 0.371569
0.011424 -0.300091 0.371569
0.031367 -0.299228 0.371569
0.047790 -0.288677 0.371606
-0.048247 -0.272513 0.372093
-0.048865 -0.269577 0.371513
0.051123 -0.280323 0.371464
0.053663 -0.271770 0.371650
-0.048402 -0.260493 0.371412
-0.048660 -0.252416 0.362328
-0.047916 -0.251939 0.372158
0.051773 -0.248555 0.371482
-0.047453 -0.230539 0.371569
0.050615 -0.230397 0.370972
0.051621 -0.240694 0.371801
-0.043024 -0.210595 0.371569
0.046047 -0.210595 0.371569
-0.026393 -0.194035 0.371993
-0.008684 -0.191840 0.361104
-0.018881 -0.190602 0.372732
0.010403 -0.191469 0.361404
0.022181 -0.191769 0.370426
0.029989 -0.194439 0.372537
-0.008164 -0.187890 0.371291
0.011484 -0.187632 0.372221
-0.034352 -0.295006 0.391400
-0.035940 -0.293899 0.391630
-0.008520 -0.299800 0.391512
0.011424 -0.299754 0.391512
0.035912 -0.296757 0.391610
0.040727 -0.291140 0.391403
-0.048488 -0.273461 0.391470
-0.049062 -0.270082 0.391553
0.052307 -0.278999 0.391476
0.053685 -0.269961 0.391591
-0.048241 -0.252436 0.389354
-0.048135 -0.249045 0.389350
0.053711 -0.250482 0.391512
-0.048311 -0.233407 0.388715
-0.048660 -0.239790 0.393601
-0.048659 -0.231859 0.392956
0.051323 -0.231271 0.374450
0.054563 -0.230539 0.391512
-0.048182 -0.228856 0.389846
-0.046572 -0.210595 0.391512
0.050426 -0.209890 0.390349
0.052308 -0.213272 0.392653
-0.029688 -0.191540 0.382381
-0.031892 -0.189029 0.390671
0.030648 -0.190291 0.382308
0.035681 -0.189555 0.390783
-0.029842 -0.187556 0.390648
-0.008520 -0.177728 0.391512
0.011424 -0.177734 0.391512
0.033313 -0.187780 0.391207
-0.033038 -0.297009 0.411357
-0.037925 -0.290821 0.411584
-0.008520 -0.299986 0.411456
0.011424 -0.299906 0.411456
0.035619 -0.296685 0.411531
0.040372 -0.292376 0.411377
-0.049120 -0.279030 0.411362
-0.050738 -0.269344 0.411495
0.053105 -0.278642 0.411405
0.054705 -0.271856 0.411519
-0.048565 -0.252001 0.393755
-0.050826 -0.250482 0.411456
0.058710 -0.250482 0.411456
-0.050628 -0.228078 0.411810
0.061249 -0.230539 0.411456
-0.049570 -0.221501 0.410261
-0.047049 -0.208033 0.412317
0.051305 -0.209787 0.394087
0.053625 -0.208872 0.411357
-0.033438 -0.188061 0.411510
0.036271 -0.187581 0.411376
0.052647 -0.206740 0.411558
-0.031789 -0.186774 0.411398
-0.008520 -0.178103 0.411456
0.011424 -0.178126 0.411456
0.034824 -0.186694 0.411528
-0.028463 -0.298541 0.431399
-0.043846 -0.288809 0.431408
-0.008520 -0.299946 0.431399
0.011424 -0.299954 0.431399
0.031367 -0.298589 0.431399
0.046446 -0.290609 0.431366
-0.048037 -0.280213 0.431355
-0.051732 -0.271985 0.431440
0.052452 -0.279513 0.431397
0.055810 -0.273463 0.431422
-0.055550 -0.250482 0.431399
0.065018 -0.250482 0.431399
-0.057495 -0.230539 0.431399
0.070814 -0.230718 0.431040
-0.048470 -0.211209 0.414588
-0.052196 -0.210300 0.431564
0.062848 -0.210595 0.431399
-0.046843 -0.200027 0.431201
-0.043279 -0.193253 0.431461
0.048792 -0.191661 0.429105
0.051437 -0.193850 0.430680
-0.028463 -0.180298 0.431399
-0.008520 -0.177648 0.431399
0.011424 -0.177704 0.431399
0.031367 -0.179921 0.431399
-0.032362 -0.296520 0.451299
-0.037110 -0.292649 0.451356
-0.008520 -0.299750 0.451343
0.011424 -0.299870 0.451343
0.035441 -0.296530 0.451421
0.039820 -0.293641 0.451249
-0.050482 -0.278374 0.451357
-0.052711 -0.272594 0.451362
0.054421 -0.278027 0.451301
0.056203 -0.273272 0.451395
-0.061766 -0.250482 0.451343
0.068285 -0.248699 0.451285
-0.066667 -0.230019 0.452161
0.070927 -0.243038 0.451383
0.071974 -0.229830 0.434234
0.072987 -0.229535 0.451285
-0.057261 -0.210595 0.451343
0.068913 -0.211460 0.451150
0.071775 -0.218184 0.451671
-0.048515 -0.193417 0.451412
-0.046525 -0.190651 0.451283
0.051164 -0.188137 0.443685
0.054910 -0.189453 0.449459
-0.026672 -0.173422 0.453091
-0.008290 -0.170441 0.448002
-0.018322 -0.171647 0.450743
0.009802 -0.170057 0.448745
0.021776 -0.172492 0.448966
0.029103 -0.173373 0.453113
0.052974 -0.187722 0.449804
-0.007692 -0.168863 0.451263
0.010526 -0.168607 0.452321
-0.032214 -0.293648 0.471204
-0.033592 -0.292807 0.471369
-0.008520 -0.299259 0.471286
0.011424 -0.299761 0.471286
0.035060 -0.296557 0.471355
0.040235 -0.291555 0.471207
-0.048954 -0.274367 0.472479
-0.050628 -0.272206 0.471904
0.052306 -0.278642 0.471238
0.055446 -0.271430 0.471362
-0.065207 -0.248506 0.471178
0.065353 -0.250482 0.471286
-0.068070 -0.231626 0.461332
-0.067239 -0.239999 0.472256
-0.069463 -0.229132 0.471842
0.071301 -0.231445 0.470387
0.071896 -0.228854 0.469221
-0.068706 -0.227028 0.470408
-0.059379 -0.210595 0.471286
0.068886 -0.210595 0.471286
0.071475 -0.227564 0.471918
-0.049139 -0.192621 0.470360
-0.046839 -0.189062 0.471522
0.054876 -0.188794 0.471191
-0.030407 -0.172377 0.461689
-0.030940 -0.170277 0.471734
0.031667 -0.171551 0.461323
0.034545 -0.170848 0.471336
0.053316 -0.186879 0.471384
-0.027769 -0.168190 0.471313
-0.008520 -0.158372 0.471286
0.011424 -0.158457 0.471286
0.031002 -0.168461 0.472267
-0.029181 -0.291051 0.488413
-0.026216 -0.291745 0.491217
-0.008520 -0.298186 0.491230
0.011424 -0.299225 0.491230
0.034881 -0.293717 0.491175
0.036290 -0.292666 0.491287
-0.049896 -0.269732 0.480711
-0.045404 -0.270641 0.491115
-0.029990 -0.289113 0.491568
0.051931 -0.273065 0.491376
0.053689 -0.270415 0.491787
-0.047708 -0.267730 0.491668
-0.062394 -0.250482 0.491230
0.064982 -0.250482 0.491230
-0.068237 -0.229459 0.488206
-0.068183 -0.230797 0.491332
0.070620 -0.232215 0.481435
0.070803 -0.230077 0.490055
-0.062950 -0.210595 0.491230
0.068406 -0.210595 0.491230
-0.049676 -0.192575 0.473884
-0.051292 -0.189058 0.491360
0.057858 -0.189341 0.491265
-0.049786 -0.186920 0.491085
-0.032866 -0.168486 0.491279
0.039648 -0.171423 0.490951
0.051616 -0.182393 0.491267
-0.031059 -0.167545 0.491181
-0.008520 -0.158874 0.491230
0.011424 -0.158904 0.491230
0.031771 -0.165283 0.491459
-0.012289 -0.295560 0.511199
-0.017972 -0.292446 0.511145
0.011424 -0.298065 0.511173
0.030672 -0.291313 0.508830
0.029588 -0.291155 0.512870
-0.029816 -0.285689 0.511177
-0.044995 -0.269030 0.511280
0.032880 -0.288823 0.511928
0.049798 -0.272393 0.501582
0.049146 -0.270168 0.511045
-0.046726 -0.266975 0.511058
-0.061385 -0.250482 0.511173
0.051888 -0.267180 0.510420
0.065208 -0.250482 0.511173
-0.067698 -0.230539 0.511173
0.070962 -0.230539 0.511173
-0.065179 -0.210595 0.511173
0.070476 -0.210595 0.511173
-0.054030 -0.188223 0.511139
0.065727 -0.190652 0.511173
-0.050822 -0.182815 0.511170
-0.036799 -0.167996 0.511232
0.051080 -0.170316 0.508282
0.053366 -0.171535 0.511009
-0.031832 -0.164112 0.511150
-0.008520 -0.160047 0.511173
0.011424 -0.160125 0.511173
0.031367 -0.161139 0.511173
0.050413 -0.168881 0.511871
-0.009319 -0.294035 0.532953
-0.017684 -0.289897 0.531797
0.014535 -0.294900 0.531110
0.021201 -0.291758 0.531151
-0.027762 -0.284743 0.530715
-0.045024 -0.268436 0.531122
0.031888 -0.285982 0.531084
0.048220 -0.269701 0.530987
-0.046447 -0.266743 0.531111
-0.058866 -0.250482 0.531117
0.050437 -0.267397 0.531251
0.065459 -0.250482 0.531117
-0.065104 -0.230539 0.531117
0.070885 -0.230539 0.531117
-0.063499 -0.210595 0.531117
0.071025 -0.210595 0.531117
-0.052942 -0.187959 0.531058
0.068598 -0.190652 0.531117
-0.049540 -0.181373 0.531183
-0.043849 -0.170832 0.531112
0.055158 -0.169063 0.530985
-0.028463 -0.159569 0.531117
-0.008520 -0.158285 0.531117
0.011424 -0.158260 0.531117
0.031367 -0.158696 0.531117
0.053287 -0.167482 0.531261
-0.009845 -0.290449 0.540307
0.009916 -0.291414 0.550221
0.011805 -0.291717 0.549119
0.013942 -0.290150 0.551958
-0.030297 -0.276553 0.551028
-0.036967 -0.270099 0.551046
-0.007854 -0.286181 0.550922
0.031367 -0.283966 0.551060
0.048734 -0.270624 0.550919
-0.047393 -0.258978 0.551125
-0.053210 -0.250476 0.551042
0.051499 -0.268125 0.551197
0.065938 -0.250482 0.551060
-0.060982 -0.230539 0.551060
0.070756 -0.230539 0.551060
-0.063956 -0.210595 0.551060
0.070329 -0.210595 0.551060
-0.056450 -0.190652 0.551060
0.066585 -0.190652 0.551060
-0.048129 -0.173757 0.551951
-0.046064 -0.171448 0.551973
0.053809 -0.170786 0.550797
-0.028463 -0.157108 0.551060
-0.008450 -0.151635 0.548673
-0.011105 -0.150895 0.552151
0.010700 -0.150920 0.548788
0.014376 -0.151310 0.549182
0.031405 -0.155684 0.551647
0.051293 -0.168250 0.551315
-0.007924 -0.149592 0.552718
0.011769 -0.149228 0.552553
0.010387 -0.289767 0.553572
-0.031078 -0.273037 0.570904
-0.033068 -0.271802 0.571102
-0.008520 -0.277176 0.571004
0.011424 -0.280629 0.571004
0.031367 -0.278439 0.571004
0.048104 -0.269958 0.570868
-0.048359 -0.253713 0.570943
-0.050167 -0.250757 0.571060
0.050436 -0.268054 0.571116
0.065933 -0.250482 0.571004
-0.059503 -0.230539 0.571004
0.070821 -0.230539 0.571004
-0.066462 -0.210595 0.571004
0.070372 -0.210595 0.571004
-0.062821 -0.190652 0.571004
0.067835 -0.190652 0.571004
-0.048203 -0.171127 0.561366
-0.050883 -0.170797 0.570312
0.057680 -0.168906 0.571041
-0.048424 -0.167922 0.570490
-0.029390 -0.151570 0.568668
-0.030181 -0.151278 0.572133
0.030820 -0.150200 0.561868
0.039383 -0.151790 0.569960
0.052125 -0.162731 0.571404
-0.026801 -0.149234 0.571228
-0.008520 -0.138587 0.571004
0.011424 -0.137540 0.571004
0.031834 -0.146149 0.570647
-0.031222 -0.273108 0.590850
-0.032991 -0.272030 0.591036
-0.008520 -0.276864 0.590947
0.011424 -0.277555 0.590947
0.031367 -0.276557 0.590947
0.048207 -0.270291 0.590830
-0.048141 -0.253585 0.590362
-0.050459 -0.250308 0.589681
0.050668 -0.268376 0.591041
0.066066 -0.250482 0.590947
-0.060968 -0.230539 0.590947
0.070769 -0.230539 0.590947
-0.067721 -0.210595 0.590947
0.070517 -0.210595 0.590947
-0.064970 -0.190652 0.590947
0.070167 -0.190652 0.590947
-0.050975 -0.170456 0.591167
0.066357 -0.170708 0.590947
-0.048903 -0.167921 0.591380
-0.030814 -0.151906 0.590316
0.051394 -0.150098 0.587948
0.053667 -0.151329 0.590542
-0.026737 -0.149073 0.589386
-0.008520 -0.139899 0.590947
0.011424 -0.138156 0.590947
0.031367 -0.141027 0.590947
0.050772 -0.148846 0.591323
-0.029114 -0.271112 0.608034
-0.026274 -0.271794 0.610864
-0.008520 -0.277820 0.610891
0.011424 -0.278845 0.610891
0.031367 -0.277633 0.610891
0.048517 -0.270442 0.610852
-0.047179 -0.250425 0.600849
-0.043875 -0.251173 0.608779
-0.029961 -0.269111 0.611169
0.051111 -0.268420 0.610925
0.065671 -0.250482 0.610891
-0.050767 -0.239468 0.612045
-0.054776 -0.233510 0.610698
0.070532 -0.230539 0.610891
-0.063196 -0.210595 0.610891
0.070368 -0.210595 0.610891
-0.061088 -0.190652 0.610891
0.070498 -0.190652 0.610891
-0.048987 -0.173387 0.611220
-0.049157 -0.169895 0.598873
-0.046321 -0.169987 0.611207
0.068576 -0.170708 0.610891
-0.028662 -0.152487 0.607837
-0.026116 -0.150186 0.601851
-0.025472 -0.150140 0.609136
0.054957 -0.149524 0.610821
-0.008520 -0.142708 0.610891
0.011424 -0.140256 0.610891
0.031367 -0.140272 0.610891
0.053066 -0.147836 0.610969
-0.012501 -0.275592 0.630863
-0.017804 -0.272635 0.630793
0.011424 -0.278986 0.630834
0.033278 -0.275147 0.630751
0.041723 -0.270119 0.630842
-0.030004 -0.265633 0.630851
-0.040053 -0.250482 0.630834
0.050073 -0.265087 0.630900
0.063735 -0.250482 0.630834
-0.047487 -0.232805 0.631458
-0.049501 -0.229599 0.628964
0.070197 -0.230539 0.630834
-0.053295 -0.210802 0.634604
0.070143 -0.210595 0.630834
-0.053858 -0.187058 0.630875
0.069644 -0.190652 0.630834
-0.051360 -0.181551 0.630581
-0.044569 -0.168986 0.631063
0.066023 -0.170708 0.630834
-0.030764 -0.151539 0.623242
-0.030949 -0.149788 0.629267
0.052956 -0.152138 0.628608
0.049112 -0.149334 0.630611
0.052342 -0.152064 0.632093
-0.028676 -0.148202 0.629048
-0.008520 -0.141341 0.630834
0.011424 -0.140502 0.630834
0.031367 -0.141736 0.630834
-0.009368 -0.274080 0.652066
-0.017639 -0.270034 0.651119
0.011424 -0.276444 0.650778
0.029582 -0.270694 0.647761
0.028701 -0.269958 0.650739
-0.027702 -0.264797 0.650421
-0.040573 -0.250482 0.650778
0.031914 -0.268546 0.650256
0.053120 -0.253614 0.650847
0.054922 -0.251371 0.651406
-0.048513 -0.228424 0.632725
-0.045090 -0.230539 0.650778
0.067863 -0.230539 0.650778
-0.051088 -0.210150 0.639180
-0.045346 -0.210845 0.652955
0.069693 -0.210595 0.650778
-0.048974 -0.191345 0.648191
-0.047873 -0.190249 0.651990
0.069499 -0.190652 0.650778
-0.044863 -0.170708 0.650778
0.065650 -0.170708 0.650778
-0.034853 -0.146895 0.650785
0.048954 -0.150204 0.650946
0.051892 -0.152654 0.650629
-0.033467 -0.145624 0.650771
-0.008520 -0.139303 0.650778
0.011424 -0.139165 0.650778
0.031367 -0.141286 0.650778
-0.009597 -0.269653 0.660607
0.010837 -0.269800 0.667548
-0.032302 -0.254332 0.670643
-0.033499 -0.253047 0.670796
-0.007947 -0.265765 0.669651
0.011758 -0.268646 0.670066
0.033821 -0.257905 0.670860
0.051371 -0.250533 0.660092
0.040735 -0.253337 0.670979
-0.045985 -0.230539 0.670721
0.052288 -0.245337 0.669678
0.063756 -0.230539 0.670721
-0.044948 -0.210595 0.670721
0.069277 -0.210595 0.670721
-0.044520 -0.190652 0.670721
0.069702 -0.190652 0.670721
-0.045208 -0.170708 0.670721
0.065619 -0.170708 0.670721
-0.043598 -0.150765 0.670721
0.049237 -0.149902 0.670875
0.052227 -0.152666 0.670574
-0.028463 -0.139349 0.670721
-0.008520 -0.136115 0.670721
0.011619 -0.133594 0.669957
0.031367 -0.137542 0.670721
-0.029822 -0.249732 0.688569
-0.025888 -0.251747 0.689887
-0.008520 -0.254952 0.690665
0.011424 -0.259137 0.690665
0.032858 -0.255077 0.690678
0.041278 -0.250208 0.690655
-0.028419 -0.249413 0.692259
-0.044150 -0.230539 0.690665
0.049604 -0.245062 0.690663
0.062746 -0.230539 0.690665
-0.045771 -0.210595 0.690665
0.068818 -0.210595 0.690665
-0.045432 -0.190652 0.690665
0.068889 -0.190652 0.690665
-0.045779 -0.170708 0.690665
0.064076 -0.170708 0.690665
-0.041455 -0.150765 0.690665
0.048639 -0.151205 0.690690
0.050929 -0.153651 0.690639
-0.028463 -0.140492 0.690665
-0.008868 -0.131671 0.690219
0.009664 -0.128889 0.680563
-0.005708 -0.130517 0.691540
0.022049 -0.128559 0.691947
0.032662 -0.133676 0.690486
0.014861 -0.127999 0.688028
-0.008320 -0.251956 0.709208
-0.011770 -0.250721 0.709895
0.011424 -0.254860 0.710608
0.031015 -0.253524 0.711623
0.039677 -0.249856 0.711728
-0.032193 -0.236202 0.710738
-0.033193 -0.235261 0.710485
0.052661 -0.239161 0.710227
0.058594 -0.234183 0.710597
-0.042411 -0.210595 0.710608
0.066051 -0.210595 0.710608
-0.043252 -0.190652 0.710608
0.065378 -0.190652 0.710608
-0.042753 -0.170708 0.710608
0.058069 -0.168986 0.710474
-0.033301 -0.147282 0.710561
0.040962 -0.148893 0.710546
0.052818 -0.162745 0.710770
-0.032278 -0.145859 0.710653
-0.008342 -0.131839 0.711014
-0.005314 -0.130684 0.709936
0.020641 -0.130591 0.709286
0.031536 -0.140435 0.710751
0.011509 -0.127794 0.713878
-0.007933 -0.249288 0.722347
0.009475 -0.251142 0.729136
0.012422 -0.251636 0.728169
0.030130 -0.251599 0.720018
0.013979 -0.250033 0.732190
-0.028925 -0.229080 0.727666
-0.026231 -0.230820 0.730052
-0.008675 -0.246964 0.729003
0.031495 -0.247809 0.730661
0.051049 -0.233036 0.730393
0.053355 -0.229857 0.730408
-0.027821 -0.228060 0.730743
-0.034077 -0.210784 0.734138
0.059881 -0.210595 0.730552
-0.037962 -0.190652 0.730552
0.060149 -0.190652 0.730552
-0.037367 -0.170708 0.730552
0.053392 -0.171313 0.731427
-0.030940 -0.150599 0.731827
0.033847 -0.149827 0.730258
0.050990 -0.167876 0.731885
-0.028684 -0.147844 0.731951
-0.008520 -0.134772 0.730552
0.011321 -0.132724 0.731613
0.011062 -0.129305 0.721656
0.030874 -0.147477 0.730841
0.010249 -0.249741 0.732621
-0.009196 -0.233435 0.750951
-0.011885 -0.231648 0.750807
0.011472 -0.235811 0.753196
0.032387 -0.233586 0.750217
0.051216 -0.230473 0.733400
0.034437 -0.230952 0.751166
-0.030577 -0.210146 0.739859
-0.023336 -0.210907 0.751416
0.050426 -0.210803 0.747600
0.048688 -0.210341 0.749354
-0.029732 -0.190630 0.748881
-0.026960 -0.190672 0.751680
0.052363 -0.191025 0.748897
0.049850 -0.190350 0.751297
-0.028799 -0.170499 0.748678
-0.026471 -0.170979 0.751022
0.051544 -0.170437 0.734232
0.036520 -0.169044 0.752357
-0.029052 -0.149876 0.734245
-0.011906 -0.150019 0.751387
0.032527 -0.152096 0.737265
0.017968 -0.149253 0.751045
0.032575 -0.162895 0.750155
-0.010036 -0.147531 0.750141
0.012330 -0.146717 0.751270
-0.009639 -0.230750 0.752867
0.011371 -0.234487 0.754038
0.031178 -0.230887 0.752690
-0.008520 -0.210595 0.758696
0.011424 -0.210595 0.760245
0.031367 -0.210595 0.758286
-0.008520 -0.190652 0.759326
0.011424 -0.190652 0.760260
0.031367 -0.190652 0.758576
-0.008520 -0.170708 0.758136
0.011424 -0.170708 0.758809
0.035353 -0.169443 0.753562
-0.009046 -0.150080 0.752427
0.012248 -0.148338 0.752973
3 0 1 2
3 0 3 4
3 1 0 4
3 4 3 5
3 6 7 8
3 2 7 6
3 2 6 0
3 0 6 9
3 3 0 10
3 10 0 9
3 11 5 3
3 10 11 3
3 12 6 8
3 13 12 8
3 9 6 14
3 14 6 12
3 10 9 15
3 15 9 14
3 16 11 10
3 16 10 17
3 17 10 15
3 16 17 18
3 12 13 19
3 14 12 19
3 20 14 19
3 15 14 20
3 21 15 20
3 17 15 21
3 22 17 21
3 18 17 22
3 23 24 25
3 23 2 1
3 23 1 24
3 24 1 26
3 4 27 1
3 1 27 26
3 27 4 5
3 28 27 5
3 7 23 25
3 7 25 8
3 8 25 29
3 2 23 7
3 30 11 31
3 30 28 11
3 28 5 11
3 30 31 32
3 8 29 13
3 29 33 13
3 11 16 31
3 31 16 18
3 31 18 32
3 32 18 34
3 13 33 35
3 19 13 35
3 36 35 37
3 36 20 35
3 20 19 35
3 20 38 21
3 36 38 20
3 39 21 38
3 39 40 21
3 40 22 21
3 34 18 22
3 40 34 22
3 36 37 41
3 38 36 41
3 42 38 41
3 39 38 42
3 24 43 25
3 44 43 24
3 44 24 45
3 45 24 26
3 27 46 26
3 26 46 45
3 28 47 48
3 28 48 27
3 27 48 46
3 48 47 49
3 43 50 51
3 43 51 25
3 25 51 29
3 44 50 43
3 28 30 47
3 47 30 32
3 47 32 49
3 49 32 52
3 29 51 33
3 51 53 33
3 32 34 52
3 52 34 54
3 55 35 33
3 55 33 56
3 56 33 53
3 35 55 37
3 40 39 57
3 40 57 58
3 40 58 34
3 34 58 54
3 55 56 59
3 37 55 59
3 37 59 41
3 41 59 60
3 42 41 61
3 41 60 61
3 57 39 42
3 57 42 62
3 62 42 61
3 58 57 62
3 63 64 65
3 63 44 45
3 63 45 64
3 64 45 66
3 46 67 45
3 45 67 66
3 48 68 46
3 46 68 67
3 68 48 49
3 69 68 49
3 50 63 65
3 50 65 51
3 51 65 70
3 44 63 50
3 49 52 69
3 69 52 71
3 72 73 74
3 72 70 73
3 72 53 70
3 53 51 70
3 52 54 71
3 71 54 75
3 72 74 76
3 76 53 72
3 76 77 53
3 77 56 53
3 54 58 75
3 75 58 78
3 56 77 79
3 59 56 79
3 80 79 81
3 80 60 79
3 60 59 79
3 60 82 61
3 80 82 60
3 83 61 82
3 83 84 61
3 84 62 61
3 78 58 62
3 84 78 62
3 80 81 85
3 82 80 85
3 86 82 85
3 83 82 86
3 64 87 88
3 65 64 88
3 66 89 64
3 64 89 87
3 67 90 66
3 66 90 89
3 68 91 67
3 67 91 90
3 91 68 69
3 92 91 69
3 93 94 95
3 93 88 94
3 93 70 88
3 70 65 88
3 96 71 97
3 96 92 71
3 92 69 71
3 96 97 98
3 73 93 95
3 73 95 74
3 74 95 99
3 70 93 73
3 97 75 100
3 71 75 97
3 101 98 97
3 100 101 97
3 74 99 102
3 76 74 102
3 102 77 76
3 103 77 102
3 100 104 105
3 100 75 104
3 75 78 104
3 101 100 105
3 106 79 77
3 106 77 107
3 107 77 103
3 79 106 81
3 84 83 108
3 84 108 109
3 84 109 78
3 78 109 104
3 106 107 110
3 81 106 110
3 81 110 85
3 85 110 111
3 86 85 112
3 85 111 112
3 108 83 86
3 108 86 113
3 113 86 112
3 109 108 113
3 87 114 115
3 88 87 115
3 89 116 87
3 87 116 114
3 90 117 89
3 89 117 116
3 91 118 90
3 90 118 117
3 118 91 92
3 119 118 92
3 94 120 121
3 95 94 121
3 115 94 88
3 120 94 115
3 92 122 119
3 96 122 92
3 122 96 98
3 123 122 98
3 95 121 99
3 121 124 99
3 98 101 123
3 123 101 125
3 99 124 126
3 102 99 126
3 126 103 102
3 127 103 126
3 105 128 129
3 104 128 105
3 125 101 105
3 129 125 105
3 103 127 107
3 127 130 107
3 104 109 128
3 128 109 131
3 107 130 132
3 110 107 132
3 111 110 133
3 110 132 133
3 112 111 134
3 111 133 134
3 113 112 135
3 112 134 135
3 131 109 113
3 135 131 113
3 114 136 137
3 115 114 137
3 116 138 114
3 114 138 136
3 117 139 116
3 116 139 138
3 118 140 117
3 117 140 139
3 140 118 119
3 141 140 119
3 120 142 143
3 121 120 143
3 137 120 115
3 142 120 137
3 119 144 141
3 122 144 119
3 144 122 123
3 145 144 123
3 146 147 124
3 146 124 143
3 143 124 121
3 146 148 147
3 123 125 145
3 145 125 149
3 124 147 126
3 147 127 126
3 147 148 127
3 148 150 127
3 129 151 152
3 128 151 129
3 149 125 129
3 152 149 129
3 127 150 130
3 150 153 130
3 128 131 151
3 151 131 154
3 130 153 155
3 132 130 155
3 156 155 157
3 156 133 155
3 133 132 155
3 133 158 134
3 156 158 133
3 159 134 158
3 159 160 134
3 160 135 134
3 154 131 135
3 160 154 135
3 156 157 161
3 158 156 161
3 162 158 161
3 159 158 162
3 136 163 164
3 137 136 164
3 138 165 136
3 136 165 163
3 139 166 138
3 138 166 165
3 140 167 139
3 139 167 166
3 167 140 141
3 168 167 141
3 142 169 170
3 143 142 170
3 164 142 137
3 169 142 164
3 141 171 168
3 144 171 141
3 171 144 145
3 172 171 145
3 143 170 173
3 146 143 173
3 173 148 146
3 174 148 173
3 145 149 172
3 172 149 175
3 176 177 178
3 176 174 177
3 176 150 174
3 150 148 174
3 152 151 179
3 152 179 180
3 152 180 149
3 149 180 175
3 176 178 181
3 181 150 176
3 181 182 150
3 182 153 150
3 179 183 184
3 179 151 183
3 151 154 183
3 180 179 184
3 185 155 153
3 185 153 186
3 186 153 182
3 155 185 157
3 160 159 187
3 160 187 188
3 160 188 154
3 154 188 183
3 185 186 189
3 157 185 189
3 157 189 161
3 161 189 190
3 162 161 191
3 161 190 191
3 187 159 162
3 187 162 192
3 192 162 191
3 188 187 192
3 163 193 194
3 164 163 194
3 165 195 163
3 163 195 193
3 166 196 165
3 165 196 195
3 167 197 166
3 166 197 196
3 197 167 168
3 198 197 168
3 169 199 200
3 170 169 200
3 194 169 164
3 199 169 194
3 168 201 198
3 171 201 168
3 201 171 172
3 202 201 172
3 203 173 170
3 203 170 204
3 204 170 200
3 173 203 174
3 172 175 202
3 202 175 205
3 177 203 204
3 177 204 178
3 178 204 206
3 174 203 177
3 175 180 205
3 205 180 207
3 178 206 208
3 181 178 208
3 208 182 181
3 209 182 208
3 184 183 210
3 184 210 211
3 184 211 180
3 180 211 207
3 182 209 186
3 209 212 186
3 210 213 214
3 210 183 213
3 183 188 213
3 211 210 214
3 186 212 215
3 189 186 215
3 190 189 216
3 189 215 216
3 191 190 217
3 190 216 217
3 192 191 218
3 191 217 218
3 213 188 192
3 218 213 192
3 193 219 220
3 194 193 220
3 195 221 193
3 193 221 219
3 196 222 195
3 195 222 221
3 197 223 196
3 196 223 222
3 223 197 198
3 224 223 198
3 199 225 226
3 200 199 226
3 220 199 194
3 225 199 220
3 198 227 224
3 201 227 198
3 227 201 202
3 228 227 202
3 200 226 204
3 226 229 204
3 202 205 228
3 228 205 230
3 204 229 206
3 229 231 206
3 205 207 230
3 230 207 232
3 233 208 206
3 233 206 234
3 234 206 231
3 208 233 209
3 207 211 232
3 232 211 235
3 233 234 236
3 236 209 233
3 236 237 209
3 237 212 209
3 214 238 239
3 213 238 214
3 235 211 214
3 239 235 214
3 212 237 240
3 215 212 240
3 216 215 241
3 215 240 241
3 217 216 242
3 216 241 242
3 218 217 243
3 217 242 243
3 238 213 218
3 243 238 218
3 219 244 245
3 220 219 245
3 221 246 219
3 219 246 244
3 222 247 221
3 221 247 246
3 223 248 222
3 222 248 247
3 248 223 224
3 249 248 224
3 225 250 251
3 226 225 251
3 245 225 220
3 250 225 245
3 224 252 249
3 227 252 224
3 252 227 228
3 253 252 228
3 226 251 229
3 251 254 229
3 228 230 253
3 253 230 255
3 229 254 231
3 254 256 231
3 257 232 258
3 257 255 232
3 255 230 232
3 257 258 259
3 231 256 234
3 256 260 234
3 258 261 262
3 258 232 261
3 232 235 261
3 259 258 262
3 234 260 263
3 236 234 263
3 263 237 236
3 264 237 263
3 239 238 265
3 239 265 266
3 239 266 235
3 235 266 261
3 237 264 267
3 240 237 267
3 268 267 269
3 268 241 267
3 241 240 267
3 241 270 242
3 268 270 241
3 271 242 270
3 271 272 242
3 272 243 242
3 265 238 243
3 265 243 273
3 273 243 272
3 266 265 273
3 268 269 274
3 270 268 274
3 275 270 274
3 271 270 275
3 244 276 277
3 245 244 277
3 246 278 244
3 244 278 276
3 247 279 246
3 246 279 278
3 248 280 247
3 247 280 279
3 280 248 249
3 281 280 249
3 250 282 283
3 251 250 283
3 277 250 245
3 282 250 277
3 249 284 281
3 252 284 249
3 284 252 253
3 285 284 253
3 251 283 254
3 283 286 254
3 253 255 285
3 285 255 287
3 288 289 290
3 288 286 289
3 288 256 286
3 256 254 286
3 255 291 287
3 257 291 255
3 291 257 259
3 292 291 259
3 288 290 293
3 293 256 288
3 293 294 256
3 294 260 256
3 262 295 296
3 261 295 262
3 292 259 262
3 296 292 262
3 260 294 297
3 263 260 297
3 297 264 263
3 298 264 297
3 261 266 295
3 295 266 299
3 300 267 264
3 300 264 301
3 301 264 298
3 267 300 269
3 272 271 302
3 303 272 302
3 303 304 272
3 304 273 272
3 299 266 273
3 304 299 273
3 300 301 305
3 269 300 305
3 269 305 274
3 274 305 306
3 275 274 307
3 274 306 307
3 302 271 275
3 302 275 308
3 308 275 307
3 303 302 308
3 276 309 277
3 310 309 276
3 310 276 311
3 311 276 278
3 279 312 278
3 278 312 311
3 280 313 279
3 279 313 312
3 313 280 281
3 314 313 281
3 282 315 283
3 282 316 315
3 277 316 282
3 277 317 316
3 277 309 317
3 310 317 309
3 281 318 314
3 284 318 281
3 318 284 285
3 319 318 285
3 315 320 321
3 315 321 283
3 283 321 286
3 316 320 315
3 285 287 319
3 319 287 322
3 289 323 290
3 289 324 323
3 289 286 324
3 286 321 324
3 325 287 291
3 325 326 287
3 326 322 287
3 291 292 325
3 290 323 293
3 323 294 293
3 323 324 294
3 324 327 294
3 296 326 325
3 296 295 326
3 295 328 326
3 292 296 325
3 329 297 294
3 329 294 330
3 330 294 327
3 297 329 298
3 295 299 328
3 328 299 331
3 329 330 332
3 332 298 329
3 332 333 298
3 333 301 298
3 304 334 335
3 303 334 304
3 331 299 304
3 335 331 304
3 301 333 336
3 305 301 336
3 306 305 337
3 305 336 337
3 307 306 338
3 306 337 338
3 308 307 339
3 307 338 339
3 334 303 308
3 339 334 308
3 311 340 341
3 310 311 341
3 312 342 311
3 311 342 340
3 343 344 342
3 343 342 313
3 313 342 312
3 313 314 343
3 317 345 346
3 316 317 346
3 341 317 310
3 345 317 341
3 343 347 344
3 348 349 347
3 318 348 347
3 318 347 343
3 318 343 314
3 318 319 348
3 320 350 351
3 321 320 351
3 346 320 316
3 350 320 346
3 348 352 349
3 352 348 319
3 352 319 353
3 353 319 322
3 321 351 324
3 351 354 324
3 322 326 353
3 353 326 355
3 324 354 327
3 354 356 327
3 326 328 355
3 355 328 357
3 327 356 330
3 356 358 330
3 328 331 357
3 357 331 359
3 330 358 360
3 332 330 360
3 360 333 332
3 361 333 360
3 335 334 362
3 335 362 363
3 335 363 331
3 331 363 359
3 333 361 364
3 336 333 364
3 337 336 365
3 336 364 365
3 338 337 366
3 337 365 366
3 339 338 367
3 338 366 367
3 362 334 339
3 362 339 368
3 368 339 367
3 363 362 368
3 340 369 370
3 341 340 370
3 342 371 340
3 340 371 369
3 371 342 344
3 372 371 344
3 345 373 374
3 346 345 374
3 370 345 341
3 373 345 370
3 344 375 372
3 347 375 344
3 375 347 349
3 376 375 349
3 350 377 378
3 351 350 378
3 374 350 346
3 377 350 374
3 349 379 376
3 352 379 349
3 379 352 353
3 380 379 353
3 351 378 354
3 378 381 354
3 353 355 380
3 380 355 382
3 354 381 356
3 381 383 356
3 355 357 382
3 382 357 384
3 356 383 358
3 383 385 358
3 357 359 384
3 384 359 386
3 358 385 387
3 360 358 387
3 387 361 360
3 388 361 387
3 359 363 386
3 386 363 389
3 361 388 390
3 364 361 390
3 365 364 391
3 364 390 391
3 366 365 392
3 365 391 392
3 367 366 393
3 366 392 393
3 368 367 394
3 367 393 394
3 389 363 368
3 394 389 368
3 369 395 370
3 396 395 369
3 396 369 397
3 397 369 371
3 397 371 372
3 398 397 372
3 373 399 400
3 374 373 400
3 395 373 370
3 395 401 373
3 401 399 373
3 396 401 395
3 372 402 398
3 375 402 372
3 402 375 376
3 403 402 376
3 377 404 405
3 378 377 405
3 400 377 374
3 404 377 400
3 376 406 403
3 379 406 376
3 406 379 380
3 407 406 380
3 378 405 381
3 405 408 381
3 380 382 407
3 407 382 409
3 381 408 383
3 408 410 383
3 382 384 409
3 409 384 411
3 383 410 385
3 410 412 385
3 384 386 411
3 411 386 413
3 385 412 414
3 387 385 414
3 414 388 387
3 415 388 414
3 386 389 413
3 413 389 416
3 388 415 417
3 390 388 417
3 418 417 419
3 418 391 417
3 391 390 417
3 391 420 392
3 418 420 391
3 421 392 420
3 421 422 392
3 422 393 392
3 394 393 423
3 393 422 423
3 416 389 394
3 423 416 394
3 418 419 424
3 420 418 424
3 425 420 424
3 421 420 425
3 397 426 396
3 397 398 426
3 399 427 428
3 400 399 428
3 401 429 399
3 399 429 427
3 426 401 396
3 426 430 401
3 430 429 401
3 398 430 426
3 398 402 430
3 402 431 430
3 431 402 403
3 432 431 403
3 404 433 434
3 405 404 434
3 428 404 400
3 433 404 428
3 403 435 432
3 406 435 403
3 435 406 407
3 436 435 407
3 405 434 408
3 434 437 408
3 407 409 436
3 436 409 438
3 408 437 410
3 437 439 410
3 409 411 438
3 438 411 440
3 410 439 412
3 439 441 412
3 411 413 440
3 440 413 442
3 443 414 412
3 443 412 444
3 444 412 441
3 414 443 415
3 413 416 442
3 442 416 445
3 443 444 446
3 447 446 448
3 417 446 447
3 417 443 446
3 417 415 443
3 417 447 419
3 422 421 449
3 450 422 449
3 450 451 422
3 451 423 422
3 445 416 423
3 451 445 423
3 447 448 452
3 419 447 452
3 419 452 424
3 424 452 453
3 425 424 454
3 424 453 454
3 449 421 425
3 449 425 455
3 455 425 454
3 450 449 455
3 427 456 457
3 428 427 457
3 429 458 427
3 427 458 456
3 430 459 429
3 429 459 458
3 431 460 430
3 430 460 459
3 460 431 432
3 461 460 432
3 433 462 463
3 434 433 463
3 457 433 428
3 462 433 457
3 432 464 461
3 435 464 432
3 464 435 436
3 465 464 436
3 434 463 437
3 463 466 437
3 436 438 465
3 465 438 467
3 437 466 439
3 466 468 439
3 438 440 467
3 467 440 469
3 439 468 441
3 468 470 441
3 440 442 469
3 469 442 471
3 441 470 444
3 470 472 444
3 442 445 471
3 471 445 473
3 444 472 474
3 446 444 474
3 474 448 446
3 475 448 474
3 451 450 476
3 451 476 477
3 451 477 445
3 445 477 473
3 448 475 478
3 452 448 478
3 453 452 479
3 452 478 479
3 454 453 480
3 453 479 480
3 455 454 481
3 454 480 481
3 476 450 455
3 476 455 482
3 482 455 481
3 477 476 482
3 456 483 457
3 484 483 456
3 484 456 485
3 485 456 458
3 459 486 458
3 458 486 485
3 460 487 459
3 459 487 486
3 487 460 461
3 488 487 461
3 462 489 463
3 462 490 489
3 457 490 462
3 457 491 490
3 457 483 491
3 484 491 483
3 461 492 488
3 464 492 461
3 492 464 465
3 493 492 465
3 489 494 495
3 489 495 463
3 463 495 466
3 490 494 489
3 465 467 493
3 493 467 496
3 466 495 468
3 495 497 468
3 467 469 496
3 496 469 498
3 468 497 470
3 497 499 470
3 469 471 498
3 498 471 500
3 501 502 472
3 501 472 499
3 499 472 470
3 501 503 502
3 471 473 500
3 500 473 504
3 472 502 474
3 475 505 506
3 474 505 475
3 474 503 505
3 474 502 503
3 505 507 506
3 473 477 504
3 504 477 508
3 475 506 478
3 506 507 509
3 506 509 478
3 478 509 479
3 480 479 510
3 479 509 510
3 481 480 511
3 480 510 511
3 482 481 512
3 481 511 512
3 508 477 482
3 512 508 482
3 485 513 514
3 484 485 514
3 486 515 485
3 485 515 513
3 487 516 486
3 486 516 515
3 516 487 488
3 517 516 488
3 491 518 519
3 490 491 519
3 514 491 484
3 518 491 514
3 488 520 517
3 492 520 488
3 520 492 493
3 521 520 493
3 494 522 523
3 495 494 523
3 519 494 490
3 522 494 519
3 493 496 521
3 521 496 524
3 495 523 497
3 523 525 497
3 496 498 524
3 524 498 526
3 497 525 499
3 525 527 499
3 498 500 526
3 526 500 528
3 499 527 529
3 501 499 529
3 529 503 501
3 530 503 529
3 500 504 528
3 528 504 531
3 532 505 503
3 532 503 533
3 533 503 530
3 505 532 507
3 534 535 536
3 534 536 531
3 534 531 508
3 508 531 504
3 532 533 537
3 507 532 537
3 507 537 509
3 509 537 538
3 510 509 539
3 509 538 539
3 511 510 540
3 510 539 540
3 535 534 512
3 535 512 540
3 540 512 511
3 508 512 534
3 513 541 542
3 514 513 542
3 515 543 513
3 513 543 541
3 544 545 543
3 544 543 516
3 516 543 515
3 516 517 544
3 518 546 547
3 519 518 547
3 542 518 514
3 546 518 542
3 544 548 545
3 517 548 544
3 517 520 548
3 520 549 548
3 549 520 521
3 550 549 521
3 522 551 523
3 522 552 551
3 522 519 552
3 519 547 552
3 521 524 550
3 550 524 553
3 551 554 525
3 523 551 525
3 555 551 552
3 554 551 555
3 524 526 553
3 553 526 556
3 554 557 527
3 525 554 527
3 558 554 555
3 557 554 558
3 526 528 556
3 556 528 559
3 527 557 529
3 557 530 529
3 557 558 530
3 558 560 530
3 528 531 559
3 559 531 561
3 530 560 533
3 560 562 533
3 536 563 564
3 535 563 536
3 561 531 536
3 564 561 536
3 533 562 565
3 537 533 565
3 538 537 566
3 537 565 566
3 539 538 567
3 538 566 567
3 540 539 568
3 539 567 568
3 563 535 540
3 568 563 540
3 541 569 542
3 541 543 570
3 569 541 570
3 543 545 570
3 546 571 572
3 547 546 572
3 569 546 542
3 569 573 546
3 573 571 546
3 570 573 569
3 574 573 570
3 545 574 570
3 545 548 574
3 548 575 574
3 576 577 575
3 576 575 549
3 549 575 548
3 549 550 576
3 547 572 552
3 572 578 552
3 576 579 577
3 579 576 550
3 579 550 580
3 580 550 553
3 552 578 555
3 578 581 555
3 553 556 580
3 580 556 582
3 555 581 558
3 581 583 558
3 556 559 582
3 582 559 584
3 558 583 560
3 583 585 560
3 559 561 584
3 584 561 586
3 560 585 562
3 585 587 562
3 564 588 589
3 563 588 564
3 586 561 564
3 589 586 564
3 562 587 590
3 565 562 590
3 566 565 591
3 565 590 591
3 567 566 592
3 566 591 592
3 568 567 593
3 567 592 593
3 588 563 568
3 593 588 568
3 571 594 572
3 595 594 571
3 595 571 596
3 596 571 573
3 574 597 573
3 573 597 596
3 575 598 574
3 574 598 597
3 598 575 577
3 599 598 577
3 594 600 601
3 594 601 572
3 572 601 578
3 595 600 594
3 577 602 599
3 579 602 577
3 602 579 580
3 603 602 580
3 578 601 581
3 601 604 581
3 580 582 603
3 603 582 605
3 581 604 583
3 604 606 583
3 582 584 605
3 605 584 607
3 583 606 585
3 606 608 585
3 584 586 607
3 607 586 609
3 585 608 587
3 608 610 587
3 589 611 612
3 588 611 589
3 609 586 589
3 612 609 589
3 587 610 613
3 590 587 613
3 591 590 614
3 590 613 614
3 615 614 616
3 615 592 614
3 592 591 614
3 617 592 615
3 617 618 592
3 618 593 592
3 611 588 593
3 618 611 593
3 615 616 619
3 617 615 619
3 596 620 621
3 595 596 621
3 597 622 596
3 596 622 620
3 598 623 597
3 597 623 622
3 623 598 599
3 624 623 599
3 600 625 626
3 601 600 626
3 621 600 595
3 625 600 621
3 599 627 624
3 602 627 599
3 627 602 603
3 628 627 603
3 601 626 604
3 626 629 604
3 603 605 628
3 628 605 630
3 604 629 606
3 629 631 606
3 605 607 630
3 630 607 632
3 606 631 608
3 631 633 608
3 607 609 632
3 632 609 634
3 608 633 610
3 633 635 610
3 612 636 637
3 611 636 612
3 634 609 612
3 637 634 612
3 610 635 638
3 613 610 638
3 614 613 639
3 613 638 639
3 639 616 614
3 640 616 639
3 618 641 642
3 617 641 618
3 636 611 618
3 642 636 618
3 616 640 643
3 619 616 643
3 641 617 619
3 643 641 619
3 620 644 621
3 645 644 620
3 645 620 646
3 646 620 622
3 647 648 646
3 647 646 623
3 623 646 622
3 623 624 647
3 625 649 626
3 625 650 649
3 621 650 625
3 621 651 650
3 621 644 651
3 645 651 644
3 647 652 648
3 624 652 647
3 624 627 652
3 627 653 652
3 653 627 628
3 654 653 628
3 649 655 656
3 649 656 626
3 626 656 629
3 650 655 649
3 628 630 654
3 654 630 657
3 629 656 631
3 656 658 631
3 630 632 657
3 657 632 659
3 631 658 633
3 658 660 633
3 632 634 659
3 659 634 661
3 633 660 635
3 660 662 635
3 637 663 664
3 636 663 637
3 661 634 637
3 664 661 637
3 635 662 665
3 638 635 665
3 639 638 666
3 638 665 666
3 640 667 668
3 640 639 667
3 639 666 667
3 668 642 641
3 668 667 642
3 667 669 642
3 663 636 642
3 669 663 642
3 640 668 643
3 641 643 668
3 646 670 645
3 646 648 670
3 651 671 672
3 650 651 672
3 670 651 645
3 670 673 651
3 673 671 651
3 648 673 670
3 648 652 673
3 652 674 673
3 675 676 674
3 675 674 653
3 653 674 652
3 653 654 675
3 655 677 656
3 655 678 677
3 655 650 678
3 650 672 678
3 679 676 675
3 680 676 679
3 654 657 679
3 675 654 679
3 677 681 658
3 656 677 658
3 682 677 678
3 681 677 682
3 683 680 679
3 684 680 683
3 657 659 683
3 679 657 683
3 681 685 660
3 658 681 660
3 686 681 682
3 685 681 686
3 687 684 683
3 688 684 687
3 659 661 687
3 683 659 687
3 685 689 662
3 660 685 662
3 690 685 686
3 689 685 690
3 691 692 693
3 688 691 693
3 687 691 688
3 687 663 691
3 687 664 663
3 661 664 687
3 662 689 665
3 689 690 694
3 689 694 665
3 665 694 666
3 667 666 695
3 666 694 695
3 692 691 669
3 692 669 695
3 695 669 667
3 663 669 691
3 671 696 672
3 671 673 697
3 696 671 697
3 673 674 698
3 697 673 698
3 674 676 698
3 696 699 678
3 672 696 678
3 697 700 696
3 700 699 696
3 698 701 697
3 701 700 697
3 676 680 701
3 698 676 701
3 699 702 682
3 678 699 682
3 700 703 699
3 703 702 699
3 701 704 700
3 704 703 700
3 680 684 704
3 701 680 704
3 702 705 686
3 682 702 686
3 703 706 702
3 706 705 702
3 704 707 703
3 707 706 703
3 684 688 707
3 704 684 707
3 705 708 690
3 686 705 690
3 706 709 705
3 709 708 705
3 693 692 709
3 693 709 707
3 707 709 706
3 688 693 707
3 690 708 694
3 695 694 708
3 709 695 708
3 692 695 709
