ply
format ascii 1.0
comment Created by Blender 2.79 (sub 4) - www.blender.org, source file: 'tap_new_version.blend'
element vertex 891
property float x
property float y
property float z
element face 1774
property list uchar int vertex_indices
end_header
-0.029594 -0.289265 0.149893
-0.030136 -0.292658 0.152335
-0.031984 -0.290634 0.151577
-0.018391 -0.290852 0.154219
-0.028463 -0.270426 0.139169
-0.047368 -0.269656 0.151799
-0.010011 -0.286803 0.153233
-0.008520 -0.270426 0.141661
0.012699 -0.271052 0.149475
0.012443 -0.273745 0.150703
0.020701 -0.272261 0.152642
-0.026554 -0.245885 0.144372
-0.035869 -0.245774 0.153925
-0.008520 -0.250482 0.137945
0.011424 -0.250482 0.142054
0.030440 -0.258652 0.151321
0.031184 -0.249721 0.150228
0.034513 -0.250730 0.152283
-0.032980 -0.247510 0.148094
-0.008329 -0.233935 0.155852
0.011780 -0.234945 0.153088
0.032860 -0.247909 0.152030
-0.026799 -0.310137 0.169273
-0.026477 -0.313201 0.172153
-0.038865 -0.311038 0.172274
-0.017928 -0.310860 0.171333
-0.050441 -0.292186 0.167006
-0.048522 -0.298568 0.170453
-0.051531 -0.291708 0.168435
-0.009315 -0.288863 0.155049
-0.008261 -0.307508 0.171894
0.011491 -0.291367 0.165997
0.011321 -0.300730 0.172665
0.031658 -0.289822 0.169811
0.031437 -0.292991 0.172087
0.034324 -0.291258 0.172361
-0.049038 -0.271602 0.153879
-0.053133 -0.267692 0.172119
0.031816 -0.269839 0.154856
0.051988 -0.273699 0.170659
0.051488 -0.271104 0.169266
0.053702 -0.271057 0.171982
-0.049092 -0.260777 0.172215
-0.043411 -0.250623 0.172054
0.051656 -0.250059 0.169379
0.053375 -0.250608 0.172026
-0.028463 -0.239111 0.172134
-0.009188 -0.232480 0.160948
-0.011040 -0.229712 0.174128
0.009707 -0.230655 0.161228
0.023086 -0.229636 0.173692
0.031505 -0.233097 0.173505
0.051318 -0.247758 0.171270
-0.007578 -0.228552 0.173998
0.013544 -0.227827 0.170404
-0.029200 -0.330364 0.189685
-0.029201 -0.332329 0.192433
-0.031667 -0.330468 0.191294
-0.006564 -0.330669 0.188885
-0.006728 -0.332952 0.191269
-0.000934 -0.333157 0.192514
-0.048590 -0.309486 0.181143
-0.052039 -0.316825 0.193701
-0.051840 -0.314459 0.189983
-0.007946 -0.310568 0.174485
0.012384 -0.327420 0.191064
0.011481 -0.308030 0.178397
0.032504 -0.313161 0.188392
0.032659 -0.314763 0.189994
0.039430 -0.311113 0.191886
-0.056970 -0.290369 0.192077
0.053635 -0.290835 0.187936
0.050362 -0.299152 0.191015
0.054811 -0.290775 0.190202
-0.050874 -0.268504 0.191978
0.059481 -0.270426 0.192077
-0.049997 -0.266358 0.192186
-0.033415 -0.246195 0.192001
0.053867 -0.248833 0.191979
-0.032661 -0.245442 0.192150
-0.012075 -0.229695 0.192095
0.029471 -0.230629 0.179649
0.034265 -0.231133 0.192754
0.052716 -0.246655 0.192161
-0.009252 -0.228706 0.192060
0.011424 -0.224329 0.192077
0.030246 -0.228931 0.193802
-0.028463 -0.341375 0.212021
-0.046671 -0.330477 0.212031
-0.008520 -0.347735 0.212021
0.014074 -0.330026 0.194087
0.011424 -0.345248 0.212021
0.032696 -0.331460 0.208972
0.032442 -0.333092 0.211370
0.034856 -0.331065 0.210978
-0.048247 -0.327491 0.212005
-0.055740 -0.310313 0.212021
0.052464 -0.310318 0.203536
0.053888 -0.315027 0.210987
0.054756 -0.313385 0.211428
-0.055163 -0.290369 0.212021
0.060349 -0.290369 0.212021
-0.049499 -0.271785 0.211886
0.058278 -0.270426 0.212021
-0.047904 -0.268046 0.212155
-0.038409 -0.250482 0.212021
0.052920 -0.251268 0.211944
-0.027460 -0.234707 0.212980
-0.018498 -0.229291 0.213115
0.034451 -0.230243 0.211895
0.051033 -0.247901 0.212091
-0.010766 -0.225766 0.211364
0.011424 -0.222877 0.212021
0.031506 -0.228497 0.212160
-0.048205 -0.350021 0.229142
-0.048463 -0.350255 0.229286
-0.048395 -0.350275 0.229370
0.013535 -0.350504 0.229871
0.011623 -0.351472 0.231277
0.009749 -0.350537 0.229450
0.013129 -0.349915 0.233219
-0.048440 -0.350261 0.229982
-0.043316 -0.342557 0.230509
-0.043596 -0.329410 0.231793
-0.028463 -0.338180 0.231964
-0.008520 -0.344221 0.231964
0.031367 -0.343581 0.231964
0.044586 -0.328576 0.232151
-0.045672 -0.320087 0.233025
-0.051474 -0.311399 0.233351
0.050852 -0.320725 0.231750
0.057483 -0.311940 0.232017
-0.052990 -0.290369 0.231964
0.060398 -0.290369 0.231964
-0.049080 -0.271021 0.232453
0.058681 -0.270426 0.231964
-0.048098 -0.267784 0.231118
-0.043823 -0.250292 0.233975
0.053241 -0.249708 0.231967
-0.029691 -0.232770 0.221677
-0.031648 -0.229401 0.232289
0.036209 -0.227903 0.231866
0.052025 -0.246933 0.231962
-0.029263 -0.227462 0.231838
-0.008520 -0.220173 0.231964
0.011424 -0.220508 0.231964
0.034597 -0.226968 0.232061
0.009935 -0.349893 0.233414
-0.048162 -0.350119 0.230789
-0.026801 -0.330033 0.249290
-0.019897 -0.330411 0.251561
-0.008654 -0.331870 0.252010
0.011424 -0.337280 0.251908
0.030109 -0.332033 0.251548
0.033493 -0.329197 0.252292
-0.049717 -0.309038 0.240150
-0.046288 -0.310005 0.254012
-0.027464 -0.328133 0.251522
0.050566 -0.310348 0.247824
0.049571 -0.311063 0.253520
-0.048790 -0.300577 0.252287
-0.050776 -0.291123 0.251846
0.051909 -0.307804 0.252518
0.058313 -0.290369 0.251908
-0.051743 -0.270426 0.251908
0.060030 -0.270426 0.251908
-0.046399 -0.251096 0.240276
-0.050256 -0.250449 0.253791
0.056021 -0.249078 0.251866
-0.048826 -0.247103 0.252734
-0.034094 -0.226611 0.251943
0.039789 -0.228144 0.251882
0.052660 -0.242428 0.251933
-0.033169 -0.225872 0.251874
-0.008520 -0.216595 0.251908
0.011424 -0.216682 0.251908
0.034774 -0.223316 0.251946
-0.009298 -0.331114 0.271975
-0.019075 -0.330562 0.271646
0.011424 -0.333114 0.271851
0.030405 -0.331526 0.271927
0.033542 -0.330023 0.271793
-0.046679 -0.311737 0.263142
-0.048174 -0.312363 0.272709
-0.050375 -0.308699 0.272381
-0.027398 -0.329057 0.271917
0.050210 -0.312809 0.272028
0.051937 -0.307887 0.260863
0.052933 -0.308941 0.273316
-0.054871 -0.290369 0.271851
0.058639 -0.290369 0.271851
-0.055102 -0.270426 0.271851
0.061434 -0.270426 0.271851
-0.052435 -0.250738 0.271841
0.057167 -0.247305 0.271501
-0.048628 -0.242307 0.271847
-0.037050 -0.228636 0.271808
0.046330 -0.229967 0.272744
0.053483 -0.240734 0.272507
-0.031923 -0.222434 0.271908
-0.008785 -0.213002 0.270090
0.011873 -0.211320 0.270970
0.031367 -0.217754 0.271851
-0.027114 -0.331161 0.289287
-0.025922 -0.331277 0.291104
-0.030342 -0.329635 0.291337
-0.008384 -0.331587 0.292547
0.011509 -0.332121 0.294797
0.030947 -0.331855 0.289985
0.034459 -0.330247 0.291269
-0.049189 -0.313928 0.291920
-0.050888 -0.311642 0.291636
0.052984 -0.314474 0.291677
0.054225 -0.312627 0.291925
-0.057679 -0.290369 0.291795
0.061923 -0.290369 0.291795
-0.056424 -0.270426 0.291795
0.063222 -0.270426 0.291795
-0.052231 -0.250510 0.291847
0.061465 -0.250482 0.291795
-0.047147 -0.239612 0.291700
-0.043451 -0.232944 0.291841
0.049215 -0.230557 0.279544
0.053370 -0.231037 0.292593
-0.027993 -0.213760 0.292835
-0.006958 -0.208349 0.282090
-0.019308 -0.208864 0.294837
0.010700 -0.210079 0.274333
0.029799 -0.210059 0.289441
0.033439 -0.211503 0.291612
0.051082 -0.227990 0.292326
-0.010695 -0.207772 0.287588
0.011424 -0.204713 0.291795
0.029927 -0.209098 0.293589
-0.026845 -0.330566 0.294408
-0.008686 -0.330103 0.302108
0.011277 -0.331053 0.300731
0.030079 -0.329377 0.302783
-0.049696 -0.308404 0.309881
-0.047030 -0.311670 0.310645
-0.028463 -0.323883 0.311738
-0.008465 -0.328863 0.309905
0.011486 -0.328781 0.312656
0.031703 -0.327273 0.309867
0.053137 -0.314249 0.311680
0.054806 -0.312318 0.311800
-0.049756 -0.308203 0.313625
-0.057138 -0.290369 0.311738
0.063841 -0.290369 0.311738
-0.057631 -0.270426 0.311738
0.064254 -0.270426 0.311738
-0.055392 -0.250482 0.311738
0.063117 -0.250482 0.311738
-0.048672 -0.232651 0.310479
-0.046882 -0.229143 0.311916
0.054735 -0.227590 0.311717
-0.029722 -0.212684 0.300908
-0.031219 -0.210186 0.312368
0.035454 -0.209240 0.311549
0.053851 -0.225980 0.311761
-0.028175 -0.208157 0.311924
-0.008520 -0.201813 0.311738
0.011424 -0.202771 0.311738
0.033313 -0.208105 0.311916
-0.046593 -0.311916 0.313434
-0.048935 -0.313163 0.331656
-0.050822 -0.310799 0.331709
-0.028463 -0.324630 0.331682
-0.008520 -0.328118 0.331682
0.011424 -0.327907 0.331682
0.031367 -0.324695 0.331682
0.051848 -0.313111 0.331686
0.053927 -0.310720 0.331677
-0.058877 -0.290369 0.331682
0.062940 -0.290369 0.331682
-0.060379 -0.270426 0.331682
0.064789 -0.270426 0.331682
-0.059613 -0.250482 0.331682
0.065809 -0.250482 0.331682
-0.049535 -0.232346 0.314417
-0.053945 -0.229629 0.331764
0.058422 -0.227048 0.331656
-0.047987 -0.221946 0.331630
-0.036944 -0.210557 0.331679
0.039155 -0.207807 0.331607
0.055036 -0.222491 0.331723
-0.030217 -0.204638 0.331673
-0.008520 -0.198063 0.331682
0.011424 -0.199062 0.331682
0.034277 -0.204932 0.331743
-0.047452 -0.312434 0.351735
-0.050186 -0.309501 0.351375
-0.028463 -0.323752 0.351625
-0.008520 -0.327423 0.351625
0.011424 -0.328165 0.351625
0.031367 -0.324883 0.351625
0.050273 -0.311797 0.350988
0.052741 -0.308849 0.351565
-0.058260 -0.290369 0.351625
0.061739 -0.290369 0.351625
-0.062587 -0.270426 0.351625
0.065844 -0.270426 0.351625
-0.062175 -0.250482 0.351625
0.069621 -0.250850 0.351825
-0.054633 -0.227557 0.351557
0.063143 -0.230539 0.351625
-0.051506 -0.222695 0.351680
-0.036375 -0.207035 0.351647
0.047815 -0.212468 0.351669
0.049430 -0.213992 0.351585
-0.031767 -0.203747 0.351612
-0.008134 -0.193484 0.353599
0.011569 -0.193690 0.352518
0.031367 -0.200825 0.351625
-0.049380 -0.309930 0.354611
-0.036377 -0.313269 0.371533
-0.031468 -0.317093 0.371517
-0.008520 -0.324899 0.371569
0.011424 -0.326378 0.371569
0.031367 -0.322543 0.371569
0.050628 -0.311026 0.354298
0.045802 -0.311353 0.371558
-0.050759 -0.298161 0.371750
-0.054367 -0.292586 0.371486
0.053901 -0.299425 0.371499
0.057374 -0.293976 0.371640
-0.063318 -0.270426 0.371569
0.068077 -0.267864 0.371995
-0.064538 -0.250482 0.371569
0.070148 -0.261070 0.370477
0.071252 -0.249265 0.362549
0.073196 -0.251469 0.371328
-0.058252 -0.230539 0.371569
0.066532 -0.232592 0.371646
0.069479 -0.240336 0.371522
-0.047982 -0.213146 0.372848
-0.045699 -0.210613 0.373256
0.049539 -0.209961 0.370766
0.052814 -0.212840 0.372231
-0.026055 -0.196172 0.371727
-0.008455 -0.191304 0.361247
-0.019207 -0.192609 0.371845
0.009852 -0.190524 0.361789
0.022642 -0.192881 0.370713
0.028417 -0.195565 0.372048
-0.007137 -0.187835 0.371039
0.010437 -0.187764 0.371688
-0.030370 -0.313343 0.391413
-0.032421 -0.312048 0.391616
-0.008520 -0.322283 0.391512
0.011424 -0.323568 0.391512
0.034999 -0.317294 0.391567
0.039350 -0.314140 0.391444
-0.050561 -0.294520 0.391482
-0.051787 -0.292585 0.391541
0.054519 -0.297990 0.391484
0.057231 -0.293300 0.391557
-0.063562 -0.270426 0.391512
0.067877 -0.268023 0.391477
-0.067100 -0.250031 0.392174
0.070734 -0.263050 0.391532
0.073157 -0.248620 0.391453
-0.060053 -0.230539 0.391512
0.068808 -0.231110 0.391407
0.072025 -0.238364 0.391702
-0.048915 -0.212872 0.379210
-0.050127 -0.211510 0.393050
0.049614 -0.209225 0.374024
0.054731 -0.208855 0.391349
-0.047420 -0.208434 0.392468
-0.029204 -0.193355 0.391699
-0.018052 -0.188316 0.392330
0.020784 -0.189054 0.389816
0.033592 -0.193469 0.391054
0.052982 -0.206981 0.391676
-0.011595 -0.186645 0.390956
0.013901 -0.186746 0.391795
-0.026695 -0.311723 0.411216
-0.030017 -0.309369 0.411396
-0.008520 -0.320425 0.411456
0.011424 -0.321633 0.411456
0.032981 -0.316069 0.411474
0.039750 -0.310667 0.411439
-0.047363 -0.292793 0.412108
-0.050289 -0.289593 0.411336
0.051696 -0.298742 0.411422
0.057206 -0.291815 0.411498
-0.062398 -0.270426 0.411456
0.067253 -0.267026 0.411388
-0.067591 -0.252305 0.401956
-0.068589 -0.251581 0.411835
-0.069124 -0.249877 0.412610
0.069658 -0.261736 0.411557
0.073977 -0.249046 0.411426
-0.068593 -0.248316 0.410549
-0.062341 -0.230539 0.411456
0.070578 -0.228951 0.410481
0.071946 -0.232916 0.411872
-0.051120 -0.209577 0.411342
0.058551 -0.207100 0.411405
-0.049281 -0.207175 0.411567
-0.030686 -0.192112 0.401597
-0.031148 -0.190003 0.411128
0.029582 -0.188423 0.400881
0.040222 -0.190088 0.412257
0.053117 -0.202143 0.411541
-0.028235 -0.188306 0.410725
-0.008520 -0.181857 0.411456
0.011424 -0.182156 0.411456
0.032267 -0.187155 0.409104
-0.028228 -0.310154 0.414668
-0.017939 -0.312554 0.431389
-0.011960 -0.316156 0.431410
0.011424 -0.320055 0.431399
0.032730 -0.312874 0.431221
0.035094 -0.311512 0.431581
-0.049932 -0.289467 0.414180
-0.044910 -0.288679 0.431300
-0.029425 -0.305115 0.431399
0.053724 -0.294593 0.431318
0.054885 -0.292862 0.431477
-0.046512 -0.286835 0.431520
-0.059718 -0.270426 0.431399
0.067244 -0.266881 0.431383
-0.068906 -0.253183 0.432216
-0.069483 -0.251207 0.430631
0.069462 -0.262024 0.431373
0.073912 -0.248563 0.431464
-0.067800 -0.242159 0.430312
-0.065747 -0.231450 0.431620
0.071249 -0.229272 0.413973
0.072467 -0.229984 0.431484
-0.052028 -0.208220 0.431332
0.064401 -0.210595 0.431399
0.071881 -0.227144 0.431305
-0.050818 -0.206405 0.431478
-0.032734 -0.188382 0.431412
0.049264 -0.190394 0.428596
0.052438 -0.192824 0.430291
-0.030894 -0.187412 0.431388
-0.008520 -0.178975 0.431399
0.011424 -0.178969 0.431399
0.031367 -0.182806 0.431399
-0.009043 -0.315072 0.451258
-0.016761 -0.310544 0.451440
0.011424 -0.317272 0.451343
0.029480 -0.311308 0.448743
0.029452 -0.310486 0.452456
-0.029072 -0.300673 0.451289
-0.038359 -0.292280 0.451382
0.032870 -0.309132 0.450847
0.053249 -0.294433 0.451279
0.055099 -0.292364 0.451410
-0.050630 -0.278255 0.451324
-0.055013 -0.272393 0.451353
0.068080 -0.269280 0.451326
-0.067468 -0.249354 0.441103
-0.065701 -0.251016 0.450380
0.071509 -0.260661 0.451292
0.074210 -0.251870 0.451419
-0.063663 -0.230539 0.451343
0.074259 -0.229911 0.451302
-0.054323 -0.208972 0.451298
0.067638 -0.212235 0.451353
0.071024 -0.220045 0.451365
-0.049482 -0.202352 0.451370
-0.036697 -0.189433 0.451404
0.050265 -0.188640 0.443833
0.054235 -0.190785 0.449106
-0.030671 -0.184442 0.451286
-0.008520 -0.176914 0.451343
0.011424 -0.176363 0.451343
0.031367 -0.180347 0.451343
0.051768 -0.188736 0.449617
-0.006330 -0.311533 0.469625
-0.010362 -0.310226 0.469735
0.010174 -0.312926 0.469745
0.022762 -0.308279 0.471751
-0.030587 -0.297689 0.471210
-0.036700 -0.291431 0.471368
0.028208 -0.306201 0.470809
0.052429 -0.293443 0.471271
0.054541 -0.291321 0.471302
-0.048315 -0.278632 0.471240
-0.053761 -0.270799 0.471324
0.068081 -0.270115 0.471239
-0.058892 -0.250482 0.471286
0.072031 -0.260340 0.471293
0.074431 -0.252575 0.471328
-0.058897 -0.230539 0.471286
0.073910 -0.228830 0.471204
-0.053730 -0.206869 0.471240
0.068513 -0.211407 0.471304
0.071684 -0.220547 0.471345
-0.050516 -0.201471 0.471331
-0.043359 -0.189559 0.471294
0.055272 -0.188522 0.471134
-0.028463 -0.179708 0.471286
-0.008031 -0.173466 0.472094
0.011665 -0.172005 0.471559
0.031677 -0.174835 0.473156
0.053635 -0.186867 0.471442
-0.008879 -0.309679 0.473733
0.009459 -0.309243 0.481837
-0.031980 -0.294638 0.491131
-0.033261 -0.293851 0.491340
-0.008520 -0.304923 0.491230
0.011622 -0.306894 0.489044
0.031367 -0.302029 0.491230
0.051273 -0.292080 0.491458
0.053816 -0.289781 0.491985
-0.050015 -0.274476 0.491223
-0.050963 -0.272294 0.491237
0.067667 -0.268606 0.491219
-0.056958 -0.250482 0.491230
0.070882 -0.261105 0.491215
0.073992 -0.250816 0.491263
-0.057482 -0.230539 0.491230
0.073118 -0.233063 0.491078
-0.053509 -0.207515 0.491190
0.068248 -0.214453 0.491235
0.069705 -0.218714 0.491336
-0.049824 -0.201146 0.491304
-0.043343 -0.190316 0.491185
0.055773 -0.186923 0.491176
-0.026607 -0.176167 0.491597
-0.008955 -0.170757 0.481678
-0.018365 -0.172196 0.490761
0.011101 -0.171200 0.474647
0.030659 -0.172010 0.480628
0.035058 -0.170154 0.491302
0.054860 -0.185774 0.491286
-0.008148 -0.167725 0.489634
0.011424 -0.164489 0.491230
0.031865 -0.168551 0.492798
-0.030187 -0.293300 0.511779
-0.032228 -0.291831 0.511995
-0.008520 -0.302226 0.511173
0.011424 -0.303359 0.511173
0.031367 -0.299929 0.511173
0.049583 -0.291810 0.500897
0.049168 -0.290382 0.511643
-0.047696 -0.273048 0.511642
-0.049938 -0.269388 0.510707
0.052153 -0.287896 0.510525
0.064525 -0.270426 0.511173
-0.055845 -0.250482 0.511173
0.071679 -0.253339 0.512246
0.072252 -0.250078 0.512496
-0.057419 -0.230539 0.511173
0.072672 -0.232276 0.511161
-0.053572 -0.208776 0.511129
0.069089 -0.214096 0.511226
0.070454 -0.219148 0.511120
-0.048431 -0.200537 0.511246
-0.042664 -0.191845 0.511133
0.058731 -0.187989 0.511161
-0.028012 -0.175571 0.511173
-0.018306 -0.170095 0.511261
0.039765 -0.171281 0.511119
0.052052 -0.182150 0.511178
-0.011016 -0.166263 0.511078
0.011424 -0.163034 0.511173
0.030829 -0.166290 0.511257
-0.030195 -0.291850 0.518095
-0.025559 -0.290650 0.531783
-0.008520 -0.299307 0.531117
0.011424 -0.301333 0.531117
0.032963 -0.295562 0.531060
0.039410 -0.291819 0.531262
-0.049266 -0.269710 0.513993
-0.043668 -0.268612 0.531037
-0.028668 -0.288033 0.531987
0.053834 -0.278764 0.530995
0.058731 -0.273583 0.531161
-0.047548 -0.261588 0.530380
-0.051375 -0.251453 0.533449
0.070934 -0.252966 0.520280
0.070081 -0.251730 0.531944
-0.056748 -0.230539 0.531117
0.072713 -0.241865 0.530745
0.072263 -0.230717 0.531407
-0.053498 -0.207891 0.531064
0.069892 -0.209296 0.531019
0.072425 -0.219191 0.531293
-0.049629 -0.200833 0.531224
-0.043566 -0.190566 0.531053
0.059132 -0.187336 0.531112
-0.028685 -0.172073 0.531862
-0.025612 -0.169760 0.532698
0.039425 -0.169975 0.531089
0.053620 -0.182328 0.531106
-0.008520 -0.163728 0.531117
0.011424 -0.162408 0.531117
0.031917 -0.166173 0.531176
-0.011123 -0.295451 0.551091
-0.018423 -0.290709 0.550893
0.011424 -0.298744 0.551060
0.030489 -0.291876 0.550557
0.034040 -0.289675 0.551669
-0.027839 -0.284669 0.551234
-0.038331 -0.270426 0.551060
0.053824 -0.274683 0.550965
0.055079 -0.272989 0.551159
-0.050885 -0.247721 0.541511
-0.046371 -0.251131 0.551606
0.068696 -0.248710 0.551138
-0.047450 -0.248028 0.552767
-0.055274 -0.230539 0.551060
0.070680 -0.240717 0.550244
0.072539 -0.229769 0.550186
-0.053167 -0.208240 0.551002
0.069115 -0.213060 0.550681
0.070557 -0.219814 0.551807
-0.049475 -0.200730 0.551106
-0.043742 -0.190741 0.551068
0.058343 -0.187833 0.551044
-0.029839 -0.172324 0.540001
-0.029953 -0.171150 0.551747
0.039444 -0.169470 0.551049
0.053486 -0.182474 0.551055
-0.027024 -0.168926 0.551189
-0.008520 -0.162194 0.551060
0.011424 -0.160832 0.551060
0.032930 -0.165444 0.551102
-0.009523 -0.290409 0.568584
-0.001339 -0.292415 0.569207
0.008556 -0.292310 0.571087
0.030568 -0.291018 0.553859
0.022944 -0.288201 0.572495
-0.029046 -0.274186 0.572347
-0.030992 -0.272133 0.571996
-0.009272 -0.288886 0.572069
0.029033 -0.285936 0.570639
0.050138 -0.272126 0.570194
0.052948 -0.269010 0.571027
-0.042961 -0.247427 0.570354
0.064947 -0.250482 0.571004
-0.045711 -0.241531 0.572311
-0.051409 -0.229946 0.572056
0.070810 -0.231975 0.561073
0.069534 -0.230151 0.569727
-0.052310 -0.208100 0.570969
0.064885 -0.210595 0.571004
-0.049733 -0.200748 0.570964
-0.044777 -0.190430 0.571083
0.057098 -0.188988 0.570959
-0.031225 -0.170454 0.571001
0.039698 -0.169982 0.570976
0.051993 -0.182365 0.571027
-0.028648 -0.168301 0.571007
-0.008520 -0.159874 0.571004
0.011424 -0.159034 0.571004
0.033087 -0.164862 0.571055
0.011142 -0.291952 0.573955
-0.030103 -0.269701 0.579417
-0.025271 -0.270036 0.590937
-0.008520 -0.280552 0.590947
0.011424 -0.282658 0.590947
0.032716 -0.276192 0.590778
0.050690 -0.270390 0.573738
0.039359 -0.271528 0.591182
-0.027115 -0.267693 0.592323
-0.037591 -0.250482 0.590947
0.053091 -0.258785 0.590855
0.058329 -0.252879 0.590965
-0.049914 -0.228822 0.580096
-0.045905 -0.231530 0.590726
0.065844 -0.230539 0.590947
-0.049732 -0.220420 0.592097
-0.051974 -0.212842 0.590802
0.062809 -0.210595 0.590947
-0.048837 -0.192742 0.589923
-0.047347 -0.189453 0.590966
0.056591 -0.187822 0.590848
-0.032482 -0.168844 0.591015
0.045565 -0.171202 0.590935
0.052113 -0.181046 0.591048
-0.030434 -0.166980 0.590876
-0.008520 -0.155179 0.590947
0.011424 -0.154274 0.590947
0.031367 -0.160422 0.590947
-0.010421 -0.272980 0.611062
-0.012753 -0.271875 0.611598
0.011424 -0.277814 0.610891
0.030354 -0.272074 0.610361
0.033873 -0.269927 0.610606
-0.030220 -0.254652 0.611100
-0.031558 -0.252821 0.610697
0.052661 -0.253554 0.611980
0.054176 -0.251295 0.612151
-0.041134 -0.230539 0.610891
0.061763 -0.230539 0.610891
-0.049111 -0.214302 0.611349
-0.049931 -0.211148 0.609443
0.061031 -0.210595 0.610891
-0.049777 -0.193160 0.601087
-0.049795 -0.192483 0.608022
0.059092 -0.190652 0.610891
-0.048029 -0.188040 0.607440
-0.032420 -0.168262 0.610962
0.050014 -0.170340 0.610124
0.052535 -0.173504 0.611367
-0.030790 -0.166826 0.610820
-0.006895 -0.152692 0.610561
0.011325 -0.150682 0.608038
0.001775 -0.151171 0.612088
0.015113 -0.150667 0.609089
0.031367 -0.155023 0.610891
0.013600 -0.149919 0.611984
-0.008960 -0.269687 0.620390
0.010892 -0.271029 0.628538
0.031365 -0.270263 0.613742
-0.029298 -0.248533 0.628039
-0.026472 -0.251547 0.630049
-0.008568 -0.265924 0.630263
0.011789 -0.269625 0.631869
0.031367 -0.263322 0.630834
0.050539 -0.252082 0.619665
0.048912 -0.248692 0.631905
-0.028605 -0.248476 0.631366
-0.036941 -0.230539 0.630834
0.050983 -0.246756 0.630659
0.058260 -0.230539 0.630834
-0.047316 -0.209819 0.621328
-0.045301 -0.210877 0.629291
0.060052 -0.210595 0.630834
-0.047167 -0.190192 0.621275
-0.046869 -0.190725 0.627400
0.059445 -0.190652 0.630834
-0.032278 -0.168793 0.630800
0.049945 -0.168836 0.621438
0.053320 -0.172127 0.629626
-0.030361 -0.166724 0.630869
-0.009666 -0.152361 0.630251
0.002125 -0.148924 0.631290
0.028368 -0.150341 0.630904
0.031266 -0.151892 0.630783
0.050991 -0.168906 0.630183
0.007839 -0.148309 0.630355
-0.012241 -0.257068 0.650759
-0.016836 -0.253305 0.650730
0.011424 -0.262664 0.650778
0.035167 -0.254648 0.650758
0.036371 -0.254052 0.650801
-0.030652 -0.238593 0.650841
-0.033537 -0.232929 0.650792
0.053352 -0.234929 0.650729
0.053933 -0.233030 0.650823
-0.039806 -0.210595 0.650778
0.059890 -0.210595 0.650778
-0.042805 -0.190652 0.650778
0.059468 -0.190652 0.650778
-0.032468 -0.167356 0.650694
0.052976 -0.171869 0.650550
-0.031569 -0.165787 0.650864
-0.010968 -0.151593 0.641557
-0.011273 -0.150346 0.649851
0.028906 -0.149879 0.651012
0.032397 -0.151830 0.650607
0.050757 -0.168571 0.650959
-0.008078 -0.149138 0.649542
0.011424 -0.145158 0.650778
-0.009532 -0.253165 0.669446
-0.012286 -0.251624 0.670173
0.011424 -0.258143 0.670721
0.030933 -0.252519 0.671491
0.034073 -0.250365 0.671718
-0.029874 -0.234917 0.669488
-0.030421 -0.232519 0.673248
0.051061 -0.232599 0.670584
0.052850 -0.229320 0.670815
-0.036028 -0.210595 0.670721
0.058658 -0.210595 0.670721
-0.037880 -0.190652 0.670721
0.059133 -0.190652 0.670721
-0.034328 -0.167149 0.670644
0.052883 -0.172097 0.670483
-0.030101 -0.161893 0.670778
-0.016812 -0.149456 0.670813
0.029273 -0.149943 0.670963
0.032841 -0.152071 0.671435
0.050648 -0.168719 0.670909
-0.010335 -0.146794 0.670637
0.011424 -0.144121 0.670721
-0.008519 -0.247918 0.681701
0.011114 -0.250261 0.687655
0.031878 -0.250809 0.674133
-0.031042 -0.227894 0.681669
-0.026232 -0.231044 0.691289
-0.008647 -0.244486 0.688727
0.011658 -0.249006 0.690670
0.031367 -0.242613 0.690665
0.050906 -0.231392 0.673615
0.045722 -0.228489 0.690682
-0.027939 -0.228330 0.692746
-0.033404 -0.210595 0.690665
0.050669 -0.220722 0.690695
0.055601 -0.211638 0.690617
-0.034873 -0.190652 0.690665
0.058559 -0.190652 0.690665
-0.035532 -0.170708 0.690665
0.052516 -0.172278 0.690546
-0.027444 -0.153369 0.690595
-0.025610 -0.151509 0.690739
0.028854 -0.149457 0.680060
0.033695 -0.152035 0.690346
0.050653 -0.169048 0.690757
-0.008520 -0.144633 0.690665
0.011424 -0.141860 0.690665
0.029705 -0.149184 0.691333
-0.011858 -0.236572 0.710594
-0.017289 -0.230252 0.710501
0.011424 -0.241519 0.710608
0.034167 -0.234085 0.710607
0.035825 -0.233018 0.710610
-0.027794 -0.219258 0.710906
-0.031886 -0.209822 0.710439
0.052074 -0.214020 0.710635
0.053228 -0.211257 0.710582
-0.032940 -0.190652 0.710608
0.057646 -0.190652 0.710608
-0.032449 -0.167136 0.710607
0.052769 -0.172902 0.709892
-0.029888 -0.161402 0.710578
-0.024201 -0.149477 0.710656
0.034223 -0.150224 0.710530
0.050318 -0.168652 0.710838
-0.008520 -0.142421 0.710608
0.011424 -0.137598 0.710608
0.031620 -0.148443 0.710700
-0.008418 -0.232453 0.730605
-0.011434 -0.230427 0.731287
0.011424 -0.237928 0.730552
0.031580 -0.232435 0.730796
0.034333 -0.230187 0.731808
-0.027523 -0.212548 0.730602
-0.029853 -0.209041 0.728622
0.051092 -0.211469 0.728070
0.050313 -0.210698 0.731359
-0.031766 -0.190720 0.732432
0.052460 -0.207916 0.728719
0.054148 -0.188030 0.731669
-0.031388 -0.170576 0.731349
0.052245 -0.172078 0.713460
0.048658 -0.169956 0.730031
0.052265 -0.181438 0.731694
-0.027696 -0.161207 0.730504
-0.023417 -0.152070 0.730364
0.033328 -0.151794 0.730023
-0.008520 -0.141280 0.730552
0.011424 -0.136639 0.730552
0.030044 -0.148944 0.730500
-0.008869 -0.230857 0.733633
0.011008 -0.229981 0.748122
0.031252 -0.231434 0.733580
-0.028823 -0.208854 0.732507
-0.012463 -0.212958 0.750976
-0.010716 -0.214334 0.751441
0.011837 -0.228250 0.750017
0.033881 -0.214469 0.751468
0.035303 -0.212946 0.751249
-0.030373 -0.190548 0.738764
-0.017455 -0.190654 0.752501
0.051933 -0.189398 0.738067
0.039918 -0.191098 0.752063
-0.028951 -0.169862 0.738860
-0.017608 -0.171018 0.751398
0.034891 -0.168706 0.750888
-0.011497 -0.150795 0.750656
0.031331 -0.151126 0.733346
0.014835 -0.148583 0.751104
0.033246 -0.167023 0.751472
-0.008842 -0.148239 0.749834
0.012850 -0.147994 0.750865
-0.010686 -0.212307 0.752680
0.011424 -0.210595 0.757813
0.033332 -0.212575 0.752824
-0.013012 -0.190680 0.756261
0.011424 -0.190652 0.759797
0.035601 -0.190598 0.755715
-0.012740 -0.170776 0.756213
0.011424 -0.170708 0.758540
0.032949 -0.169045 0.752771
-0.008151 -0.150887 0.752599
0.012813 -0.149698 0.752804
-0.048177 -0.350341 0.229679
-0.048089 -0.350368 0.229818
-0.048168 -0.350344 0.230053
-0.048369 -0.350283 0.230623
-0.048322 -0.350297 0.230596
3 0 1 2
3 1 0 3
3 4 0 2
3 5 4 2
3 6 3 0
3 6 0 7
3 7 0 4
3 7 8 9
3 6 7 9
3 9 8 10
3 11 4 5
3 12 11 5
3 7 4 13
3 13 4 11
3 8 7 14
3 14 7 13
3 15 10 8
3 15 8 16
3 16 8 14
3 15 16 17
3 11 12 18
3 13 11 18
3 19 13 18
3 14 13 19
3 20 14 19
3 16 14 20
3 21 16 20
3 17 16 21
3 22 23 24
3 23 22 25
3 26 27 28
3 24 27 26
3 22 24 26
3 22 26 2
3 22 2 1
3 3 29 30
3 1 3 30
3 1 30 25
3 1 25 22
3 29 31 32
3 30 29 32
3 31 33 34
3 32 31 34
3 34 33 35
3 36 26 28
3 37 36 28
3 2 36 5
3 26 36 2
3 3 6 29
3 9 29 6
3 31 29 9
3 10 31 9
3 10 38 31
3 38 33 31
3 39 35 33
3 39 33 40
3 40 33 38
3 39 40 41
3 36 37 42
3 42 5 36
3 42 43 5
3 43 12 5
3 10 15 38
3 17 38 15
3 17 44 38
3 44 40 38
3 45 41 40
3 44 45 40
3 12 43 46
3 18 12 46
3 47 46 48
3 47 19 46
3 19 18 46
3 19 49 20
3 47 49 19
3 50 20 49
3 50 51 20
3 51 21 20
3 44 17 21
3 44 21 52
3 52 21 51
3 45 44 52
3 47 48 53
3 49 47 53
3 54 49 53
3 50 49 54
3 55 56 57
3 55 58 59
3 56 55 59
3 59 58 60
3 61 62 63
3 57 62 61
3 55 57 61
3 55 61 24
3 55 24 23
3 25 55 23
3 25 64 55
3 64 58 55
3 65 60 58
3 65 58 66
3 66 58 64
3 66 67 68
3 65 66 68
3 68 67 69
3 27 61 63
3 27 63 28
3 28 63 70
3 24 61 27
3 25 30 64
3 32 64 30
3 66 64 32
3 34 66 32
3 67 66 34
3 35 71 72
3 34 35 72
3 34 72 69
3 34 69 67
3 72 71 73
3 28 70 37
3 70 74 37
3 35 39 71
3 71 39 41
3 71 41 73
3 73 41 75
3 37 74 76
3 42 37 76
3 76 43 42
3 77 43 76
3 41 45 75
3 75 45 78
3 43 77 79
3 46 43 79
3 79 48 46
3 80 48 79
3 51 50 81
3 82 51 81
3 82 83 51
3 83 52 51
3 78 45 52
3 83 78 52
3 48 80 84
3 53 48 84
3 54 53 85
3 53 84 85
3 81 50 54
3 81 54 86
3 86 54 85
3 82 81 86
3 56 87 88
3 57 56 88
3 59 89 56
3 56 89 87
3 60 90 91
3 60 91 59
3 59 91 89
3 90 92 93
3 91 90 93
3 93 92 94
3 62 95 96
3 63 62 96
3 88 62 57
3 95 62 88
3 60 65 90
3 68 90 65
3 92 90 68
3 69 97 98
3 68 69 98
3 68 98 94
3 68 94 92
3 98 97 99
3 63 96 70
3 96 100 70
3 69 72 97
3 97 72 73
3 97 73 99
3 99 73 101
3 70 100 74
3 100 102 74
3 73 75 101
3 101 75 103
3 74 102 104
3 76 74 104
3 104 77 76
3 105 77 104
3 75 78 103
3 103 78 106
3 77 105 107
3 79 77 107
3 107 80 79
3 108 80 107
3 83 109 110
3 82 109 83
3 106 78 83
3 110 106 83
3 80 108 111
3 84 80 111
3 85 84 112
3 84 111 112
3 86 85 113
3 85 112 113
3 109 82 86
3 113 109 86
3 114 115 116
3 117 118 119
3 118 117 120
4 114 116 121 122
3 123 88 114
3 123 114 122
3 88 87 114
3 87 124 114
3 89 125 87
3 87 125 124
3 119 91 117
3 119 125 91
3 125 89 91
3 117 126 120
3 117 91 126
3 91 93 126
3 126 93 94
3 127 126 94
3 95 128 129
3 96 95 129
3 123 95 88
3 128 95 123
3 94 130 127
3 98 130 94
3 130 98 99
3 131 130 99
3 96 129 100
3 129 132 100
3 99 101 131
3 131 101 133
3 100 132 102
3 132 134 102
3 101 103 133
3 133 103 135
3 102 134 136
3 104 102 136
3 136 105 104
3 137 105 136
3 103 106 135
3 135 106 138
3 139 107 105
3 139 105 140
3 140 105 137
3 107 139 108
3 110 141 142
3 109 141 110
3 138 106 110
3 142 138 110
3 139 140 143
3 108 139 143
3 108 143 111
3 111 143 144
3 112 111 145
3 111 144 145
3 113 112 146
3 112 145 146
3 141 109 113
3 146 141 113
3 118 147 119
3 118 120 147
3 123 122 148
3 123 148 149
3 124 149 148
3 150 149 124
3 150 124 151
3 151 124 125
3 147 125 119
3 147 152 125
3 152 151 125
3 120 152 147
3 120 126 152
3 126 153 152
3 153 126 127
3 154 153 127
3 128 155 129
3 128 156 155
3 123 156 128
3 123 157 156
3 123 149 157
3 150 157 149
3 158 127 130
3 158 159 127
3 159 154 127
3 130 131 158
3 155 160 161
3 155 161 129
3 129 161 132
3 156 160 155
3 158 162 159
3 162 158 131
3 162 131 163
3 163 131 133
3 132 161 134
3 161 164 134
3 133 135 163
3 163 135 165
3 166 136 134
3 166 134 167
3 167 134 164
3 136 166 137
3 135 138 165
3 165 138 168
3 166 167 169
3 169 137 166
3 169 170 137
3 170 140 137
3 142 171 172
3 141 171 142
3 168 138 142
3 172 168 142
3 140 170 173
3 143 140 173
3 144 143 174
3 143 173 174
3 145 144 175
3 144 174 175
3 146 145 176
3 145 175 176
3 171 141 146
3 176 171 146
3 151 177 178
3 150 151 178
3 152 179 151
3 151 179 177
3 153 180 152
3 152 180 179
3 180 153 154
3 181 180 154
3 182 183 184
3 182 156 157
3 182 157 183
3 183 157 185
3 178 157 150
3 185 157 178
3 186 159 187
3 186 181 159
3 181 154 159
3 186 187 188
3 160 182 184
3 160 184 161
3 161 184 189
3 156 182 160
3 159 162 187
3 187 162 163
3 187 163 188
3 188 163 190
3 161 189 164
3 189 191 164
3 163 165 190
3 190 165 192
3 164 191 167
3 191 193 167
3 165 168 192
3 192 168 194
3 167 193 195
3 169 167 195
3 195 170 169
3 196 170 195
3 172 197 198
3 171 197 172
3 194 168 172
3 198 194 172
3 170 196 199
3 173 170 199
3 174 173 200
3 173 199 200
3 175 174 201
3 174 200 201
3 176 175 202
3 175 201 202
3 197 171 176
3 202 197 176
3 203 204 205
3 203 178 177
3 203 177 204
3 204 177 206
3 179 207 177
3 177 207 206
3 180 208 179
3 179 208 207
3 208 180 181
3 209 208 181
3 183 210 211
3 184 183 211
3 205 185 203
3 205 210 185
3 210 183 185
3 178 203 185
3 181 212 209
3 186 212 181
3 212 186 188
3 213 212 188
3 184 211 189
3 211 214 189
3 188 190 213
3 213 190 215
3 189 214 191
3 214 216 191
3 190 192 215
3 215 192 217
3 191 216 193
3 216 218 193
3 192 194 217
3 217 194 219
3 193 218 220
3 195 193 220
3 220 196 195
3 221 196 220
3 198 197 222
3 198 222 223
3 198 223 194
3 194 223 219
3 196 221 224
3 199 196 224
3 225 224 226
3 225 200 224
3 200 199 224
3 200 227 201
3 225 227 200
3 201 228 202
3 227 228 201
3 202 228 229
3 197 202 229
3 197 229 230
3 197 230 222
3 223 222 230
3 225 226 231
3 227 225 231
3 232 227 231
3 228 227 232
3 233 228 232
3 229 228 233
3 204 234 205
3 204 206 235
3 234 204 235
3 206 207 236
3 235 206 236
3 207 208 237
3 236 207 237
3 208 209 237
3 210 238 211
3 210 239 238
3 205 239 210
3 205 240 239
3 205 234 240
3 235 240 234
3 241 240 235
3 236 241 235
3 242 241 236
3 237 242 236
3 243 242 237
3 209 243 237
3 209 212 243
3 212 244 243
3 244 212 213
3 245 244 213
3 238 246 247
3 238 247 211
3 211 247 214
3 239 246 238
3 213 215 245
3 245 215 248
3 214 247 216
3 247 249 216
3 215 217 248
3 248 217 250
3 216 249 218
3 249 251 218
3 217 219 250
3 250 219 252
3 218 251 253
3 220 218 253
3 253 221 220
3 254 221 253
3 219 223 252
3 252 223 255
3 256 224 221
3 256 221 257
3 257 221 254
3 224 256 226
3 230 258 259
3 229 258 230
3 255 223 230
3 259 255 230
3 256 257 260
3 226 256 260
3 226 260 231
3 231 260 261
3 232 231 262
3 231 261 262
3 233 232 263
3 232 262 263
3 258 229 233
3 263 258 233
3 264 265 266
3 264 239 240
3 264 240 265
3 265 240 267
3 241 268 240
3 240 268 267
3 242 269 241
3 241 269 268
3 243 270 242
3 242 270 269
3 244 271 243
3 243 271 270
3 271 244 245
3 272 271 245
3 246 264 266
3 246 266 247
3 247 266 273
3 239 264 246
3 245 248 272
3 272 248 274
3 247 273 249
3 273 275 249
3 248 250 274
3 274 250 276
3 249 275 251
3 275 277 251
3 250 252 276
3 276 252 278
3 279 253 251
3 279 251 280
3 280 251 277
3 253 279 254
3 252 255 278
3 278 255 281
3 279 280 282
3 282 254 279
3 282 283 254
3 283 257 254
3 259 284 285
3 258 284 259
3 281 255 259
3 285 281 259
3 257 283 286
3 260 257 286
3 261 260 287
3 260 286 287
3 262 261 288
3 261 287 288
3 263 262 289
3 262 288 289
3 284 258 263
3 289 284 263
3 265 290 291
3 266 265 291
3 267 292 265
3 265 292 290
3 268 293 267
3 267 293 292
3 269 294 268
3 268 294 293
3 270 295 269
3 269 295 294
3 271 296 270
3 270 296 295
3 296 271 272
3 297 296 272
3 266 291 273
3 291 298 273
3 272 274 297
3 297 274 299
3 273 298 275
3 298 300 275
3 274 276 299
3 299 276 301
3 275 300 277
3 300 302 277
3 276 278 301
3 301 278 303
3 277 302 280
3 302 304 280
3 278 281 303
3 303 281 305
3 280 304 306
3 282 280 306
3 306 283 282
3 307 283 306
3 285 308 309
3 284 308 285
3 305 281 285
3 309 305 285
3 283 307 310
3 286 283 310
3 287 286 311
3 286 310 311
3 288 287 312
3 287 311 312
3 289 288 313
3 288 312 313
3 308 284 289
3 313 308 289
3 290 314 291
3 315 314 290
3 315 290 316
3 316 290 292
3 293 317 292
3 292 317 316
3 294 318 293
3 293 318 317
3 295 319 294
3 294 319 318
3 320 321 319
3 320 319 296
3 296 319 295
3 296 297 320
3 314 322 323
3 314 323 291
3 291 323 298
3 315 322 314
3 320 324 321
3 324 320 297
3 324 297 325
3 325 297 299
3 298 323 300
3 323 326 300
3 299 301 325
3 325 301 327
3 300 326 302
3 326 328 302
3 329 303 330
3 329 327 303
3 327 301 303
3 329 330 331
3 302 328 304
3 328 332 304
3 330 333 334
3 330 303 333
3 303 305 333
3 331 330 334
3 304 332 335
3 306 304 335
3 335 307 306
3 336 307 335
3 309 337 338
3 308 337 309
3 333 305 309
3 338 333 309
3 307 336 339
3 310 307 339
3 340 339 341
3 340 311 339
3 311 310 339
3 311 342 312
3 340 342 311
3 343 312 342
3 343 344 312
3 344 313 312
3 337 308 313
3 344 337 313
3 340 341 345
3 342 340 345
3 346 342 345
3 343 342 346
3 316 347 348
3 315 316 348
3 317 349 316
3 316 349 347
3 318 350 317
3 317 350 349
3 319 351 318
3 318 351 350
3 351 319 321
3 352 351 321
3 322 353 354
3 323 322 354
3 348 322 315
3 353 322 348
3 321 355 352
3 324 355 321
3 355 324 325
3 356 355 325
3 323 354 326
3 354 357 326
3 325 327 356
3 356 327 358
3 326 357 328
3 357 359 328
3 327 360 358
3 329 360 327
3 360 329 331
3 361 360 331
3 328 359 332
3 359 362 332
3 334 363 364
3 333 363 334
3 361 331 334
3 364 361 334
3 365 335 332
3 365 332 366
3 366 332 362
3 335 365 336
3 338 337 367
3 338 367 368
3 338 368 333
3 333 368 363
3 365 366 369
3 336 365 369
3 336 369 339
3 339 369 370
3 370 341 339
3 371 341 370
3 344 372 373
3 343 372 344
3 367 337 344
3 367 344 374
3 374 344 373
3 368 367 374
3 341 371 375
3 345 341 375
3 346 345 376
3 345 375 376
3 372 343 346
3 376 372 346
3 347 377 378
3 348 347 378
3 349 379 347
3 347 379 377
3 350 380 349
3 349 380 379
3 351 381 350
3 350 381 380
3 381 351 352
3 382 381 352
3 353 383 384
3 354 353 384
3 378 353 348
3 383 353 378
3 352 385 382
3 355 385 352
3 385 355 356
3 386 385 356
3 354 384 357
3 384 387 357
3 356 358 386
3 386 358 388
3 389 390 391
3 389 387 390
3 389 359 387
3 359 357 387
3 358 392 388
3 360 392 358
3 392 360 361
3 393 392 361
3 389 391 394
3 394 359 389
3 394 395 359
3 395 362 359
3 364 396 397
3 363 396 364
3 393 361 364
3 397 393 364
3 362 395 366
3 395 398 366
3 363 368 396
3 396 368 399
3 366 398 400
3 369 366 400
3 401 400 402
3 401 370 400
3 370 369 400
3 370 401 371
3 373 372 403
3 404 373 403
3 404 405 373
3 405 374 373
3 399 368 374
3 405 399 374
3 401 402 406
3 371 401 406
3 371 406 375
3 375 406 407
3 376 375 408
3 375 407 408
3 403 372 376
3 403 376 409
3 409 376 408
3 404 403 409
3 377 410 378
3 411 410 377
3 411 377 412
3 412 377 379
3 380 413 379
3 379 413 412
3 381 414 380
3 380 414 413
3 414 381 382
3 415 414 382
3 383 416 384
3 383 417 416
3 378 417 383
3 378 418 417
3 378 410 418
3 411 418 410
3 382 419 415
3 385 419 382
3 419 385 386
3 420 419 386
3 416 421 422
3 416 422 384
3 384 422 387
3 417 421 416
3 386 388 420
3 420 388 423
3 390 424 425
3 391 390 425
3 422 390 387
3 424 390 422
3 388 426 423
3 392 426 388
3 426 392 393
3 427 426 393
3 391 425 428
3 394 391 428
3 428 395 394
3 429 395 428
3 397 396 430
3 397 430 431
3 397 431 393
3 393 431 427
3 395 429 398
3 429 432 398
3 430 433 434
3 430 396 433
3 396 399 433
3 431 430 434
3 398 432 435
3 400 398 435
3 435 402 400
3 436 402 435
3 405 437 438
3 404 437 405
3 433 399 405
3 438 433 405
3 402 436 439
3 406 402 439
3 407 406 440
3 406 439 440
3 408 407 441
3 407 440 441
3 409 408 442
3 408 441 442
3 437 404 409
3 442 437 409
3 412 443 444
3 411 412 444
3 413 445 412
3 412 445 443
3 446 447 445
3 446 445 414
3 414 445 413
3 414 415 446
3 418 448 449
3 417 418 449
3 444 418 411
3 448 418 444
3 446 450 447
3 415 450 446
3 415 419 450
3 419 451 450
3 451 419 420
3 452 451 420
3 421 453 454
3 422 421 454
3 449 421 417
3 453 421 449
3 420 423 452
3 452 423 455
3 424 456 425
3 424 457 456
3 424 422 457
3 422 454 457
3 423 458 455
3 426 458 423
3 458 426 427
3 459 458 427
3 425 456 428
3 456 429 428
3 456 457 429
3 457 460 429
3 427 431 459
3 459 431 461
3 429 460 432
3 460 462 432
3 434 463 464
3 433 463 434
3 461 431 434
3 464 461 434
3 432 462 465
3 435 432 465
3 465 436 435
3 466 436 465
3 438 437 467
3 438 467 468
3 438 468 433
3 433 468 463
3 436 466 469
3 439 436 469
3 440 439 470
3 439 469 470
3 441 440 471
3 440 470 471
3 442 441 472
3 441 471 472
3 467 437 442
3 467 442 473
3 473 442 472
3 468 467 473
3 443 474 475
3 444 443 475
3 445 476 443
3 443 476 474
3 476 445 447
3 477 476 447
3 448 478 479
3 449 448 479
3 475 448 444
3 478 448 475
3 447 480 477
3 450 480 447
3 451 481 450
3 450 481 480
3 481 451 452
3 482 481 452
3 453 483 484
3 454 453 484
3 479 453 449
3 483 453 479
3 452 455 482
3 482 455 485
3 454 484 457
3 484 486 457
3 455 487 485
3 458 487 455
3 487 458 459
3 488 487 459
3 457 486 460
3 486 489 460
3 459 461 488
3 488 461 490
3 460 489 462
3 489 491 462
3 464 492 493
3 463 492 464
3 490 461 464
3 493 490 464
3 462 491 494
3 465 462 494
3 494 466 465
3 495 466 494
3 463 468 492
3 492 468 496
3 466 495 497
3 469 466 497
3 470 469 498
3 469 497 498
3 471 470 499
3 470 498 499
3 472 471 500
3 471 499 500
3 473 472 501
3 472 500 501
3 496 468 473
3 501 496 473
3 474 502 475
3 474 476 503
3 502 474 503
3 476 477 503
3 478 504 505
3 479 478 505
3 502 478 475
3 502 506 478
3 506 504 478
3 503 506 502
3 507 506 503
3 477 507 503
3 477 480 507
3 480 508 507
3 481 509 480
3 480 509 508
3 509 481 482
3 510 509 482
3 483 511 512
3 484 483 512
3 505 483 479
3 511 483 505
3 482 485 510
3 510 485 513
3 484 512 486
3 512 514 486
3 485 515 513
3 487 515 485
3 515 487 488
3 516 515 488
3 486 514 489
3 514 517 489
3 488 490 516
3 516 490 518
3 489 517 491
3 517 519 491
3 493 520 521
3 492 520 493
3 518 490 493
3 521 518 493
3 491 519 522
3 494 491 522
3 522 495 494
3 523 495 522
3 492 496 520
3 520 496 524
3 495 523 525
3 497 495 525
3 526 525 527
3 526 498 525
3 498 497 525
3 498 528 499
3 526 528 498
3 499 529 500
3 528 529 499
3 530 500 529
3 530 531 500
3 531 501 500
3 524 496 501
3 531 524 501
3 526 527 532
3 528 526 532
3 533 528 532
3 529 528 533
3 534 529 533
3 530 529 534
3 504 535 536
3 505 504 536
3 506 537 504
3 504 537 535
3 507 538 506
3 506 538 537
3 508 539 507
3 507 539 538
3 540 541 539
3 540 539 509
3 509 539 508
3 509 510 540
3 511 542 543
3 512 511 543
3 536 511 505
3 542 511 536
3 540 544 541
3 544 540 510
3 544 510 545
3 545 510 513
3 512 543 514
3 543 546 514
3 513 547 545
3 515 547 513
3 547 515 516
3 548 547 516
3 514 546 517
3 546 549 517
3 516 518 548
3 548 518 550
3 517 549 519
3 549 551 519
3 521 552 553
3 520 552 521
3 550 518 521
3 553 550 521
3 519 551 554
3 522 519 554
3 554 523 522
3 555 523 554
3 520 524 552
3 552 524 556
3 523 555 557
3 525 523 557
3 557 527 525
3 558 527 557
3 531 559 560
3 530 559 531
3 556 524 531
3 560 556 531
3 527 558 561
3 532 527 561
3 533 532 562
3 532 561 562
3 534 533 563
3 533 562 563
3 559 530 534
3 563 559 534
3 535 564 536
3 565 564 535
3 565 535 566
3 566 535 537
3 538 567 537
3 537 567 566
3 539 568 538
3 538 568 567
3 568 539 541
3 569 568 541
3 542 570 543
3 542 571 570
3 536 571 542
3 536 572 571
3 536 564 572
3 565 572 564
3 541 573 569
3 544 573 541
3 573 544 545
3 574 573 545
3 570 575 576
3 570 576 543
3 543 576 546
3 571 575 570
3 577 545 547
3 577 578 545
3 578 574 545
3 547 548 577
3 546 576 549
3 576 579 549
3 577 580 578
3 580 577 548
3 580 548 581
3 581 548 550
3 549 579 551
3 579 582 551
3 553 583 584
3 552 583 553
3 581 550 553
3 584 581 553
3 551 582 585
3 554 551 585
3 585 555 554
3 586 555 585
3 552 556 583
3 583 556 587
3 555 586 588
3 557 555 588
3 588 558 557
3 589 558 588
3 560 590 591
3 559 590 560
3 587 556 560
3 591 587 560
3 558 589 592
3 561 558 592
3 562 561 593
3 561 592 593
3 563 562 594
3 562 593 594
3 590 559 563
3 594 590 563
3 566 595 596
3 565 566 596
3 567 597 566
3 566 597 595
3 568 598 567
3 567 598 597
3 598 568 569
3 599 598 569
3 572 600 601
3 571 572 601
3 596 572 565
3 600 572 596
3 569 602 599
3 573 602 569
3 602 573 574
3 603 602 574
3 575 604 576
3 575 605 604
3 575 571 605
3 571 601 605
3 574 578 603
3 603 578 606
3 604 607 608
3 604 608 576
3 576 608 579
3 605 607 604
3 578 609 606
3 580 609 578
3 609 580 581
3 610 609 581
3 579 608 582
3 608 611 582
3 584 612 613
3 583 612 584
3 610 581 584
3 613 610 584
3 582 611 614
3 585 582 614
3 614 586 585
3 615 586 614
3 583 587 612
3 612 587 616
3 617 588 586
3 617 586 618
3 618 586 615
3 588 617 589
3 591 619 620
3 590 619 591
3 616 587 591
3 620 616 591
3 617 618 621
3 589 617 621
3 589 621 592
3 592 621 622
3 593 592 623
3 592 622 623
3 594 593 624
3 593 623 624
3 619 590 594
3 624 619 594
3 595 625 596
3 626 625 595
3 626 595 627
3 627 595 597
3 628 629 627
3 628 627 598
3 598 627 597
3 598 599 628
3 600 630 631
3 601 600 631
3 625 600 596
3 625 632 600
3 632 630 600
3 626 632 625
3 628 633 629
3 599 633 628
3 599 602 633
3 602 634 633
3 634 602 603
3 635 634 603
3 601 631 605
3 631 636 605
3 603 606 635
3 635 606 637
3 607 638 639
3 608 607 639
3 636 607 605
3 638 607 636
3 640 606 609
3 640 641 606
3 641 637 606
3 609 610 640
3 608 639 611
3 639 642 611
3 613 641 640
3 613 612 641
3 612 643 641
3 610 613 640
3 611 642 644
3 614 611 644
3 644 615 614
3 645 615 644
3 612 616 643
3 643 616 646
3 615 645 618
3 645 647 618
3 620 648 649
3 619 648 620
3 646 616 620
3 649 646 620
3 618 647 650
3 621 618 650
3 622 621 651
3 621 650 651
3 623 622 652
3 622 651 652
3 624 623 653
3 623 652 653
3 648 619 624
3 653 648 624
3 627 654 626
3 627 629 654
3 630 655 631
3 656 655 630
3 656 630 657
3 657 630 632
3 654 632 626
3 654 658 632
3 658 657 632
3 629 658 654
3 629 633 658
3 633 659 658
3 660 661 659
3 660 659 634
3 634 659 633
3 634 635 660
3 655 662 663
3 655 663 631
3 631 663 636
3 656 662 655
3 660 664 661
3 664 660 635
3 664 635 665
3 665 635 637
3 638 666 639
3 638 667 666
3 638 636 667
3 636 663 667
3 637 641 665
3 665 641 668
3 666 669 670
3 666 670 639
3 639 670 642
3 667 669 666
3 641 643 668
3 668 643 671
3 642 670 672
3 644 642 672
3 672 645 644
3 673 645 672
3 643 646 671
3 671 646 674
3 645 673 647
3 673 675 647
3 649 676 677
3 648 676 649
3 674 646 649
3 677 674 649
3 647 675 678
3 650 647 678
3 651 650 679
3 650 678 679
3 652 651 680
3 651 679 680
3 653 652 681
3 652 680 681
3 676 648 653
3 681 676 653
3 657 682 683
3 656 657 683
3 658 684 657
3 657 684 682
3 659 685 658
3 658 685 684
3 685 659 661
3 686 685 661
3 662 687 688
3 663 662 688
3 683 662 656
3 687 662 683
3 661 689 686
3 664 689 661
3 689 664 665
3 690 689 665
3 663 688 667
3 688 691 667
3 665 668 690
3 690 668 692
3 669 693 694
3 670 669 694
3 691 669 667
3 693 669 691
3 668 671 692
3 692 671 695
3 696 672 670
3 696 670 697
3 697 670 694
3 672 696 673
3 671 674 695
3 695 674 698
3 696 697 699
3 699 673 696
3 699 700 673
3 700 675 673
3 677 701 702
3 676 701 677
3 698 674 677
3 702 698 677
3 675 700 703
3 678 675 703
3 679 678 704
3 678 703 704
3 705 704 706
3 705 680 704
3 680 679 704
3 707 680 705
3 707 708 680
3 708 681 680
3 701 676 681
3 708 701 681
3 705 706 709
3 707 705 709
3 682 710 683
3 682 684 711
3 710 682 711
3 684 685 712
3 711 684 712
3 685 686 712
3 687 713 688
3 687 714 713
3 683 714 687
3 683 715 714
3 683 710 715
3 711 715 710
3 716 715 711
3 712 716 711
3 717 716 712
3 718 719 717
3 689 718 717
3 689 717 712
3 689 712 686
3 689 690 718
3 713 720 721
3 713 721 688
3 688 721 691
3 714 720 713
3 718 722 719
3 722 718 690
3 722 690 723
3 723 690 692
3 693 724 694
3 693 725 724
3 693 691 725
3 691 721 725
3 692 695 723
3 723 695 726
3 724 727 697
3 694 724 697
3 728 724 725
3 727 724 728
3 695 698 726
3 726 698 729
3 697 727 699
3 727 700 699
3 727 728 700
3 728 730 700
3 702 701 731
3 702 731 732
3 702 732 698
3 698 732 729
3 700 730 733
3 703 700 733
3 704 703 734
3 703 733 734
3 734 706 704
3 735 706 734
3 708 736 737
3 707 736 708
3 731 701 708
3 731 708 738
3 738 708 737
3 732 731 738
3 706 735 739
3 709 706 739
3 736 707 709
3 739 736 709
3 715 740 741
3 714 715 741
3 716 742 715
3 715 742 740
3 717 743 716
3 716 743 742
3 743 717 719
3 744 743 719
3 720 745 746
3 721 720 746
3 741 720 714
3 745 720 741
3 719 747 744
3 722 747 719
3 747 722 723
3 748 747 723
3 721 746 725
3 746 749 725
3 723 726 748
3 748 726 750
3 725 749 728
3 749 751 728
3 726 729 750
3 750 729 752
3 728 751 730
3 751 753 730
3 729 732 752
3 752 732 754
3 730 753 755
3 733 730 755
3 756 755 757
3 756 734 755
3 734 733 755
3 734 756 735
3 737 758 759
3 736 758 737
3 738 737 760
3 737 759 760
3 754 732 738
3 760 754 738
3 756 757 761
3 735 756 761
3 735 761 739
3 739 761 762
3 758 736 739
3 762 758 739
3 740 763 764
3 741 740 764
3 742 765 740
3 740 765 763
3 743 766 742
3 742 766 765
3 766 743 744
3 767 766 744
3 745 768 769
3 746 745 769
3 764 745 741
3 768 745 764
3 744 770 767
3 747 770 744
3 770 747 748
3 771 770 748
3 746 769 749
3 769 772 749
3 748 750 771
3 771 750 773
3 749 772 751
3 772 774 751
3 750 752 773
3 773 752 775
3 751 774 753
3 774 776 753
3 752 754 775
3 775 754 777
3 753 776 778
3 755 753 778
3 778 757 755
3 779 757 778
3 759 780 781
3 758 780 759
3 760 759 782
3 759 781 782
3 777 754 760
3 782 777 760
3 757 779 783
3 761 757 783
3 762 761 784
3 761 783 784
3 780 758 762
3 784 780 762
3 763 785 764
3 763 765 786
3 785 763 786
3 765 766 787
3 786 765 787
3 766 767 787
3 768 788 769
3 768 789 788
3 764 789 768
3 764 790 789
3 764 785 790
3 786 790 785
3 791 790 786
3 787 791 786
3 792 791 787
3 793 794 792
3 770 793 792
3 770 792 787
3 770 787 767
3 770 771 793
3 788 795 796
3 788 796 769
3 769 796 772
3 789 795 788
3 793 797 794
3 797 793 771
3 797 771 798
3 798 771 773
3 772 796 774
3 796 799 774
3 773 775 798
3 798 775 800
3 774 799 776
3 799 801 776
3 775 777 800
3 800 777 802
3 776 801 803
3 778 776 803
3 803 779 778
3 804 779 803
3 781 780 805
3 806 781 805
3 806 807 781
3 807 782 781
3 802 777 782
3 807 802 782
3 779 804 808
3 783 779 808
3 784 783 809
3 783 808 809
3 805 780 784
3 805 784 810
3 810 784 809
3 806 805 810
3 790 811 812
3 789 790 812
3 791 813 790
3 790 813 811
3 792 814 791
3 791 814 813
3 814 792 794
3 815 814 794
3 795 816 817
3 796 795 817
3 812 795 789
3 816 795 812
3 794 818 815
3 797 818 794
3 818 797 798
3 819 818 798
3 796 817 799
3 817 820 799
3 798 800 819
3 819 800 821
3 799 820 801
3 820 822 801
3 800 802 821
3 821 802 823
3 801 822 824
3 803 801 824
3 824 804 803
3 825 804 824
3 807 826 827
3 806 826 807
3 823 802 807
3 827 823 807
3 804 825 828
3 808 804 828
3 809 808 829
3 808 828 829
3 810 809 830
3 809 829 830
3 826 806 810
3 830 826 810
3 811 831 832
3 812 811 832
3 813 833 811
3 811 833 831
3 814 834 813
3 813 834 833
3 834 814 815
3 835 834 815
3 816 836 837
3 817 816 837
3 832 816 812
3 836 816 832
3 838 815 818
3 838 839 815
3 839 835 815
3 818 819 838
3 817 837 820
3 837 840 820
3 838 841 839
3 841 838 819
3 841 819 842
3 842 819 821
3 820 840 822
3 840 843 822
3 844 845 846
3 844 846 842
3 844 842 823
3 823 842 821
3 822 843 847
3 824 822 847
3 847 825 824
3 848 825 847
3 827 845 844
3 827 826 845
3 826 849 845
3 823 827 844
3 825 848 850
3 828 825 850
3 829 828 851
3 828 850 851
3 830 829 852
3 829 851 852
3 849 826 830
3 852 849 830
3 831 853 832
3 831 833 854
3 853 831 854
3 833 834 855
3 854 833 855
3 834 835 855
3 836 856 837
3 836 857 856
3 832 857 836
3 832 858 857
3 832 853 858
3 854 858 853
3 859 858 854
3 855 859 854
3 860 859 855
3 860 855 835
3 860 835 861
3 861 835 839
3 856 862 840
3 837 856 840
3 863 856 857
3 862 856 863
3 864 839 841
3 864 865 839
3 865 861 839
3 841 842 864
3 862 866 843
3 840 862 843
3 867 862 863
3 866 862 867
3 846 865 864
3 846 845 865
3 845 868 865
3 842 846 864
3 843 866 847
3 866 848 847
3 866 867 848
3 867 869 848
3 870 871 872
3 870 872 868
3 870 868 849
3 849 868 845
3 848 869 873
3 850 848 873
3 851 850 874
3 850 873 874
3 871 870 852
3 871 852 874
3 874 852 851
3 849 852 870
3 858 875 857
3 858 859 876
3 875 858 876
3 859 860 877
3 876 859 877
3 860 861 877
3 875 878 863
3 857 875 863
3 876 879 875
3 879 878 875
3 877 880 876
3 880 879 876
3 861 865 880
3 877 861 880
3 878 881 867
3 863 878 867
3 879 882 878
3 882 881 878
3 880 883 879
3 883 882 879
3 865 868 883
3 880 865 883
3 881 884 869
3 867 881 869
3 882 885 881
3 885 884 881
3 872 871 885
3 872 885 883
3 883 885 882
3 868 872 883
3 869 884 873
3 874 873 884
3 885 874 884
3 871 874 885
3 886 115 114
3 115 886 887
3 887 888 889
3 890 121 116
3 115 887 889
3 890 116 115
3 889 890 115
3 890 889 148
4 888 887 124 148
3 889 888 148
4 887 886 114 124
4 121 890 148 122
