ply
format ascii 1.0
comment Created by Blender 2.79 (sub 4) - www.blender.org, source file: 'tap_new_version.blend'
element vertex 828
property float x
property float y
property float z
element face 1652
property list uchar int vertex_indices
end_header
-0.008185 -0.250328 0.171104
-0.009462 -0.251827 0.171680
-0.017112 -0.250312 0.172118
-0.006052 -0.252278 0.171854
-0.007470 -0.248737 0.172528
-0.031184 -0.291013 0.187320
-0.029930 -0.297172 0.191552
-0.035914 -0.291398 0.190018
-0.008787 -0.288689 0.190626
-0.009350 -0.292100 0.192993
-0.006160 -0.290542 0.193296
-0.047570 -0.270967 0.190463
-0.049263 -0.273010 0.192709
-0.049870 -0.271114 0.194270
-0.028463 -0.270426 0.175448
-0.008520 -0.270426 0.177331
0.011508 -0.280349 0.194126
0.011338 -0.272256 0.184429
0.031274 -0.270794 0.188725
0.031150 -0.273461 0.189972
0.039581 -0.271647 0.193291
-0.048379 -0.268077 0.192428
-0.040696 -0.250482 0.192077
-0.028277 -0.250496 0.174468
0.011424 -0.250482 0.176011
0.036328 -0.250488 0.185754
0.039373 -0.250473 0.189005
-0.027179 -0.236046 0.192161
-0.009193 -0.229756 0.187992
-0.017747 -0.231671 0.191417
0.012181 -0.229486 0.188565
0.020650 -0.231859 0.190875
0.030834 -0.234541 0.194518
-0.008204 -0.228026 0.190021
0.012181 -0.227708 0.190854
-0.028093 -0.313293 0.204010
-0.028355 -0.317985 0.209188
-0.043814 -0.311011 0.211689
-0.008575 -0.313367 0.208295
-0.008462 -0.314943 0.210096
0.008605 -0.309789 0.212684
-0.050894 -0.288704 0.202606
-0.049984 -0.301135 0.213997
-0.051745 -0.293293 0.208749
0.011403 -0.288639 0.201348
0.010817 -0.307374 0.211255
0.031367 -0.290369 0.202800
0.031612 -0.306835 0.213708
0.051115 -0.289557 0.209542
0.050758 -0.293206 0.211871
0.053492 -0.290400 0.212995
-0.052347 -0.270890 0.212020
0.051379 -0.270224 0.203321
0.056995 -0.270403 0.208923
-0.046421 -0.259682 0.212026
-0.042982 -0.253811 0.212017
0.052501 -0.250214 0.205079
0.053708 -0.249303 0.211801
-0.029218 -0.235558 0.212020
-0.017887 -0.228882 0.212058
0.030222 -0.231019 0.201734
0.035004 -0.230360 0.212145
0.052267 -0.246820 0.211071
-0.011861 -0.225450 0.211986
0.011424 -0.222652 0.212021
0.031846 -0.228471 0.212683
-0.009559 -0.330737 0.230659
-0.009468 -0.331454 0.232539
-0.017132 -0.329795 0.230912
0.008790 -0.330806 0.231793
-0.028736 -0.328299 0.232059
-0.047701 -0.311202 0.232298
0.011477 -0.310043 0.213760
0.011975 -0.329846 0.232021
0.031091 -0.308419 0.215065
0.031367 -0.320728 0.231964
0.048938 -0.309575 0.232523
-0.049683 -0.308015 0.231231
-0.051927 -0.290522 0.234948
0.050477 -0.307524 0.231546
0.059276 -0.290369 0.231964
-0.049559 -0.272517 0.231365
0.059006 -0.270426 0.231964
-0.048189 -0.268379 0.231125
-0.039134 -0.250482 0.231964
0.052887 -0.252400 0.231115
-0.026543 -0.233277 0.233008
-0.024904 -0.231733 0.233541
0.034018 -0.230437 0.231846
0.050190 -0.248338 0.232305
-0.008520 -0.222372 0.231964
0.011424 -0.221895 0.231964
0.031288 -0.228618 0.232103
-0.009796 -0.329821 0.239939
-0.033353 -0.316140 0.251904
-0.034713 -0.314910 0.251912
-0.007978 -0.327881 0.251449
0.011424 -0.328647 0.251908
0.031367 -0.321653 0.251908
0.046705 -0.310068 0.252194
-0.049445 -0.290015 0.241262
-0.045462 -0.290588 0.252469
0.052067 -0.300883 0.250139
0.054381 -0.293184 0.255016
-0.047926 -0.269709 0.234869
-0.046182 -0.270092 0.255230
0.054403 -0.268455 0.251742
-0.041723 -0.250482 0.251908
0.052046 -0.251777 0.234768
0.048344 -0.250707 0.251839
0.052106 -0.260559 0.252141
-0.028463 -0.232653 0.240663
-0.030759 -0.230066 0.252936
0.035004 -0.228908 0.251667
-0.028295 -0.227997 0.252285
-0.008520 -0.218601 0.251908
0.011424 -0.218451 0.251908
0.033141 -0.227163 0.252153
-0.031171 -0.313987 0.271805
-0.032914 -0.312604 0.271897
-0.008520 -0.321469 0.271851
0.011424 -0.322016 0.271851
0.034761 -0.314498 0.271869
0.036358 -0.313161 0.271834
-0.045889 -0.288938 0.271171
0.053083 -0.287177 0.262542
0.049347 -0.287672 0.273086
-0.046922 -0.270353 0.260770
-0.048272 -0.281845 0.273309
-0.050026 -0.269350 0.272992
0.050674 -0.282757 0.272128
0.052073 -0.268375 0.272110
-0.048582 -0.252990 0.270435
-0.047815 -0.249367 0.271154
0.050538 -0.249682 0.270798
0.051861 -0.253318 0.272076
-0.034271 -0.226099 0.271842
0.037198 -0.225223 0.271748
-0.033269 -0.224921 0.271861
-0.008884 -0.211719 0.271428
0.011893 -0.211408 0.270901
0.036332 -0.224167 0.271949
-0.032645 -0.316908 0.291767
-0.036948 -0.313104 0.291647
-0.008520 -0.321421 0.291795
0.011424 -0.320738 0.291795
0.034743 -0.314018 0.291774
0.036379 -0.312841 0.291814
-0.049863 -0.288499 0.280866
-0.050570 -0.299122 0.293413
-0.051896 -0.292231 0.289155
0.050199 -0.292076 0.291686
-0.055220 -0.270426 0.291795
0.051512 -0.288188 0.290387
0.056485 -0.270426 0.291795
-0.049267 -0.252098 0.274224
-0.052018 -0.249805 0.291806
0.051729 -0.250339 0.274326
0.055545 -0.247544 0.291696
-0.047759 -0.239943 0.291848
-0.044082 -0.232354 0.291738
0.047705 -0.230029 0.291637
0.052779 -0.240700 0.292058
-0.027464 -0.212338 0.290278
-0.007956 -0.210341 0.274580
-0.025142 -0.210231 0.292130
0.010664 -0.209870 0.274147
0.028958 -0.209484 0.290503
0.032579 -0.211699 0.291294
-0.008520 -0.203914 0.291795
0.011424 -0.203312 0.291795
-0.031422 -0.316437 0.311674
-0.036905 -0.311806 0.311795
-0.008520 -0.320821 0.311738
0.011424 -0.320886 0.311738
0.034524 -0.316619 0.311808
0.040042 -0.311634 0.311669
-0.049513 -0.298643 0.311711
-0.053069 -0.292019 0.311772
0.051929 -0.298695 0.311655
0.052258 -0.288544 0.294500
0.055767 -0.291628 0.311849
-0.053977 -0.270426 0.311738
0.059353 -0.270426 0.311738
-0.050931 -0.251393 0.311987
0.057606 -0.250482 0.311738
-0.047282 -0.239364 0.311335
-0.044751 -0.233066 0.311865
0.049805 -0.229740 0.311104
0.052063 -0.233517 0.312243
-0.030448 -0.211427 0.302898
-0.031059 -0.209847 0.310506
0.029764 -0.208855 0.294035
0.035274 -0.209403 0.311602
-0.028521 -0.207972 0.310111
-0.008520 -0.200986 0.311738
0.011424 -0.201021 0.311738
0.033069 -0.207822 0.311888
-0.031547 -0.313455 0.331633
-0.033245 -0.312640 0.331737
-0.008520 -0.319661 0.331682
0.011424 -0.319593 0.331682
0.034504 -0.315762 0.331721
0.039458 -0.313240 0.331622
-0.050219 -0.294739 0.331635
-0.050888 -0.292597 0.331724
0.054279 -0.298548 0.331684
0.057094 -0.293794 0.331700
-0.052568 -0.270426 0.331682
0.061036 -0.270426 0.331682
-0.051109 -0.250482 0.331682
0.059572 -0.250482 0.331682
-0.049009 -0.231194 0.328854
-0.049590 -0.231168 0.332333
0.051071 -0.230248 0.314492
0.056076 -0.228193 0.331548
-0.047924 -0.227682 0.330811
-0.034087 -0.207360 0.331749
0.039828 -0.208241 0.331505
0.053530 -0.222304 0.331968
-0.032904 -0.206530 0.331613
-0.008520 -0.198267 0.331682
0.011424 -0.198575 0.331682
0.035353 -0.204511 0.331734
-0.031000 -0.315670 0.351581
-0.036743 -0.311927 0.351667
-0.008520 -0.319231 0.351625
0.011424 -0.318474 0.351625
0.035000 -0.315394 0.351675
0.040535 -0.312290 0.351560
-0.050118 -0.298662 0.351567
-0.053887 -0.292978 0.351688
0.052312 -0.305294 0.351644
0.060746 -0.290369 0.351625
-0.056803 -0.270426 0.351625
0.063549 -0.270426 0.351625
-0.056625 -0.250482 0.351625
0.064351 -0.250482 0.351625
-0.053522 -0.227117 0.351647
0.062395 -0.230539 0.351625
-0.049970 -0.221080 0.351537
-0.043334 -0.210200 0.351730
0.049881 -0.209920 0.350852
0.052837 -0.212750 0.352676
-0.028463 -0.200287 0.351625
-0.008030 -0.193709 0.353005
0.011277 -0.193789 0.351920
0.031367 -0.199371 0.351625
-0.031757 -0.316092 0.371523
-0.036393 -0.313603 0.371615
-0.008520 -0.320050 0.371569
0.011424 -0.319459 0.371569
0.034026 -0.315748 0.371635
0.039517 -0.312640 0.371505
-0.051892 -0.298329 0.371515
-0.054520 -0.293947 0.371623
0.053863 -0.298484 0.371533
0.057331 -0.293533 0.371608
-0.060379 -0.270426 0.371569
0.064672 -0.270426 0.371569
-0.060713 -0.250482 0.371569
0.069066 -0.251074 0.373286
-0.057531 -0.230539 0.371569
0.065549 -0.230539 0.371569
-0.049082 -0.213089 0.371974
-0.046389 -0.209927 0.371982
0.049599 -0.209134 0.354041
0.053901 -0.210335 0.371382
-0.027255 -0.195030 0.371796
-0.008933 -0.191089 0.361741
-0.018774 -0.191324 0.371407
0.011359 -0.190426 0.362512
0.021387 -0.190899 0.370347
0.030425 -0.194174 0.372145
0.051584 -0.207969 0.371757
-0.008501 -0.187889 0.370597
0.012559 -0.187967 0.370811
-0.029525 -0.315549 0.391442
-0.036939 -0.310293 0.391568
-0.008520 -0.319689 0.391512
0.011424 -0.320013 0.391512
0.033563 -0.315881 0.391564
0.039714 -0.311474 0.391457
-0.048746 -0.298880 0.391493
-0.054387 -0.292369 0.391538
0.052498 -0.298603 0.391490
0.056984 -0.292521 0.391549
-0.061278 -0.270426 0.391512
0.064848 -0.270426 0.391512
-0.063077 -0.250482 0.391512
0.071527 -0.253613 0.391443
0.070274 -0.249095 0.380917
0.072229 -0.250849 0.393487
-0.059332 -0.230539 0.391512
0.069379 -0.231745 0.391341
0.071078 -0.240869 0.392930
-0.048352 -0.210637 0.382160
-0.050371 -0.211270 0.390211
0.054988 -0.208577 0.391480
-0.047978 -0.208164 0.390122
-0.029618 -0.191775 0.389329
-0.029883 -0.190924 0.392914
0.030184 -0.190183 0.388693
0.033698 -0.191676 0.391014
0.053298 -0.206546 0.391544
-0.026456 -0.189328 0.391774
-0.008520 -0.184484 0.391512
0.011424 -0.184917 0.391512
0.029729 -0.189282 0.392531
-0.027338 -0.311822 0.411280
-0.030727 -0.309859 0.411637
-0.008520 -0.317794 0.411456
0.011424 -0.318880 0.411456
0.034272 -0.313314 0.411448
0.035975 -0.312603 0.411464
-0.048627 -0.294095 0.412669
-0.050793 -0.291566 0.412075
0.053746 -0.294906 0.411430
0.054646 -0.293358 0.411478
-0.060828 -0.270426 0.411456
0.064023 -0.270426 0.411456
-0.065746 -0.250482 0.411456
0.071566 -0.253756 0.413300
0.072119 -0.250170 0.413271
-0.061871 -0.230539 0.411456
0.070738 -0.229223 0.408794
0.072069 -0.232878 0.411753
-0.051501 -0.208140 0.411438
0.057959 -0.208472 0.411448
0.071002 -0.228756 0.412544
-0.050310 -0.206356 0.411477
-0.033165 -0.187867 0.411461
0.039737 -0.190389 0.411205
0.052163 -0.202217 0.411553
-0.031770 -0.187198 0.411451
-0.008520 -0.180662 0.411456
0.011424 -0.181205 0.411456
0.032464 -0.185283 0.411641
-0.028601 -0.310567 0.414463
-0.018722 -0.310308 0.431534
-0.009891 -0.314466 0.431308
0.011424 -0.317400 0.431399
0.031163 -0.312170 0.430152
0.034564 -0.309998 0.431120
-0.049999 -0.289351 0.420358
-0.045379 -0.290252 0.431327
-0.027319 -0.305567 0.431349
0.051690 -0.293362 0.431320
0.053466 -0.290724 0.431488
-0.047428 -0.287749 0.432178
-0.059276 -0.270426 0.431399
0.062683 -0.270426 0.431399
-0.068373 -0.250146 0.430334
0.071299 -0.249975 0.420676
0.070638 -0.248356 0.432211
-0.065446 -0.230539 0.431399
0.071506 -0.241041 0.431628
0.071757 -0.231745 0.431667
-0.054126 -0.208156 0.431342
0.062470 -0.210595 0.431399
0.070956 -0.228491 0.431555
-0.051118 -0.202996 0.431451
-0.036533 -0.187244 0.431418
0.049185 -0.190953 0.429846
0.052006 -0.193367 0.431272
-0.032076 -0.183403 0.431385
-0.008520 -0.176064 0.431399
0.011424 -0.176641 0.431399
0.031367 -0.180741 0.431399
-0.007834 -0.312239 0.450705
-0.011362 -0.311203 0.450732
0.013362 -0.313018 0.454280
0.029638 -0.310133 0.442961
0.022695 -0.311281 0.449760
-0.031345 -0.297835 0.451316
-0.036346 -0.293174 0.451353
0.031537 -0.307260 0.450041
0.050504 -0.292281 0.449609
0.053263 -0.289088 0.450392
-0.050813 -0.278187 0.451329
-0.055308 -0.272495 0.451372
0.063307 -0.270426 0.451343
-0.068064 -0.252585 0.443500
-0.067804 -0.253095 0.450167
-0.069175 -0.250334 0.447713
0.070360 -0.252074 0.450255
-0.068825 -0.240089 0.447844
-0.067769 -0.232267 0.452133
0.071867 -0.242263 0.449192
0.071808 -0.232900 0.451601
-0.054935 -0.207625 0.451248
0.066128 -0.210595 0.451343
0.071916 -0.225256 0.451316
-0.050317 -0.201363 0.451447
-0.042141 -0.190638 0.451335
0.050179 -0.188915 0.442811
0.054241 -0.190799 0.449694
-0.028463 -0.180161 0.451343
-0.008520 -0.172266 0.451343
0.011874 -0.172127 0.453510
0.031367 -0.178671 0.451343
0.051885 -0.188542 0.450374
-0.009306 -0.308956 0.462031
0.009456 -0.312117 0.461208
-0.031371 -0.294470 0.471205
-0.032842 -0.293580 0.471381
-0.008322 -0.307879 0.468728
0.011854 -0.308028 0.472379
0.031367 -0.301808 0.471286
0.049312 -0.290734 0.463807
0.048847 -0.289952 0.469868
-0.051531 -0.274855 0.471290
-0.052568 -0.273168 0.471283
0.051394 -0.287570 0.469568
0.063662 -0.270426 0.471286
-0.068880 -0.248575 0.451743
-0.066023 -0.250482 0.471286
0.071341 -0.254125 0.468993
0.072055 -0.249178 0.463415
0.072231 -0.250716 0.469585
-0.066460 -0.230539 0.471286
0.074655 -0.230539 0.471286
-0.058612 -0.210595 0.471286
0.070333 -0.210700 0.471136
0.071526 -0.213743 0.471525
-0.048558 -0.192848 0.469039
-0.045906 -0.189700 0.470415
0.056240 -0.187435 0.471152
-0.028463 -0.176966 0.471286
-0.009471 -0.171307 0.469787
0.010494 -0.171314 0.459946
-0.000475 -0.170016 0.472938
0.015960 -0.170696 0.470579
0.031548 -0.174098 0.471880
0.055075 -0.186147 0.471424
0.008790 -0.170045 0.473304
-0.028970 -0.292814 0.491082
-0.031710 -0.290953 0.491368
-0.008520 -0.301665 0.491230
0.011424 -0.302652 0.491230
0.034534 -0.296314 0.491294
0.040754 -0.292107 0.491132
-0.048939 -0.273550 0.491165
-0.050840 -0.270876 0.491296
0.051600 -0.284613 0.491279
0.063571 -0.270426 0.491230
-0.061304 -0.250482 0.491230
0.071978 -0.254045 0.491199
0.072633 -0.251148 0.491258
-0.064234 -0.230539 0.491230
0.073372 -0.226811 0.491204
-0.060136 -0.210595 0.491230
0.069522 -0.208821 0.491279
0.072625 -0.221667 0.491221
-0.050555 -0.191574 0.483499
-0.050409 -0.189911 0.489601
0.056829 -0.185992 0.491178
-0.048287 -0.187379 0.489474
-0.029480 -0.171548 0.490012
-0.009492 -0.170392 0.473606
-0.026144 -0.169463 0.492281
0.031384 -0.170999 0.481890
0.035336 -0.169673 0.490245
0.056321 -0.185170 0.491289
-0.008520 -0.165553 0.491230
0.011424 -0.164394 0.491230
0.032838 -0.168502 0.491329
-0.027525 -0.292048 0.510387
-0.030708 -0.290020 0.510778
-0.008520 -0.298949 0.511173
0.011424 -0.299980 0.511173
0.034388 -0.295381 0.511224
0.040797 -0.291669 0.511083
-0.047230 -0.272395 0.511317
-0.050043 -0.268707 0.510524
0.051537 -0.285301 0.511227
0.064256 -0.270426 0.511173
-0.057840 -0.250482 0.511173
0.071525 -0.253639 0.511208
0.072203 -0.250337 0.511141
-0.062259 -0.230539 0.511173
0.072541 -0.232312 0.510984
-0.060553 -0.210595 0.511173
0.069221 -0.213978 0.511148
0.070448 -0.219040 0.511361
-0.050800 -0.190246 0.511000
0.062036 -0.190652 0.511173
-0.048774 -0.187552 0.511335
-0.029734 -0.170968 0.493658
-0.031331 -0.170544 0.511093
0.040549 -0.168759 0.510913
0.051914 -0.176383 0.511326
-0.028514 -0.168743 0.511264
-0.008520 -0.162283 0.511173
0.011424 -0.160259 0.511173
0.034628 -0.164802 0.511322
-0.028225 -0.289075 0.523645
-0.018157 -0.292004 0.530693
-0.011502 -0.294564 0.531335
0.011424 -0.298570 0.531117
0.033241 -0.294625 0.531071
0.041285 -0.290296 0.531217
-0.049294 -0.269100 0.513895
-0.044094 -0.271121 0.531092
-0.029203 -0.286644 0.530329
0.049846 -0.285409 0.531038
0.063712 -0.270426 0.531117
-0.050098 -0.259833 0.531139
-0.053220 -0.253469 0.531117
0.071226 -0.252388 0.528715
0.072051 -0.248413 0.529704
-0.060541 -0.230539 0.531117
0.072231 -0.230261 0.531269
-0.061382 -0.210595 0.531117
0.070270 -0.212967 0.533656
0.071179 -0.220781 0.529833
-0.050681 -0.190835 0.530920
0.064543 -0.190652 0.531117
-0.048467 -0.187882 0.531295
-0.030827 -0.171184 0.531136
0.050726 -0.169992 0.528227
0.053217 -0.171826 0.530769
-0.027683 -0.168855 0.531096
-0.008520 -0.159441 0.531117
0.011424 -0.155121 0.531117
0.031367 -0.158737 0.531117
0.050269 -0.168987 0.531692
-0.010296 -0.293842 0.551040
-0.018509 -0.290547 0.551101
0.011424 -0.296892 0.551060
0.030326 -0.291649 0.549342
0.034062 -0.289832 0.550763
-0.027516 -0.286279 0.551037
-0.044088 -0.267837 0.550466
0.055358 -0.275715 0.551036
0.056342 -0.274463 0.551085
-0.046690 -0.261101 0.552137
-0.050903 -0.250609 0.552080
0.070360 -0.252840 0.541283
0.070254 -0.250105 0.548027
-0.057584 -0.230539 0.551060
0.071928 -0.239681 0.552123
0.072553 -0.232852 0.551091
-0.058816 -0.210595 0.551060
0.070478 -0.207682 0.541147
0.071992 -0.211621 0.551524
-0.050230 -0.192460 0.550000
0.067878 -0.190652 0.551060
0.071548 -0.208041 0.552716
-0.047954 -0.188962 0.549241
-0.031313 -0.170514 0.551039
0.054844 -0.169526 0.550913
-0.028556 -0.168247 0.551084
-0.008520 -0.156330 0.551060
0.011424 -0.152476 0.551060
0.031367 -0.157256 0.551060
0.052874 -0.167600 0.551214
-0.008787 -0.292615 0.570176
-0.011698 -0.291925 0.570147
0.014300 -0.293059 0.573108
0.030379 -0.289962 0.561485
0.021493 -0.292026 0.570762
-0.033386 -0.276321 0.570970
-0.034034 -0.275462 0.571034
0.032163 -0.287828 0.569319
0.053665 -0.274371 0.570871
0.055255 -0.272835 0.571134
-0.049372 -0.249782 0.560225
-0.045768 -0.252312 0.570564
0.068570 -0.247087 0.570487
-0.050570 -0.239581 0.571794
-0.052841 -0.233511 0.571002
0.070037 -0.241768 0.572482
0.072271 -0.227766 0.573926
-0.054812 -0.210595 0.571004
0.071554 -0.213137 0.568190
0.070929 -0.209476 0.570727
0.071418 -0.213230 0.571062
-0.048937 -0.193481 0.569107
-0.046580 -0.189456 0.561463
-0.047254 -0.190460 0.570079
0.066745 -0.190652 0.571004
-0.031907 -0.169863 0.571108
0.054355 -0.170132 0.570857
-0.029414 -0.167706 0.570890
-0.008520 -0.157270 0.571004
0.011424 -0.155229 0.571004
0.031367 -0.158929 0.571004
0.051993 -0.168076 0.571160
-0.009659 -0.288433 0.581874
0.009542 -0.291652 0.581346
-0.028773 -0.273739 0.591572
-0.031036 -0.271615 0.591237
-0.008248 -0.286749 0.588259
0.011764 -0.287384 0.591106
0.031367 -0.282069 0.590947
0.049580 -0.271493 0.588315
0.049348 -0.270464 0.591637
-0.041790 -0.250482 0.590947
0.052518 -0.268049 0.589984
0.064560 -0.250482 0.590947
-0.048934 -0.234548 0.591714
-0.049849 -0.231777 0.590500
0.071717 -0.230020 0.579716
0.070784 -0.230188 0.592151
-0.053170 -0.210595 0.590947
0.069364 -0.210595 0.590947
-0.049074 -0.193144 0.581463
-0.049495 -0.191473 0.591863
0.063851 -0.190652 0.590947
-0.047906 -0.187634 0.590925
-0.033444 -0.166975 0.590942
0.052895 -0.172087 0.590677
-0.032121 -0.165940 0.590953
-0.008052 -0.152951 0.591372
0.011264 -0.152879 0.590121
0.031367 -0.158563 0.590947
0.049796 -0.169157 0.591228
-0.029483 -0.269134 0.600648
-0.024950 -0.269599 0.610003
-0.008520 -0.278850 0.610891
0.011424 -0.280745 0.610891
0.031821 -0.274440 0.613298
0.040129 -0.270069 0.610110
-0.026599 -0.267734 0.611173
-0.039023 -0.250482 0.610891
0.052542 -0.258906 0.610761
0.058638 -0.253123 0.610982
-0.048534 -0.229532 0.600897
-0.046339 -0.230638 0.609477
0.069398 -0.230539 0.610891
-0.048603 -0.220336 0.612102
-0.050430 -0.212013 0.611775
0.068327 -0.210595 0.610891
-0.049824 -0.190007 0.610824
0.062970 -0.190652 0.610891
-0.049206 -0.187079 0.610959
-0.040324 -0.170708 0.610891
0.053066 -0.171665 0.610703
-0.026631 -0.155583 0.611329
-0.008978 -0.150592 0.601402
-0.018279 -0.151979 0.610153
0.011494 -0.149922 0.602549
0.021235 -0.150833 0.609370
0.030728 -0.154031 0.611531
0.050728 -0.168719 0.611048
-0.008306 -0.148384 0.609017
0.012769 -0.148497 0.609172
-0.008148 -0.272034 0.630251
-0.011519 -0.270347 0.631224
0.011615 -0.274663 0.633348
0.028628 -0.273421 0.621375
0.028634 -0.269415 0.632339
-0.031014 -0.255197 0.630990
-0.032243 -0.253669 0.630673
0.031757 -0.268150 0.631851
0.052833 -0.253559 0.631769
0.054620 -0.251351 0.632149
-0.040237 -0.230539 0.630834
0.065065 -0.230539 0.630834
-0.048329 -0.210626 0.620399
-0.045626 -0.210424 0.630198
0.064903 -0.210595 0.630834
-0.048698 -0.191138 0.627734
-0.047905 -0.190400 0.631058
0.061214 -0.190652 0.630834
-0.040451 -0.170708 0.630834
0.052745 -0.172920 0.628613
0.049975 -0.169037 0.630029
0.052357 -0.172528 0.631709
-0.028663 -0.154606 0.630823
-0.017963 -0.149813 0.630894
0.029006 -0.150448 0.629081
0.032401 -0.152270 0.630551
-0.011316 -0.147217 0.630785
0.011424 -0.145062 0.630834
-0.008489 -0.270522 0.633807
0.010931 -0.271418 0.640400
-0.029177 -0.248636 0.647926
-0.026358 -0.251218 0.650056
-0.008520 -0.262066 0.650778
0.011727 -0.266948 0.650912
0.031367 -0.262056 0.650778
0.050713 -0.251974 0.639540
0.048691 -0.248596 0.651852
-0.028278 -0.248518 0.651556
-0.035063 -0.230539 0.650778
0.050789 -0.246793 0.650607
0.059303 -0.230539 0.650778
-0.039146 -0.210595 0.650778
0.060850 -0.210595 0.650778
-0.042745 -0.190652 0.650778
0.059453 -0.190652 0.650778
-0.037858 -0.170708 0.650778
0.050140 -0.169317 0.649269
0.052676 -0.173280 0.650233
-0.027510 -0.155994 0.650766
-0.018292 -0.150653 0.650839
0.029423 -0.149305 0.642065
0.034180 -0.151273 0.649364
-0.010760 -0.146476 0.650721
0.011424 -0.142719 0.650778
0.030874 -0.149173 0.649786
-0.010756 -0.256008 0.670764
-0.017243 -0.250811 0.670508
0.011424 -0.260985 0.670721
0.034830 -0.254318 0.670661
0.036091 -0.253603 0.670791
-0.028692 -0.239016 0.670929
-0.033152 -0.232221 0.670678
0.052904 -0.234787 0.670725
0.053808 -0.232826 0.670718
-0.036299 -0.210595 0.670721
0.059020 -0.210595 0.670721
-0.037998 -0.190652 0.670721
0.058927 -0.190652 0.670721
-0.036476 -0.170708 0.670721
0.050292 -0.168760 0.662513
0.052842 -0.172451 0.669109
-0.027094 -0.153681 0.670725
-0.025303 -0.152084 0.670718
0.034449 -0.150288 0.670732
0.050769 -0.169037 0.669314
-0.008520 -0.143661 0.670721
0.011424 -0.140797 0.670721
0.031679 -0.148438 0.670709
-0.009945 -0.249667 0.688082
0.000609 -0.253225 0.688331
0.008673 -0.253374 0.691713
0.030396 -0.250924 0.687765
0.028778 -0.250432 0.691151
-0.028006 -0.233206 0.691378
-0.030077 -0.230160 0.690608
-0.009586 -0.248456 0.691321
0.031731 -0.248963 0.690774
0.050106 -0.231513 0.688224
0.049980 -0.230415 0.691028
-0.033991 -0.210595 0.690665
0.052344 -0.227617 0.689264
0.057821 -0.210595 0.690665
-0.035433 -0.190652 0.690665
0.058715 -0.190652 0.690665
-0.035954 -0.170708 0.690665
0.052633 -0.172459 0.690517
-0.028389 -0.153004 0.690706
-0.026137 -0.150705 0.690624
0.034203 -0.150244 0.690574
0.050154 -0.168288 0.691311
-0.008520 -0.143339 0.690665
0.011424 -0.139254 0.690665
0.031659 -0.148471 0.690769
0.012300 -0.249912 0.701711
-0.029463 -0.230244 0.693665
-0.023360 -0.227917 0.709700
-0.008520 -0.240873 0.710608
0.011510 -0.246377 0.709013
0.035597 -0.235671 0.710498
0.036607 -0.235024 0.710740
-0.026395 -0.220906 0.712732
-0.030721 -0.210530 0.712106
0.052998 -0.214776 0.710570
0.053508 -0.212757 0.710644
-0.033152 -0.190652 0.710608
0.057601 -0.190652 0.710608
-0.034222 -0.170708 0.710608
0.052627 -0.173220 0.700667
0.050115 -0.169015 0.710156
0.052076 -0.172735 0.710780
-0.027549 -0.153868 0.710607
-0.025838 -0.151951 0.710610
0.034665 -0.149746 0.710451
-0.008520 -0.142398 0.710608
0.011424 -0.136618 0.710608
0.032179 -0.147820 0.710785
-0.008846 -0.232896 0.731488
-0.011749 -0.230840 0.731800
0.011424 -0.238465 0.730552
0.031410 -0.232446 0.730359
0.034073 -0.230018 0.731576
-0.030037 -0.209197 0.719263
-0.026693 -0.211680 0.731334
0.051503 -0.211603 0.728054
0.050328 -0.211151 0.731595
-0.029378 -0.201507 0.731217
-0.031013 -0.192980 0.730949
0.052571 -0.208051 0.729188
0.053940 -0.187013 0.733052
-0.031102 -0.168607 0.732817
0.049058 -0.169184 0.730842
0.053313 -0.180093 0.729097
-0.029259 -0.159593 0.728694
-0.024942 -0.150790 0.730978
0.033781 -0.150793 0.731222
-0.008520 -0.140503 0.730552
0.011424 -0.136433 0.730552
0.030882 -0.148302 0.731653
-0.009651 -0.230872 0.734049
0.011163 -0.228771 0.747421
0.030739 -0.231214 0.733326
-0.010122 -0.213943 0.751584
-0.012354 -0.212567 0.750802
0.011690 -0.227453 0.748930
0.034761 -0.214591 0.751674
0.035826 -0.213401 0.751583
-0.029563 -0.189347 0.739563
-0.017489 -0.190716 0.751603
0.051749 -0.192469 0.740777
0.046926 -0.190493 0.750548
-0.028252 -0.171717 0.741278
-0.024271 -0.170608 0.749400
0.036271 -0.168850 0.751348
-0.012071 -0.149994 0.751047
0.032558 -0.150469 0.733675
0.018107 -0.149412 0.750645
0.032671 -0.164755 0.751953
-0.009907 -0.147984 0.750376
0.012368 -0.147197 0.751284
-0.010385 -0.211769 0.752576
0.011424 -0.210595 0.757493
0.034340 -0.213048 0.752888
-0.013057 -0.190706 0.756194
0.011424 -0.190652 0.759847
0.031367 -0.190652 0.757651
-0.008520 -0.170708 0.758137
0.011424 -0.170708 0.758764
0.034828 -0.169122 0.752869
-0.009371 -0.150159 0.752716
0.012389 -0.148746 0.753045
3 0 1 2
3 1 0 3
3 0 2 4
3 3 0 4
3 5 6 7
3 5 8 9
3 6 5 9
3 9 8 10
3 11 12 13
3 7 12 11
3 7 11 5
3 5 11 14
3 8 5 15
3 15 5 14
3 16 10 8
3 16 8 17
3 17 8 15
3 17 18 19
3 16 17 19
3 19 18 20
3 11 13 21
3 21 22 23
3 21 23 11
3 11 23 14
3 1 23 2
3 1 15 23
3 15 14 23
3 3 15 1
3 3 24 15
3 24 17 15
3 18 17 25
3 25 17 24
3 26 20 18
3 25 26 18
3 23 22 27
3 28 27 29
3 4 27 28
3 4 23 27
3 4 2 23
3 4 24 3
3 4 28 24
3 28 30 24
3 31 32 25
3 31 25 30
3 30 25 24
3 26 25 32
3 28 29 33
3 30 28 33
3 34 30 33
3 31 30 34
3 35 36 37
3 35 38 39
3 36 35 39
3 39 38 40
3 41 42 43
3 37 42 41
3 35 37 41
3 35 41 7
3 35 7 6
3 9 35 6
3 38 35 9
3 10 44 45
3 9 10 45
3 9 45 40
3 9 40 38
3 44 46 47
3 45 44 47
3 46 48 49
3 47 46 49
3 49 48 50
3 12 41 43
3 12 43 13
3 13 43 51
3 7 41 12
3 10 16 44
3 19 44 16
3 46 44 19
3 20 46 19
3 20 52 46
3 52 48 46
3 53 50 48
3 52 53 48
3 13 51 54
3 21 13 54
3 54 22 21
3 55 22 54
3 52 26 56
3 20 26 52
3 57 53 52
3 56 57 52
3 22 55 58
3 27 22 58
3 58 29 27
3 59 29 58
3 32 31 60
3 32 60 61
3 26 32 61
3 26 61 62
3 26 62 56
3 57 56 62
3 29 59 63
3 33 29 63
3 34 33 64
3 33 63 64
3 60 31 34
3 60 34 65
3 65 34 64
3 61 60 65
3 66 67 68
3 67 66 69
3 36 70 71
3 37 36 71
3 68 39 66
3 68 70 39
3 70 36 39
3 40 72 73
3 39 40 73
3 39 73 69
3 39 69 66
3 72 74 75
3 73 72 75
3 75 74 76
3 42 77 78
3 43 42 78
3 71 42 37
3 77 42 71
3 40 45 72
3 47 72 45
3 74 72 47
3 74 79 76
3 74 47 79
3 47 49 79
3 79 49 50
3 80 79 50
3 43 78 51
3 78 81 51
3 50 53 80
3 80 53 82
3 51 81 83
3 54 51 83
3 83 55 54
3 84 55 83
3 53 57 82
3 82 57 85
3 55 84 86
3 58 55 86
3 86 59 58
3 87 59 86
3 62 88 89
3 61 88 62
3 85 57 62
3 89 85 62
3 59 87 90
3 63 59 90
3 64 63 91
3 63 90 91
3 65 64 92
3 64 91 92
3 88 61 65
3 92 88 65
3 67 93 68
3 67 69 93
3 70 94 95
3 71 70 95
3 93 70 68
3 93 96 70
3 96 94 70
3 69 96 93
3 69 73 96
3 73 97 96
3 75 98 73
3 73 98 97
3 98 75 76
3 99 98 76
3 77 100 78
3 77 101 100
3 77 71 101
3 71 95 101
3 76 102 99
3 79 102 76
3 102 79 80
3 103 102 80
3 100 104 81
3 78 100 81
3 105 100 101
3 104 100 105
3 80 82 103
3 103 82 106
3 81 104 83
3 104 84 83
3 104 105 84
3 105 107 84
3 108 109 110
3 108 110 106
3 108 106 85
3 85 106 82
3 111 86 84
3 111 84 112
3 112 84 107
3 86 111 87
3 89 109 108
3 89 88 109
3 88 113 109
3 85 89 108
3 111 112 114
3 87 111 114
3 87 114 90
3 90 114 115
3 91 90 116
3 90 115 116
3 92 91 117
3 91 116 117
3 113 88 92
3 117 113 92
3 94 118 119
3 95 94 119
3 96 120 94
3 94 120 118
3 97 121 96
3 96 121 120
3 98 122 97
3 97 122 121
3 122 98 99
3 123 122 99
3 95 119 101
3 119 124 101
3 125 99 102
3 125 126 99
3 126 123 99
3 102 103 125
3 127 128 129
3 127 124 128
3 127 105 124
3 105 101 124
3 125 130 126
3 130 125 103
3 130 103 131
3 131 103 106
3 127 129 132
3 132 105 127
3 132 133 105
3 133 107 105
3 110 134 135
3 109 134 110
3 131 106 110
3 135 131 110
3 107 133 112
3 133 136 112
3 109 113 134
3 134 113 137
3 112 136 138
3 114 112 138
3 115 114 139
3 114 138 139
3 116 115 140
3 115 139 140
3 117 116 141
3 116 140 141
3 137 113 117
3 141 137 117
3 118 142 143
3 119 118 143
3 120 144 118
3 118 144 142
3 121 145 120
3 120 145 144
3 122 146 121
3 121 146 145
3 146 122 123
3 147 146 123
3 148 149 150
3 148 143 149
3 148 124 143
3 124 119 143
3 123 126 147
3 147 126 151
3 128 148 150
3 128 150 129
3 129 150 152
3 124 148 128
3 126 153 151
3 130 153 126
3 153 130 131
3 154 153 131
3 155 132 129
3 155 129 156
3 156 129 152
3 132 155 133
3 135 134 157
3 135 157 158
3 135 158 131
3 131 158 154
3 155 156 159
3 159 133 155
3 159 160 133
3 160 136 133
3 157 161 162
3 157 134 161
3 134 137 161
3 158 157 162
3 136 160 163
3 138 136 163
3 164 163 165
3 164 139 163
3 139 138 163
3 139 166 140
3 164 166 139
3 167 140 166
3 167 168 140
3 168 141 140
3 161 137 141
3 168 161 141
3 164 165 169
3 166 164 169
3 170 166 169
3 167 166 170
3 142 171 172
3 143 142 172
3 144 173 142
3 142 173 171
3 145 174 144
3 144 174 173
3 146 175 145
3 145 175 174
3 175 146 147
3 176 175 147
3 149 177 178
3 150 149 178
3 172 149 143
3 177 149 172
3 179 151 180
3 179 176 151
3 176 147 151
3 179 180 181
3 150 178 152
3 178 182 152
3 151 153 180
3 180 153 154
3 180 154 181
3 181 154 183
3 152 182 156
3 182 184 156
3 154 158 183
3 183 158 185
3 156 184 186
3 159 156 186
3 186 160 159
3 187 160 186
3 162 188 189
3 161 188 162
3 185 158 162
3 189 185 162
3 190 163 160
3 190 160 191
3 191 160 187
3 163 190 165
3 168 167 192
3 168 192 193
3 168 193 161
3 161 193 188
3 190 191 194
3 165 190 194
3 165 194 169
3 169 194 195
3 170 169 196
3 169 195 196
3 192 167 170
3 192 170 197
3 197 170 196
3 193 192 197
3 171 198 199
3 172 171 199
3 173 200 171
3 171 200 198
3 174 201 173
3 173 201 200
3 175 202 174
3 174 202 201
3 202 175 176
3 203 202 176
3 177 204 205
3 178 177 205
3 199 177 172
3 204 177 199
3 176 206 203
3 179 206 176
3 206 179 181
3 207 206 181
3 178 205 182
3 205 208 182
3 181 183 207
3 207 183 209
3 182 208 184
3 208 210 184
3 183 185 209
3 209 185 211
3 212 186 184
3 212 184 213
3 213 184 210
3 186 212 187
3 189 188 214
3 189 214 215
3 189 215 185
3 185 215 211
3 212 213 216
3 216 187 212
3 216 217 187
3 217 191 187
3 214 218 219
3 214 188 218
3 188 193 218
3 215 214 219
3 191 217 220
3 194 191 220
3 195 194 221
3 194 220 221
3 196 195 222
3 195 221 222
3 197 196 223
3 196 222 223
3 218 193 197
3 223 218 197
3 198 224 225
3 199 198 225
3 200 226 198
3 198 226 224
3 201 227 200
3 200 227 226
3 202 228 201
3 201 228 227
3 228 202 203
3 229 228 203
3 204 230 231
3 205 204 231
3 225 204 199
3 230 204 225
3 203 232 229
3 206 232 203
3 232 206 207
3 233 232 207
3 205 231 208
3 231 234 208
3 207 209 233
3 233 209 235
3 208 234 210
3 234 236 210
3 209 211 235
3 235 211 237
3 210 236 213
3 236 238 213
3 211 215 237
3 237 215 239
3 213 238 240
3 216 213 240
3 240 217 216
3 241 217 240
3 219 242 243
3 218 242 219
3 239 215 219
3 243 239 219
3 217 241 244
3 220 217 244
3 221 220 245
3 220 244 245
3 222 221 246
3 221 245 246
3 223 222 247
3 222 246 247
3 242 218 223
3 247 242 223
3 224 248 249
3 225 224 249
3 226 250 224
3 224 250 248
3 227 251 226
3 226 251 250
3 228 252 227
3 227 252 251
3 252 228 229
3 253 252 229
3 230 254 255
3 231 230 255
3 249 230 225
3 254 230 249
3 229 256 253
3 232 256 229
3 256 232 233
3 257 256 233
3 231 255 234
3 255 258 234
3 233 235 257
3 257 235 259
3 234 258 236
3 258 260 236
3 235 237 259
3 259 237 261
3 236 260 238
3 260 262 238
3 237 239 261
3 261 239 263
3 238 262 264
3 240 238 264
3 264 241 240
3 265 241 264
3 243 242 266
3 243 266 267
3 243 267 239
3 239 267 263
3 241 265 268
3 244 241 268
3 269 268 270
3 269 245 268
3 245 244 268
3 245 271 246
3 269 271 245
3 272 246 271
3 272 273 246
3 273 247 246
3 266 242 247
3 266 247 274
3 274 247 273
3 267 266 274
3 269 270 275
3 271 269 275
3 276 271 275
3 272 271 276
3 248 277 278
3 249 248 278
3 250 279 248
3 248 279 277
3 251 280 250
3 250 280 279
3 252 281 251
3 251 281 280
3 281 252 253
3 282 281 253
3 254 283 284
3 255 254 284
3 278 254 249
3 283 254 278
3 253 285 282
3 256 285 253
3 285 256 257
3 286 285 257
3 255 284 258
3 284 287 258
3 257 259 286
3 286 259 288
3 258 287 260
3 287 289 260
3 290 261 291
3 290 288 261
3 288 259 261
3 290 291 292
3 260 289 262
3 289 293 262
3 291 294 295
3 291 261 294
3 261 263 294
3 292 291 295
3 296 264 262
3 296 262 297
3 297 262 293
3 264 296 265
3 263 267 294
3 294 267 298
3 296 297 299
3 300 299 301
3 268 299 300
3 268 296 299
3 268 265 296
3 268 300 270
3 273 272 302
3 303 273 302
3 303 304 273
3 304 274 273
3 298 267 274
3 304 298 274
3 300 301 305
3 270 300 305
3 270 305 275
3 275 305 306
3 276 275 307
3 275 306 307
3 302 272 276
3 302 276 308
3 308 276 307
3 303 302 308
3 277 309 310
3 278 277 310
3 279 311 277
3 277 311 309
3 280 312 279
3 279 312 311
3 281 313 280
3 280 313 312
3 313 281 282
3 314 313 282
3 283 315 316
3 284 283 316
3 310 283 278
3 315 283 310
3 282 317 314
3 285 317 282
3 317 285 286
3 318 317 286
3 284 316 287
3 316 319 287
3 286 288 318
3 318 288 320
3 287 319 289
3 319 321 289
3 288 322 320
3 290 322 288
3 322 290 292
3 323 322 292
3 289 321 293
3 321 324 293
3 295 294 325
3 295 325 326
3 295 326 292
3 292 326 323
3 293 324 297
3 324 327 297
3 325 328 329
3 325 294 328
3 294 298 328
3 326 325 329
3 297 327 330
3 299 297 330
3 330 301 299
3 331 301 330
3 304 332 333
3 303 332 304
3 328 298 304
3 333 328 304
3 301 331 334
3 305 301 334
3 306 305 335
3 305 334 335
3 307 306 336
3 306 335 336
3 308 307 337
3 307 336 337
3 332 303 308
3 337 332 308
3 309 338 310
3 339 338 309
3 339 309 340
3 340 309 311
3 312 341 311
3 311 341 340
3 313 342 312
3 312 342 341
3 342 313 314
3 343 342 314
3 315 344 316
3 315 345 344
3 310 345 315
3 310 346 345
3 310 338 346
3 339 346 338
3 314 347 343
3 317 347 314
3 347 317 318
3 348 347 318
3 344 349 350
3 344 350 316
3 316 350 319
3 345 349 344
3 318 320 348
3 348 320 351
3 319 350 321
3 350 352 321
3 353 320 322
3 353 354 320
3 354 351 320
3 322 323 353
3 321 352 324
3 352 355 324
3 353 356 354
3 356 353 323
3 356 323 357
3 357 323 326
3 324 355 327
3 355 358 327
3 329 359 360
3 328 359 329
3 357 326 329
3 360 357 329
3 327 358 361
3 330 327 361
3 361 331 330
3 362 331 361
3 333 363 364
3 332 363 333
3 359 328 333
3 364 359 333
3 331 362 365
3 334 331 365
3 335 334 366
3 334 365 366
3 336 335 367
3 335 366 367
3 337 336 368
3 336 367 368
3 363 332 337
3 368 363 337
3 340 369 370
3 339 340 370
3 341 371 340
3 340 371 369
3 372 373 371
3 372 371 342
3 342 371 341
3 342 343 372
3 346 374 375
3 345 346 375
3 370 346 339
3 374 346 370
3 372 376 373
3 343 376 372
3 343 347 376
3 347 377 376
3 377 347 348
3 378 377 348
3 349 379 380
3 350 349 380
3 375 349 345
3 379 349 375
3 348 351 378
3 378 351 381
3 382 383 384
3 382 380 383
3 382 352 380
3 352 350 380
3 351 354 381
3 381 354 385
3 382 384 386
3 386 352 382
3 386 387 352
3 387 355 352
3 354 388 385
3 356 388 354
3 388 356 357
3 389 388 357
3 355 387 358
3 387 390 358
3 360 391 392
3 359 391 360
3 389 357 360
3 392 389 360
3 358 390 393
3 361 358 393
3 393 362 361
3 394 362 393
3 364 363 395
3 364 395 396
3 364 396 359
3 359 396 391
3 362 394 397
3 365 362 397
3 366 365 398
3 365 397 398
3 367 366 399
3 366 398 399
3 368 367 400
3 367 399 400
3 395 363 368
3 395 368 401
3 401 368 400
3 396 395 401
3 369 402 370
3 369 371 403
3 402 369 403
3 371 373 403
3 374 404 405
3 375 374 405
3 402 374 370
3 402 406 374
3 406 404 374
3 403 406 402
3 407 406 403
3 373 407 403
3 373 376 407
3 376 408 407
3 409 410 408
3 409 408 377
3 377 408 376
3 377 378 409
3 379 411 412
3 380 379 412
3 405 379 375
3 411 379 405
3 409 413 410
3 413 409 378
3 413 378 414
3 414 378 381
3 383 415 384
3 383 416 415
3 383 380 416
3 380 412 416
3 417 385 418
3 417 414 385
3 414 381 385
3 417 418 419
3 384 415 386
3 415 387 386
3 415 416 387
3 416 420 387
3 385 388 418
3 418 388 389
3 418 389 419
3 419 389 421
3 387 420 390
3 420 422 390
3 392 423 424
3 391 423 392
3 421 389 392
3 424 421 392
3 390 422 425
3 393 390 425
3 425 394 393
3 426 394 425
3 391 396 423
3 423 396 427
3 394 426 428
3 397 394 428
3 398 397 429
3 397 428 429
3 430 429 431
3 430 399 429
3 399 398 429
3 432 399 430
3 432 433 399
3 433 400 399
3 401 400 434
3 400 433 434
3 427 396 401
3 434 427 401
3 430 431 435
3 432 430 435
3 404 436 437
3 405 404 437
3 406 438 404
3 404 438 436
3 407 439 406
3 406 439 438
3 408 440 407
3 407 440 439
3 440 408 410
3 441 440 410
3 411 442 443
3 412 411 443
3 437 411 405
3 442 411 437
3 410 444 441
3 413 444 410
3 444 413 414
3 445 444 414
3 412 443 416
3 443 446 416
3 414 447 445
3 417 447 414
3 447 417 419
3 448 447 419
3 416 446 420
3 446 449 420
3 419 421 448
3 448 421 450
3 420 449 422
3 449 451 422
3 424 452 453
3 423 452 424
3 450 421 424
3 453 450 424
3 454 425 422
3 454 422 455
3 455 422 451
3 425 454 426
3 423 427 452
3 452 427 456
3 454 455 457
3 426 454 457
3 426 457 428
3 428 457 458
3 459 458 460
3 459 429 458
3 429 428 458
3 429 459 431
3 433 432 461
3 462 433 461
3 462 463 433
3 463 434 433
3 456 427 434
3 463 456 434
3 459 460 464
3 431 459 464
3 431 464 435
3 435 464 465
3 461 432 435
3 461 435 466
3 466 435 465
3 462 461 466
3 436 467 468
3 437 436 468
3 438 469 436
3 436 469 467
3 439 470 438
3 438 470 469
3 440 471 439
3 439 471 470
3 471 440 441
3 472 471 441
3 442 473 474
3 443 442 474
3 468 442 437
3 473 442 468
3 441 475 472
3 444 475 441
3 475 444 445
3 476 475 445
3 443 474 446
3 474 477 446
3 445 478 476
3 447 478 445
3 478 447 448
3 479 478 448
3 446 477 449
3 477 480 449
3 448 450 479
3 479 450 481
3 449 480 451
3 480 482 451
3 453 483 484
3 452 483 453
3 481 450 453
3 484 481 453
3 451 482 455
3 482 485 455
3 452 456 483
3 483 456 486
3 455 485 487
3 457 455 487
3 488 487 489
3 488 458 487
3 458 457 487
3 458 488 460
3 463 490 491
3 462 490 463
3 486 456 463
3 491 486 463
3 488 489 492
3 460 488 492
3 460 492 464
3 464 492 493
3 465 464 494
3 464 493 494
3 466 465 495
3 465 494 495
3 490 462 466
3 495 490 466
3 467 496 468
3 497 496 467
3 497 467 498
3 498 467 469
3 470 499 469
3 469 499 498
3 471 500 470
3 470 500 499
3 500 471 472
3 501 500 472
3 473 502 474
3 473 503 502
3 468 503 473
3 468 504 503
3 468 496 504
3 497 504 496
3 472 505 501
3 475 505 472
3 505 475 476
3 506 505 476
3 502 507 508
3 502 508 474
3 474 508 477
3 503 507 502
3 476 509 506
3 478 509 476
3 509 478 479
3 510 509 479
3 477 508 480
3 508 511 480
3 479 481 510
3 510 481 512
3 480 511 482
3 511 513 482
3 484 514 515
3 483 514 484
3 512 481 484
3 515 512 484
3 482 513 485
3 513 516 485
3 483 486 514
3 514 486 517
3 485 516 518
3 487 485 518
3 518 489 487
3 519 489 518
3 491 490 520
3 491 520 521
3 491 521 486
3 486 521 517
3 489 519 522
3 492 489 522
3 493 492 523
3 492 522 523
3 494 493 524
3 493 523 524
3 495 494 525
3 494 524 525
3 520 490 495
3 520 495 526
3 526 495 525
3 521 520 526
3 498 527 528
3 497 498 528
3 499 529 498
3 498 529 527
3 500 530 499
3 499 530 529
3 530 500 501
3 531 530 501
3 504 532 533
3 503 504 533
3 528 504 497
3 532 504 528
3 501 534 531
3 505 534 501
3 534 505 506
3 535 534 506
3 507 536 537
3 508 507 537
3 533 507 503
3 536 507 533
3 538 506 509
3 538 539 506
3 539 535 506
3 509 510 538
3 508 537 511
3 537 540 511
3 538 541 539
3 541 538 510
3 541 510 542
3 542 510 512
3 511 540 513
3 540 543 513
3 515 514 544
3 515 544 545
3 515 545 512
3 512 545 542
3 513 543 516
3 543 546 516
3 544 547 548
3 544 514 547
3 514 517 547
3 545 544 548
3 516 546 549
3 518 516 549
3 549 519 518
3 550 519 549
3 517 521 547
3 547 521 551
3 519 550 552
3 522 519 552
3 523 522 553
3 522 552 553
3 524 523 554
3 523 553 554
3 525 524 555
3 524 554 555
3 526 525 556
3 525 555 556
3 551 521 526
3 556 551 526
3 527 557 558
3 528 527 558
3 529 559 527
3 527 559 557
3 560 561 559
3 560 559 530
3 530 559 529
3 530 531 560
3 532 562 563
3 533 532 563
3 558 532 528
3 562 532 558
3 560 564 561
3 531 564 560
3 531 534 564
3 534 565 564
3 565 534 535
3 566 565 535
3 536 567 537
3 536 568 567
3 536 533 568
3 533 563 568
3 535 539 566
3 566 539 569
3 567 570 571
3 567 571 537
3 537 571 540
3 568 570 567
3 539 572 569
3 541 572 539
3 572 541 542
3 573 572 542
3 540 571 543
3 571 574 543
3 575 576 577
3 575 577 573
3 575 573 545
3 545 573 542
3 578 579 546
3 578 546 574
3 574 546 543
3 578 580 579
3 548 576 575
3 548 547 576
3 547 581 576
3 545 548 575
3 546 579 549
3 579 550 549
3 579 580 550
3 580 582 550
3 547 551 581
3 581 551 583
3 550 582 584
3 552 550 584
3 553 552 585
3 552 584 585
3 554 553 586
3 553 585 586
3 555 554 587
3 554 586 587
3 556 555 588
3 555 587 588
3 583 551 556
3 588 583 556
3 557 589 558
3 557 559 590
3 589 557 590
3 559 561 590
3 562 591 592
3 563 562 592
3 589 562 558
3 589 593 562
3 593 591 562
3 590 593 589
3 594 593 590
3 561 594 590
3 561 564 594
3 564 595 594
3 596 597 595
3 596 595 565
3 565 595 564
3 565 566 596
3 563 592 568
3 592 598 568
3 596 599 597
3 599 596 566
3 599 566 600
3 600 566 569
3 570 601 602
3 571 570 602
3 598 570 568
3 601 570 598
3 603 569 572
3 603 604 569
3 604 600 569
3 572 573 603
3 571 602 574
3 602 605 574
3 577 604 603
3 577 576 604
3 576 606 604
3 573 577 603
3 607 578 574
3 607 574 608
3 608 574 605
3 578 607 580
3 576 581 606
3 606 581 609
3 607 608 610
3 610 580 607
3 610 611 580
3 611 582 580
3 581 583 609
3 609 583 612
3 582 611 613
3 584 582 613
3 585 584 614
3 584 613 614
3 586 585 615
3 585 614 615
3 587 586 616
3 586 615 616
3 588 587 617
3 587 616 617
3 612 583 588
3 617 612 588
3 591 618 592
3 619 618 591
3 619 591 620
3 620 591 593
3 594 621 593
3 593 621 620
3 595 622 594
3 594 622 621
3 622 595 597
3 623 622 597
3 618 624 625
3 618 625 592
3 592 625 598
3 619 624 618
3 597 626 623
3 599 626 597
3 626 599 600
3 627 626 600
3 601 628 602
3 601 629 628
3 601 598 629
3 598 625 629
3 600 604 627
3 627 604 630
3 628 631 632
3 628 632 602
3 602 632 605
3 629 631 628
3 604 606 630
3 630 606 633
3 605 632 608
3 632 634 608
3 606 609 633
3 633 609 635
3 608 634 636
3 610 608 636
3 636 611 610
3 637 611 636
3 609 612 635
3 635 612 638
3 611 637 639
3 613 611 639
3 640 639 641
3 640 614 639
3 614 613 639
3 614 642 615
3 640 642 614
3 643 615 642
3 643 644 615
3 644 616 615
3 617 616 645
3 616 644 645
3 638 612 617
3 645 638 617
3 640 641 646
3 642 640 646
3 647 642 646
3 643 642 647
3 620 648 649
3 619 620 649
3 621 650 620
3 620 650 648
3 651 652 650
3 651 650 622
3 622 650 621
3 622 623 651
3 624 653 654
3 625 624 654
3 649 624 619
3 653 624 649
3 651 655 652
3 623 655 651
3 623 626 655
3 626 656 655
3 656 626 627
3 657 656 627
3 625 654 629
3 654 658 629
3 627 630 657
3 657 630 659
3 631 660 632
3 631 661 660
3 631 629 661
3 629 658 661
3 630 633 659
3 659 633 662
3 660 663 634
3 632 660 634
3 664 660 661
3 663 660 664
3 633 635 662
3 662 635 665
3 634 663 636
3 663 637 636
3 663 664 637
3 664 666 637
3 667 668 669
3 667 669 665
3 667 665 638
3 638 665 635
3 637 666 670
3 639 637 670
3 670 641 639
3 671 641 670
3 644 672 673
3 643 672 644
3 668 667 645
3 668 645 673
3 673 645 644
3 638 645 667
3 641 671 674
3 646 641 674
3 647 646 675
3 646 674 675
3 672 643 647
3 675 672 647
3 648 676 649
3 648 650 677
3 676 648 677
3 650 652 677
3 653 678 654
3 653 679 678
3 649 679 653
3 649 680 679
3 649 676 680
3 677 680 676
3 681 680 677
3 652 681 677
3 652 655 681
3 655 682 681
3 683 684 682
3 683 682 656
3 656 682 655
3 656 657 683
3 678 685 686
3 678 686 654
3 654 686 658
3 679 685 678
3 683 687 684
3 687 683 657
3 687 657 688
3 688 657 659
3 658 686 661
3 686 689 661
3 659 662 688
3 688 662 690
3 661 689 664
3 689 691 664
3 662 665 690
3 690 665 692
3 664 691 666
3 691 693 666
3 669 694 695
3 668 694 669
3 692 665 669
3 695 692 669
3 666 693 696
3 670 666 696
3 696 671 670
3 697 671 696
3 673 672 698
3 673 698 699
3 673 699 668
3 668 699 694
3 671 697 700
3 674 671 700
3 675 674 701
3 674 700 701
3 698 672 675
3 698 675 702
3 702 675 701
3 699 698 702
3 680 703 704
3 679 680 704
3 681 705 680
3 680 705 703
3 682 706 681
3 681 706 705
3 706 682 684
3 707 706 684
3 685 708 709
3 686 685 709
3 704 685 679
3 708 685 704
3 684 710 707
3 687 710 684
3 710 687 688
3 711 710 688
3 686 709 689
3 709 712 689
3 688 690 711
3 711 690 713
3 689 712 691
3 712 714 691
3 690 692 713
3 713 692 715
3 691 714 693
3 714 716 693
3 695 694 717
3 695 717 718
3 695 718 692
3 692 718 715
3 693 716 719
3 696 693 719
3 719 697 696
3 720 697 719
3 717 721 722
3 717 694 721
3 694 699 721
3 718 717 722
3 697 720 723
3 700 697 723
3 701 700 724
3 700 723 724
3 702 701 725
3 701 724 725
3 721 699 702
3 725 721 702
3 703 726 704
3 727 726 703
3 727 703 728
3 728 703 705
3 729 730 728
3 729 728 706
3 706 728 705
3 706 707 729
3 708 731 732
3 709 708 732
3 726 708 704
3 726 733 708
3 733 731 708
3 727 733 726
3 729 734 730
3 735 736 734
3 710 735 734
3 710 734 729
3 710 729 707
3 710 711 735
3 709 732 712
3 732 737 712
3 735 738 736
3 738 735 711
3 738 711 739
3 739 711 713
3 712 737 714
3 737 740 714
3 713 715 739
3 739 715 741
3 714 740 716
3 740 742 716
3 715 718 741
3 741 718 743
3 716 742 744
3 719 716 744
3 744 720 719
3 745 720 744
3 722 746 747
3 721 746 722
3 743 718 722
3 747 743 722
3 720 745 748
3 723 720 748
3 724 723 749
3 723 748 749
3 725 724 750
3 724 749 750
3 746 721 725
3 750 746 725
3 728 751 727
3 728 730 751
3 731 752 732
3 753 752 731
3 753 731 754
3 754 731 733
3 751 733 727
3 751 755 733
3 755 754 733
3 730 755 751
3 730 734 755
3 734 756 755
3 756 734 736
3 757 756 736
3 752 758 759
3 752 759 732
3 732 759 737
3 753 758 752
3 736 760 757
3 738 760 736
3 760 738 739
3 761 760 739
3 737 759 740
3 759 762 740
3 739 741 761
3 761 741 763
3 740 762 742
3 762 764 742
3 765 766 767
3 765 767 763
3 765 763 743
3 743 763 741
3 742 764 768
3 744 742 768
3 768 745 744
3 769 745 768
3 747 766 765
3 747 746 766
3 746 770 766
3 743 747 765
3 745 769 771
3 748 745 771
3 749 748 772
3 748 771 772
3 750 749 773
3 749 772 773
3 770 746 750
3 773 770 750
3 754 774 775
3 753 754 775
3 755 776 754
3 754 776 774
3 756 777 755
3 755 777 776
3 777 756 757
3 778 777 757
3 758 779 759
3 758 780 779
3 758 753 780
3 753 775 780
3 781 757 760
3 781 782 757
3 782 778 757
3 760 761 781
3 779 783 784
3 779 784 759
3 759 784 762
3 780 783 779
3 781 785 782
3 785 781 761
3 785 761 786
3 786 761 763
3 762 784 764
3 784 787 764
3 767 788 789
3 766 788 767
3 786 763 767
3 789 786 767
3 764 787 790
3 768 764 790
3 790 769 768
3 791 769 790
3 766 770 788
3 788 770 792
3 769 791 793
3 771 769 793
3 772 771 794
3 771 793 794
3 773 772 795
3 772 794 795
3 792 770 773
3 795 792 773
3 774 796 775
3 774 776 797
3 796 774 797
3 776 777 798
3 797 776 798
3 777 778 798
3 796 799 800
3 796 800 775
3 775 800 780
3 797 799 796
3 801 799 797
3 798 801 797
3 802 801 798
3 802 798 778
3 802 778 803
3 803 778 782
3 783 804 784
3 783 805 804
3 783 780 805
3 780 800 805
3 806 782 785
3 806 807 782
3 807 803 782
3 785 786 806
3 804 808 787
3 784 804 787
3 809 804 805
3 808 804 809
3 789 807 806
3 789 788 807
3 788 810 807
3 786 789 806
3 787 808 790
3 808 791 790
3 808 809 791
3 809 811 791
3 812 813 814
3 812 814 810
3 812 810 792
3 792 810 788
3 791 811 815
3 793 791 815
3 794 793 816
3 793 815 816
3 813 812 795
3 813 795 816
3 816 795 794
3 792 795 812
3 799 817 800
3 799 801 818
3 817 799 818
3 801 802 819
3 818 801 819
3 802 803 819
3 817 820 805
3 800 817 805
3 818 821 817
3 821 820 817
3 819 822 818
3 822 821 818
3 803 807 822
3 819 803 822
3 820 823 809
3 805 820 809
3 821 824 820
3 824 823 820
3 822 825 821
3 825 824 821
3 807 810 825
3 822 807 825
3 823 826 811
3 809 823 811
3 824 827 823
3 827 826 823
3 814 813 827
3 814 827 825
3 825 827 824
3 810 814 825
3 811 826 815
3 816 815 826
3 827 816 826
3 813 816 827
