ply
format ascii 1.0
comment Created by Blender 2.79 (sub 4) - www.blender.org, source file: 'tap_new_version.blend'
element vertex 770
property float x
property float y
property float z
element face 1536
property list uchar int vertex_indices
end_header
-0.028961 -0.271584 0.210052
-0.029739 -0.273880 0.211347
-0.031360 -0.272028 0.211799
-0.008323 -0.268824 0.210452
-0.009112 -0.272597 0.212025
-0.005610 -0.271925 0.212533
-0.028465 -0.250598 0.209969
-0.031022 -0.249728 0.212256
-0.008520 -0.250482 0.204200
0.013450 -0.261492 0.213192
0.013470 -0.248135 0.209474
0.021206 -0.251022 0.211916
-0.028632 -0.247378 0.211602
-0.008809 -0.233024 0.212651
0.011022 -0.239928 0.209998
-0.033310 -0.290525 0.225711
-0.028808 -0.305761 0.232801
-0.035922 -0.290239 0.228148
-0.008520 -0.290369 0.223486
-0.008737 -0.307195 0.233551
0.012628 -0.291508 0.229202
0.012463 -0.293815 0.230858
0.020623 -0.292190 0.232814
-0.044130 -0.270426 0.231964
0.010811 -0.268406 0.217169
0.031512 -0.286373 0.232460
0.031367 -0.270426 0.222223
0.047918 -0.270544 0.232701
-0.039060 -0.250482 0.231964
0.031578 -0.250161 0.215045
0.045039 -0.250482 0.231964
-0.028814 -0.235733 0.231713
-0.008146 -0.231236 0.214473
-0.018409 -0.229079 0.232253
0.011257 -0.228858 0.222886
0.028582 -0.231141 0.231981
0.030659 -0.232772 0.231949
-0.011701 -0.225157 0.231896
0.011456 -0.225070 0.227507
-0.027816 -0.310089 0.242760
-0.028276 -0.312851 0.251185
-0.031161 -0.310588 0.250187
-0.008314 -0.308733 0.235333
-0.008520 -0.319132 0.251908
0.013822 -0.312401 0.248350
0.013450 -0.313194 0.250785
0.019890 -0.310352 0.250494
-0.040569 -0.290369 0.251908
0.032066 -0.288674 0.234513
0.031933 -0.306514 0.252486
0.048178 -0.289769 0.252499
-0.042894 -0.270426 0.251908
0.050835 -0.270669 0.242174
0.050477 -0.279330 0.249710
0.053139 -0.272121 0.250396
-0.039147 -0.250482 0.251908
0.047470 -0.252089 0.251713
0.049980 -0.261286 0.252317
-0.027649 -0.232822 0.252255
-0.025344 -0.230553 0.253012
0.029555 -0.229483 0.250627
0.033064 -0.232226 0.252265
-0.008520 -0.221321 0.251908
0.011424 -0.221289 0.251908
-0.029030 -0.307786 0.262401
-0.018785 -0.311038 0.270685
-0.010306 -0.314489 0.272492
0.015131 -0.314510 0.271896
0.020541 -0.312429 0.271588
-0.027452 -0.306458 0.270538
-0.037805 -0.290369 0.271851
0.032962 -0.306926 0.272084
0.044680 -0.290369 0.271851
-0.042367 -0.270426 0.271851
0.050374 -0.272966 0.262936
0.048690 -0.269796 0.270220
-0.041033 -0.250482 0.271851
0.045284 -0.250482 0.271851
-0.029397 -0.232374 0.261575
-0.030563 -0.230223 0.272216
0.029431 -0.228921 0.254262
0.033918 -0.230071 0.271571
-0.028010 -0.227858 0.271616
-0.007942 -0.215277 0.272474
0.011161 -0.215664 0.272303
0.031824 -0.227840 0.272114
-0.008606 -0.310929 0.291670
-0.011027 -0.310494 0.290792
0.009513 -0.310324 0.288481
0.001004 -0.310295 0.293524
-0.028463 -0.306240 0.291795
-0.045344 -0.288188 0.293723
0.011847 -0.309442 0.291462
0.036287 -0.297092 0.291735
0.037529 -0.295794 0.291855
-0.048808 -0.269970 0.288311
-0.046727 -0.280683 0.290707
-0.049988 -0.269101 0.291537
0.048990 -0.270992 0.291227
-0.048359 -0.252982 0.290386
-0.047772 -0.249408 0.291205
0.050429 -0.250236 0.291623
-0.039397 -0.230539 0.291795
0.042688 -0.230539 0.291795
-0.028051 -0.216480 0.292155
-0.009623 -0.210951 0.282423
-0.017361 -0.210442 0.291171
0.012014 -0.210681 0.282643
0.020511 -0.210738 0.290336
0.031067 -0.215907 0.292618
-0.009905 -0.206706 0.290180
0.013399 -0.206596 0.291073
-0.028589 -0.310657 0.308367
-0.025998 -0.311757 0.310378
-0.030520 -0.309755 0.310136
-0.008520 -0.312140 0.311738
0.007816 -0.310524 0.312432
-0.046295 -0.292685 0.302117
-0.049257 -0.292989 0.311921
-0.050925 -0.290061 0.311843
0.011514 -0.309895 0.311016
0.031367 -0.305388 0.311738
0.047538 -0.289286 0.311658
-0.054944 -0.270426 0.311738
0.051541 -0.281529 0.312759
0.052775 -0.268316 0.301183
0.053841 -0.272270 0.309382
-0.049303 -0.252133 0.294217
-0.052113 -0.249722 0.311752
0.051443 -0.250915 0.294821
0.054965 -0.248888 0.311653
-0.047889 -0.240014 0.311725
-0.044097 -0.232116 0.311740
0.047485 -0.231223 0.311589
0.051669 -0.240115 0.311990
-0.029526 -0.210951 0.308792
-0.030330 -0.210910 0.311749
0.031045 -0.209663 0.308788
0.033655 -0.211245 0.310959
-0.027509 -0.208719 0.311291
-0.008520 -0.200625 0.311738
0.011424 -0.200948 0.311738
0.030842 -0.208762 0.311957
-0.030284 -0.309166 0.321673
-0.019343 -0.310114 0.331752
-0.007085 -0.311135 0.329581
0.013511 -0.310263 0.321684
0.010610 -0.310802 0.328279
0.014347 -0.310361 0.330642
-0.048544 -0.293265 0.331587
-0.050245 -0.290400 0.331798
-0.026467 -0.309297 0.328807
0.031367 -0.308014 0.331682
0.049546 -0.290961 0.332045
-0.052946 -0.270426 0.331682
0.051647 -0.287762 0.330995
0.055837 -0.270426 0.331682
-0.049968 -0.251801 0.333485
0.053730 -0.247330 0.331311
-0.047417 -0.239817 0.332342
-0.045839 -0.233023 0.331419
0.049356 -0.229775 0.330876
0.052812 -0.241406 0.331723
-0.033004 -0.207894 0.331691
0.036142 -0.207887 0.331565
-0.031666 -0.206666 0.331672
-0.008520 -0.197140 0.331682
0.011424 -0.197398 0.331682
0.034689 -0.206453 0.331802
-0.008284 -0.309629 0.343095
0.010162 -0.309794 0.341996
-0.047621 -0.292103 0.351550
-0.049549 -0.288655 0.351714
-0.028463 -0.306450 0.351625
-0.008335 -0.309234 0.347851
0.011745 -0.309252 0.349546
0.031367 -0.307483 0.351625
0.052554 -0.288130 0.341884
0.050724 -0.293157 0.350829
0.052765 -0.289838 0.351440
-0.049829 -0.268362 0.352078
0.056231 -0.270426 0.351625
-0.049364 -0.261569 0.350900
-0.048654 -0.248850 0.341365
-0.047763 -0.248278 0.352996
0.054793 -0.250482 0.351625
-0.047909 -0.230050 0.351041
0.051658 -0.229118 0.342709
0.053958 -0.231196 0.350112
-0.035150 -0.205897 0.351609
0.046039 -0.212893 0.352032
0.049580 -0.220289 0.350703
-0.034068 -0.204723 0.351643
-0.008677 -0.193703 0.350883
0.011697 -0.193778 0.349718
0.031367 -0.199107 0.351625
-0.047504 -0.291928 0.371418
-0.049547 -0.288402 0.371759
-0.028463 -0.306414 0.371569
-0.008520 -0.308988 0.371569
0.011424 -0.308627 0.371569
0.031367 -0.306674 0.371569
0.051839 -0.293546 0.371554
0.053587 -0.291014 0.371586
-0.051343 -0.270426 0.371569
0.059039 -0.270426 0.371569
-0.048252 -0.250419 0.355520
-0.051366 -0.250482 0.371569
0.059725 -0.250482 0.371569
-0.048802 -0.231538 0.354226
-0.051497 -0.228822 0.371232
0.059849 -0.230539 0.371569
-0.049835 -0.220467 0.372027
-0.046260 -0.210277 0.372697
0.051991 -0.210623 0.368796
0.053148 -0.211267 0.371545
-0.027279 -0.192212 0.370799
-0.008370 -0.189237 0.362208
-0.025169 -0.190470 0.372709
0.011101 -0.188174 0.363007
0.029670 -0.190304 0.369393
0.033291 -0.191629 0.371467
0.050908 -0.208177 0.371192
-0.008522 -0.186691 0.368324
0.011496 -0.186126 0.367848
0.029878 -0.189070 0.373554
-0.048594 -0.293280 0.391341
-0.050477 -0.290600 0.391714
-0.028463 -0.307552 0.391512
-0.008520 -0.310059 0.391512
0.011424 -0.309600 0.391512
0.031367 -0.306527 0.391512
0.051909 -0.293601 0.391508
0.053804 -0.291175 0.391518
-0.055292 -0.270426 0.391512
0.061218 -0.270426 0.391512
-0.056484 -0.250482 0.391512
0.065452 -0.250482 0.391512
-0.056348 -0.230539 0.391512
0.065822 -0.230539 0.391512
-0.047750 -0.210081 0.381588
-0.050471 -0.210912 0.390781
0.055458 -0.207202 0.391540
-0.048564 -0.207750 0.390760
-0.030030 -0.191621 0.382093
-0.030994 -0.190199 0.390691
0.035739 -0.188630 0.391348
0.054740 -0.205832 0.391481
-0.028014 -0.188449 0.390393
-0.008520 -0.182709 0.391512
0.011424 -0.181811 0.391512
0.033884 -0.187776 0.391667
-0.049260 -0.293748 0.411337
-0.051015 -0.291484 0.411587
-0.028463 -0.306701 0.411456
-0.008520 -0.309635 0.411456
0.011424 -0.310047 0.411456
0.031367 -0.307498 0.411456
0.052191 -0.293867 0.411469
0.054041 -0.291664 0.411442
-0.058340 -0.270426 0.411456
0.062538 -0.270426 0.411456
-0.061050 -0.250482 0.411456
0.070149 -0.247832 0.411590
-0.059916 -0.230539 0.411456
0.070932 -0.240933 0.410903
0.070891 -0.228964 0.408849
0.072311 -0.231273 0.413320
-0.051402 -0.208157 0.411476
0.061825 -0.210595 0.411456
0.071536 -0.228507 0.412404
-0.050369 -0.206273 0.411433
-0.033098 -0.188228 0.411526
0.041265 -0.190671 0.411326
0.049975 -0.196610 0.411530
-0.031422 -0.187482 0.411389
-0.008520 -0.181113 0.411456
0.011424 -0.181114 0.411456
0.033323 -0.185433 0.411538
-0.047358 -0.292439 0.431619
-0.050101 -0.289474 0.431152
-0.028463 -0.303738 0.431399
-0.008520 -0.307418 0.431399
0.011424 -0.308609 0.431399
0.031367 -0.305730 0.431399
0.051208 -0.292269 0.430943
0.053415 -0.289522 0.431381
-0.059023 -0.270426 0.431399
0.061305 -0.270426 0.431399
-0.064711 -0.250482 0.431399
0.069941 -0.250628 0.431544
-0.063981 -0.230539 0.431399
0.072029 -0.242546 0.431138
0.071929 -0.232878 0.431485
-0.056128 -0.210595 0.431399
0.063981 -0.210595 0.431399
0.072422 -0.224803 0.431416
-0.047356 -0.193997 0.431322
-0.045738 -0.192162 0.431474
0.049639 -0.190015 0.429064
0.052801 -0.192804 0.430666
-0.028463 -0.178839 0.431399
-0.007956 -0.174392 0.433347
0.011465 -0.175382 0.433442
0.031367 -0.180035 0.431399
-0.049496 -0.289770 0.434361
-0.042161 -0.290739 0.451153
-0.028463 -0.300038 0.451343
-0.008520 -0.305429 0.451343
0.011424 -0.306769 0.451343
0.031367 -0.303301 0.451343
0.049611 -0.291454 0.442188
0.049386 -0.289900 0.450761
-0.050445 -0.279388 0.451523
-0.054878 -0.273564 0.451284
0.051761 -0.287311 0.450010
0.059934 -0.270426 0.451343
-0.067082 -0.248856 0.450918
0.067793 -0.250482 0.451343
-0.068665 -0.231796 0.448638
-0.068397 -0.240955 0.453160
-0.069272 -0.230128 0.453124
0.071373 -0.232760 0.451457
0.071748 -0.230623 0.449952
-0.067988 -0.227540 0.450715
-0.057760 -0.210595 0.451343
0.065004 -0.210595 0.451343
0.071087 -0.228637 0.451414
-0.047513 -0.193965 0.451458
-0.045688 -0.191794 0.451246
0.049790 -0.188742 0.443292
0.053693 -0.191534 0.449256
-0.027353 -0.175133 0.451493
-0.009211 -0.171712 0.441214
-0.018345 -0.171122 0.451653
0.010229 -0.172052 0.440845
0.022559 -0.172505 0.451089
0.028666 -0.175142 0.451701
0.051056 -0.188916 0.449811
-0.008685 -0.167819 0.450722
0.010741 -0.167503 0.452647
-0.031255 -0.294095 0.471213
-0.032883 -0.293080 0.471365
-0.008520 -0.304485 0.471286
0.011424 -0.305316 0.471286
0.031367 -0.300543 0.471286
0.045431 -0.290618 0.471294
-0.050402 -0.274292 0.471271
-0.051816 -0.272256 0.471300
0.053151 -0.279628 0.471201
0.057394 -0.273705 0.471365
-0.066894 -0.247649 0.470865
0.067820 -0.250482 0.471286
-0.068181 -0.240993 0.471839
-0.069238 -0.230900 0.470377
0.071206 -0.232591 0.470952
0.071607 -0.230965 0.472889
-0.068402 -0.228373 0.471042
-0.059291 -0.210595 0.471286
0.067646 -0.210595 0.471286
0.071267 -0.228521 0.471203
-0.049346 -0.192879 0.471431
-0.046537 -0.189490 0.471389
0.054736 -0.188961 0.471083
-0.027421 -0.172513 0.469707
-0.024840 -0.170683 0.470677
0.028713 -0.171571 0.469666
0.031727 -0.172876 0.470738
0.053079 -0.186909 0.471476
-0.008520 -0.165307 0.471286
0.011424 -0.165469 0.471286
-0.027691 -0.292232 0.490828
-0.030734 -0.290050 0.491010
-0.008520 -0.301869 0.491230
0.011424 -0.303112 0.491230
0.032264 -0.296254 0.491215
0.039738 -0.290060 0.491261
-0.047159 -0.272881 0.491522
-0.050009 -0.269586 0.490759
0.051268 -0.278818 0.491170
0.057733 -0.271398 0.491279
-0.063708 -0.250482 0.491230
0.069646 -0.249717 0.491276
-0.067758 -0.228545 0.481148
-0.067714 -0.230749 0.490050
0.071794 -0.242616 0.491109
0.072174 -0.229262 0.491201
-0.062022 -0.210595 0.491230
0.070118 -0.209481 0.491075
0.072285 -0.219043 0.491524
-0.048362 -0.191036 0.474413
-0.051432 -0.188431 0.491269
0.062277 -0.190652 0.491230
-0.050074 -0.186522 0.491189
-0.030557 -0.170591 0.483043
-0.031909 -0.169273 0.489653
0.028323 -0.168332 0.480543
0.042401 -0.172242 0.492016
0.048756 -0.176244 0.491289
-0.029800 -0.168203 0.489514
-0.008520 -0.163534 0.491230
0.011424 -0.163678 0.491230
0.032354 -0.167518 0.488993
-0.027810 -0.289931 0.503056
-0.025242 -0.289793 0.510608
-0.008520 -0.298388 0.511173
0.011424 -0.299777 0.511173
0.031427 -0.292077 0.511552
0.034639 -0.290085 0.512335
-0.049954 -0.268215 0.501651
-0.046382 -0.271685 0.510269
-0.027908 -0.287962 0.510970
0.053627 -0.274271 0.511069
0.055124 -0.272485 0.511274
-0.048910 -0.268517 0.510827
-0.060511 -0.250482 0.511173
0.069691 -0.249145 0.511150
-0.065113 -0.230539 0.511173
0.071545 -0.243106 0.511178
0.072000 -0.227314 0.511190
-0.061765 -0.210595 0.511173
0.070427 -0.208511 0.511200
0.072124 -0.219477 0.511158
-0.053179 -0.188912 0.511136
0.065552 -0.190652 0.511173
-0.049677 -0.182544 0.511194
-0.036964 -0.169127 0.511201
0.050685 -0.170456 0.508380
0.052890 -0.171849 0.511213
-0.031731 -0.164503 0.511158
-0.008520 -0.160661 0.511173
0.011424 -0.160886 0.511173
0.031367 -0.162325 0.511173
0.049624 -0.169243 0.512042
-0.007844 -0.292560 0.529464
-0.011348 -0.291534 0.529153
0.011606 -0.294299 0.534935
0.029491 -0.291447 0.520413
0.028615 -0.289988 0.531457
-0.028463 -0.282106 0.531117
-0.042832 -0.271054 0.531142
0.031602 -0.288845 0.531242
0.054649 -0.274954 0.531060
0.056139 -0.273502 0.531174
-0.050527 -0.259729 0.531022
-0.054439 -0.253802 0.531191
0.070012 -0.247605 0.531057
-0.062834 -0.230539 0.531117
0.071025 -0.241803 0.531196
0.071933 -0.230535 0.530752
-0.062687 -0.210595 0.531117
0.070073 -0.213481 0.531069
0.070834 -0.219344 0.531317
-0.053618 -0.188578 0.531062
0.065163 -0.190652 0.531117
-0.050618 -0.182805 0.531191
-0.036712 -0.168198 0.531064
0.053601 -0.171068 0.530900
-0.031999 -0.164116 0.531153
-0.008294 -0.154694 0.534866
0.011785 -0.154483 0.532086
0.031367 -0.158478 0.531117
0.050926 -0.168509 0.531337
-0.009416 -0.287971 0.542253
0.010840 -0.292593 0.539623
-0.028463 -0.280299 0.551060
-0.043192 -0.269135 0.551088
-0.008292 -0.287203 0.547635
0.011801 -0.288048 0.553205
0.031367 -0.284196 0.551060
0.054557 -0.274398 0.551049
0.055986 -0.272997 0.551071
-0.048250 -0.260157 0.550991
-0.052789 -0.252325 0.551111
0.069849 -0.247901 0.550995
-0.061646 -0.230539 0.551060
0.070884 -0.240559 0.551162
0.071850 -0.228622 0.551335
-0.066478 -0.210595 0.551060
0.070450 -0.212105 0.551083
0.071245 -0.220475 0.550860
-0.058789 -0.190652 0.551060
0.066594 -0.190652 0.551060
-0.048694 -0.177532 0.551113
-0.037601 -0.168272 0.550953
0.054464 -0.169462 0.550834
-0.032108 -0.163499 0.551138
-0.009307 -0.153538 0.539726
-0.011205 -0.149372 0.553267
0.009805 -0.150459 0.540297
0.022442 -0.149247 0.551848
0.032275 -0.153286 0.551621
0.052611 -0.167289 0.551269
-0.007946 -0.148341 0.553110
0.013814 -0.147767 0.549659
-0.028463 -0.281424 0.571004
-0.043671 -0.268233 0.570353
-0.008520 -0.285732 0.571004
0.011424 -0.285641 0.571004
0.031367 -0.282460 0.571004
0.054183 -0.274084 0.570978
0.055776 -0.272714 0.571028
-0.046954 -0.260464 0.572011
-0.051253 -0.251477 0.572072
0.069529 -0.246794 0.571000
-0.059796 -0.230539 0.571004
0.070590 -0.242611 0.571053
0.072227 -0.227776 0.570936
-0.064400 -0.210595 0.571004
0.071226 -0.207933 0.568025
0.071450 -0.211608 0.569431
-0.055925 -0.187308 0.570934
0.070377 -0.190652 0.571004
0.071263 -0.207809 0.572005
-0.052612 -0.183007 0.571088
-0.035967 -0.166632 0.570960
0.057512 -0.165440 0.571003
-0.031788 -0.163465 0.571034
-0.011974 -0.150858 0.573185
0.030897 -0.150312 0.560944
0.035378 -0.150421 0.570289
0.057133 -0.164735 0.571005
-0.008516 -0.149578 0.572660
0.011424 -0.145693 0.571004
0.032474 -0.149374 0.571087
-0.030893 -0.274215 0.591003
-0.032643 -0.272754 0.590895
-0.008520 -0.285250 0.590947
0.011424 -0.285354 0.590947
0.031367 -0.282587 0.590947
0.053357 -0.272709 0.593452
0.055368 -0.272342 0.589680
-0.049452 -0.250237 0.580212
-0.045201 -0.251958 0.590549
0.067710 -0.250482 0.590947
-0.050563 -0.239681 0.591714
-0.053476 -0.233339 0.590938
0.071359 -0.230218 0.587740
0.071089 -0.230689 0.591199
-0.058077 -0.210595 0.590947
0.071218 -0.212125 0.580534
0.070950 -0.210108 0.589562
-0.053810 -0.190064 0.590870
0.069985 -0.190652 0.590947
-0.048643 -0.182546 0.591025
-0.036722 -0.169382 0.590906
0.063368 -0.170708 0.590947
-0.030670 -0.163166 0.590979
-0.009700 -0.151855 0.591565
-0.006762 -0.149707 0.579210
-0.005875 -0.150352 0.593901
0.034293 -0.150809 0.590956
0.051311 -0.158233 0.590947
0.011424 -0.147827 0.590947
0.030778 -0.149824 0.590939
-0.030090 -0.269044 0.608669
-0.026357 -0.271970 0.610650
-0.008520 -0.281927 0.610891
0.011424 -0.283182 0.610891
0.031367 -0.279477 0.610891
0.048979 -0.273739 0.602123
0.049148 -0.269662 0.612843
-0.029327 -0.268949 0.612427
-0.040804 -0.250482 0.610891
0.052228 -0.267623 0.611148
0.064576 -0.250482 0.610891
-0.047904 -0.233304 0.611847
-0.049398 -0.229708 0.610197
0.070270 -0.230539 0.610891
-0.053499 -0.210595 0.610891
0.070299 -0.210595 0.610891
-0.050305 -0.189172 0.610756
0.068096 -0.190652 0.610891
-0.049597 -0.186824 0.611046
-0.040359 -0.170708 0.610891
0.056533 -0.166311 0.610888
-0.025714 -0.154139 0.612534
-0.008953 -0.151143 0.594491
-0.018250 -0.151942 0.609886
0.034180 -0.150845 0.610829
0.055685 -0.165209 0.610894
-0.008778 -0.147795 0.611010
0.011424 -0.145855 0.610891
0.030575 -0.149642 0.610951
-0.011930 -0.275736 0.630921
-0.018294 -0.272384 0.630454
0.011424 -0.278601 0.630834
0.031676 -0.272040 0.630192
0.034431 -0.269974 0.632085
-0.029276 -0.265753 0.631156
-0.040369 -0.250482 0.630834
0.055126 -0.255433 0.630694
0.055862 -0.254040 0.630979
-0.048675 -0.229471 0.613661
-0.045402 -0.230539 0.630834
0.069345 -0.230539 0.630834
-0.048134 -0.213472 0.632246
-0.049021 -0.210504 0.629144
0.070075 -0.210595 0.630834
-0.049147 -0.192419 0.629446
0.067511 -0.190652 0.630834
-0.048322 -0.188449 0.629777
-0.043667 -0.170708 0.630834
0.055974 -0.167070 0.630820
-0.031204 -0.153065 0.622087
-0.031040 -0.149805 0.630806
0.034769 -0.150145 0.630781
0.055111 -0.165779 0.630850
-0.028655 -0.148131 0.630757
-0.008520 -0.144806 0.630834
0.011424 -0.144050 0.630834
0.031800 -0.148973 0.630887
-0.008057 -0.269452 0.647335
0.010958 -0.271141 0.648511
0.030641 -0.271230 0.633493
-0.032168 -0.255072 0.650724
-0.033233 -0.253862 0.650832
-0.008830 -0.268320 0.649726
0.011742 -0.269633 0.651934
0.031367 -0.262859 0.650778
0.050865 -0.252464 0.648952
0.053535 -0.249600 0.650025
-0.044836 -0.230539 0.650778
0.066252 -0.230539 0.650778
-0.048360 -0.209420 0.633053
-0.044614 -0.210595 0.650778
0.068845 -0.210595 0.650778
-0.048201 -0.190261 0.633609
-0.044988 -0.190652 0.650778
0.066437 -0.190652 0.650778
-0.043254 -0.170708 0.650778
0.055289 -0.167881 0.650730
-0.031999 -0.150005 0.650775
0.034754 -0.150060 0.650740
0.054208 -0.166202 0.650828
-0.030000 -0.148232 0.650781
-0.008520 -0.143815 0.650778
0.011424 -0.141374 0.650778
0.031905 -0.148619 0.650815
-0.030377 -0.249606 0.668804
-0.026373 -0.252101 0.670440
-0.008520 -0.258863 0.670721
0.011424 -0.263007 0.670721
0.031367 -0.259250 0.670721
0.049013 -0.250312 0.663049
0.048480 -0.249166 0.669374
-0.029028 -0.249295 0.672736
-0.042355 -0.230539 0.670721
0.050376 -0.247416 0.668959
0.061878 -0.230539 0.670721
-0.042615 -0.210595 0.670721
0.065527 -0.210595 0.670721
-0.041979 -0.190652 0.670721
0.063175 -0.190652 0.670721
-0.040528 -0.170708 0.670721
0.053758 -0.170204 0.670622
-0.030894 -0.151952 0.671303
0.035003 -0.149135 0.670707
0.051997 -0.167472 0.670822
-0.027953 -0.149092 0.670631
-0.008520 -0.140822 0.670721
0.011424 -0.135263 0.670721
0.032547 -0.147567 0.670735
-0.008464 -0.254177 0.691729
-0.017286 -0.249886 0.690244
0.011424 -0.259183 0.690665
0.033548 -0.255920 0.690702
0.039978 -0.251652 0.690513
-0.028115 -0.239517 0.690771
-0.034961 -0.233220 0.690569
0.052719 -0.238864 0.690852
0.056777 -0.233626 0.690553
-0.038205 -0.210595 0.690665
0.061481 -0.210595 0.690665
-0.038475 -0.190652 0.690665
0.060108 -0.190652 0.690665
-0.037183 -0.170708 0.690665
0.052835 -0.171864 0.690606
-0.029416 -0.153366 0.689796
-0.026808 -0.149336 0.680941
-0.026779 -0.150468 0.690714
0.034653 -0.149495 0.690664
0.050773 -0.168427 0.690719
-0.008520 -0.139441 0.690665
0.011424 -0.133731 0.690665
0.032179 -0.147529 0.690666
-0.007400 -0.252248 0.701732
-0.005649 -0.250864 0.709750
0.013664 -0.253931 0.711375
0.031296 -0.250425 0.707515
0.022577 -0.252197 0.710469
-0.029584 -0.229152 0.708001
-0.027063 -0.231293 0.710899
-0.008282 -0.248792 0.711597
0.032602 -0.248420 0.710288
0.050227 -0.230748 0.708052
0.049653 -0.229512 0.711086
-0.028687 -0.227985 0.711631
-0.031782 -0.211033 0.713856
0.051897 -0.227408 0.709172
0.056651 -0.210595 0.710608
-0.034478 -0.190652 0.710608
0.057793 -0.190652 0.710608
-0.032636 -0.166781 0.710594
0.052837 -0.172467 0.709045
-0.030648 -0.161564 0.710631
-0.024580 -0.148843 0.710600
0.034018 -0.150371 0.710525
0.050409 -0.168303 0.710023
-0.008520 -0.140276 0.710608
0.011424 -0.135825 0.710608
0.031477 -0.148359 0.710701
0.010229 -0.250073 0.721723
-0.011345 -0.234689 0.733385
-0.012782 -0.233694 0.733281
0.011575 -0.246074 0.729286
0.033842 -0.234741 0.731795
0.035454 -0.233269 0.732179
-0.030519 -0.209859 0.719607
-0.026046 -0.211464 0.731903
0.051971 -0.211648 0.728051
0.050363 -0.211359 0.731705
-0.028830 -0.201701 0.731602
-0.031165 -0.192616 0.731253
0.052574 -0.208086 0.729248
0.055183 -0.190609 0.732969
-0.031131 -0.168923 0.733530
0.052062 -0.173185 0.722914
0.049750 -0.170779 0.729529
0.051245 -0.173385 0.729189
-0.028716 -0.159617 0.728761
-0.024283 -0.151357 0.730894
0.033131 -0.152009 0.729809
-0.008520 -0.140524 0.730552
0.011424 -0.137235 0.730552
0.029704 -0.149176 0.730319
-0.011104 -0.231893 0.736418
0.008811 -0.230924 0.750275
0.011759 -0.232143 0.749351
0.032208 -0.231853 0.737049
0.014010 -0.229970 0.751019
-0.008761 -0.217748 0.751895
-0.012617 -0.211515 0.751535
0.033776 -0.217051 0.750777
0.035700 -0.212209 0.752160
-0.029860 -0.189277 0.739564
-0.017461 -0.190754 0.751902
0.053603 -0.190834 0.738772
0.040138 -0.190618 0.752863
-0.028938 -0.171750 0.741239
-0.024770 -0.170568 0.750482
0.035158 -0.168420 0.751138
-0.011841 -0.150364 0.750863
0.030925 -0.151230 0.733120
0.014614 -0.149237 0.750674
0.033678 -0.166882 0.751497
-0.009386 -0.148153 0.749965
0.012140 -0.148277 0.750414
0.011048 -0.228731 0.751975
-0.010570 -0.211070 0.753116
0.011424 -0.210595 0.757789
0.033904 -0.211969 0.753512
-0.013136 -0.190709 0.756082
0.011424 -0.190652 0.759833
0.036216 -0.190596 0.755832
-0.008520 -0.170708 0.758004
0.011424 -0.170708 0.758377
0.033426 -0.168758 0.752856
-0.008783 -0.150581 0.752566
0.012153 -0.150384 0.752630
3 0 1 2
3 0 3 4
3 1 0 4
3 4 3 5
3 6 0 2
3 7 6 2
3 3 0 8
3 8 0 6
3 9 5 3
3 9 3 10
3 10 3 8
3 9 10 11
3 6 7 12
3 8 6 12
3 13 8 12
3 10 8 13
3 14 10 13
3 11 10 14
3 15 16 17
3 15 18 19
3 16 15 19
3 18 20 21
3 19 18 21
3 21 20 22
3 1 15 17
3 1 17 2
3 2 17 23
3 4 15 1
3 18 15 4
3 5 18 4
3 5 24 18
3 24 20 18
3 25 22 20
3 25 20 26
3 26 20 24
3 25 26 27
3 2 23 7
3 23 28 7
3 5 9 24
3 11 24 9
3 11 29 24
3 29 26 24
3 30 27 26
3 29 30 26
3 7 28 31
3 12 7 31
3 32 31 33
3 32 13 31
3 13 12 31
3 13 34 14
3 32 34 13
3 14 34 35
3 11 14 35
3 11 35 36
3 11 36 29
3 30 29 36
3 32 33 37
3 34 32 37
3 38 34 37
3 35 34 38
3 39 40 41
3 39 42 43
3 40 39 43
3 42 44 45
3 43 42 45
3 45 44 46
3 16 39 41
3 16 41 17
3 17 41 47
3 19 39 16
3 42 39 19
3 21 42 19
3 44 42 21
3 22 48 49
3 21 22 49
3 21 49 46
3 21 46 44
3 49 48 50
3 17 47 23
3 47 51 23
3 22 25 48
3 27 52 53
3 25 27 53
3 25 53 50
3 25 50 48
3 53 52 54
3 23 51 28
3 51 55 28
3 52 56 57
3 52 27 56
3 27 30 56
3 54 52 57
3 28 55 58
3 31 28 58
3 58 33 31
3 59 33 58
3 36 60 61
3 35 60 36
3 56 30 36
3 61 56 36
3 33 59 62
3 37 33 62
3 38 37 63
3 37 62 63
3 60 35 38
3 63 60 38
3 40 64 41
3 65 64 40
3 65 40 66
3 66 40 43
3 45 67 43
3 43 67 66
3 67 45 46
3 68 67 46
3 64 69 70
3 64 70 41
3 41 70 47
3 65 69 64
3 46 71 68
3 49 71 46
3 71 49 50
3 72 71 50
3 47 70 51
3 70 73 51
3 74 50 53
3 74 75 50
3 75 72 50
3 53 54 74
3 51 73 55
3 73 76 55
3 57 75 74
3 57 56 75
3 56 77 75
3 54 57 74
3 78 58 55
3 78 55 79
3 79 55 76
3 58 78 59
3 61 60 80
3 61 80 81
3 61 81 56
3 56 81 77
3 78 79 82
3 59 78 82
3 59 82 62
3 62 82 83
3 63 62 84
3 62 83 84
3 80 60 63
3 80 63 85
3 85 63 84
3 81 80 85
3 66 86 87
3 65 66 87
3 88 89 86
3 88 86 67
3 67 86 66
3 67 68 88
3 69 90 91
3 70 69 91
3 87 69 65
3 90 69 87
3 88 92 89
3 68 92 88
3 68 71 92
3 71 93 92
3 93 71 72
3 94 93 72
3 95 96 97
3 95 91 96
3 95 73 91
3 73 70 91
3 72 75 94
3 94 75 98
3 95 97 99
3 99 73 95
3 99 100 73
3 100 76 73
3 75 77 98
3 98 77 101
3 76 100 79
3 100 102 79
3 77 81 101
3 101 81 103
3 79 102 104
3 82 79 104
3 105 104 106
3 105 83 104
3 83 82 104
3 83 107 84
3 105 107 83
3 108 84 107
3 108 109 84
3 109 85 84
3 103 81 85
3 109 103 85
3 105 106 110
3 107 105 110
3 111 107 110
3 108 107 111
3 112 113 114
3 112 87 86
3 112 86 113
3 113 86 115
3 115 86 89
3 116 115 89
3 117 118 119
3 114 118 117
3 112 114 117
3 112 117 91
3 112 91 90
3 87 112 90
3 89 120 116
3 92 120 89
3 93 121 92
3 92 121 120
3 121 93 94
3 122 121 94
3 96 117 119
3 96 119 97
3 97 119 123
3 91 117 96
3 124 98 125
3 124 122 98
3 122 94 98
3 124 125 126
3 127 99 97
3 127 97 128
3 128 97 123
3 99 127 100
3 125 101 129
3 98 101 125
3 130 126 125
3 129 130 125
3 127 128 131
3 131 100 127
3 131 132 100
3 132 102 100
3 129 133 134
3 129 101 133
3 101 103 133
3 130 129 134
3 135 104 102
3 135 102 136
3 136 102 132
3 104 135 106
3 109 108 137
3 109 137 138
3 109 138 103
3 103 138 133
3 135 136 139
3 106 135 139
3 106 139 110
3 110 139 140
3 111 110 141
3 110 140 141
3 137 108 111
3 137 111 142
3 142 111 141
3 138 137 142
3 113 143 114
3 144 143 113
3 144 113 145
3 145 113 115
3 116 146 147
3 116 147 115
3 115 147 145
3 147 146 148
3 118 149 150
3 119 118 150
3 143 118 114
3 143 151 118
3 151 149 118
3 144 151 143
3 116 120 146
3 146 152 148
3 146 120 152
3 120 121 152
3 152 121 122
3 153 152 122
3 119 150 123
3 150 154 123
3 122 155 153
3 124 155 122
3 155 124 126
3 156 155 126
3 123 154 128
3 154 157 128
3 126 130 156
3 156 130 158
3 128 157 159
3 131 128 159
3 159 132 131
3 160 132 159
3 134 161 162
3 133 161 134
3 158 130 134
3 162 158 134
3 132 160 136
3 160 163 136
3 133 138 161
3 161 138 164
3 136 163 165
3 139 136 165
3 140 139 166
3 139 165 166
3 141 140 167
3 140 166 167
3 142 141 168
3 141 167 168
3 164 138 142
3 168 164 142
3 145 169 144
3 145 147 170
3 169 145 170
3 147 148 170
3 149 171 172
3 150 149 172
3 151 173 149
3 149 173 171
3 169 151 144
3 169 174 151
3 174 173 151
3 170 174 169
3 175 174 170
3 148 175 170
3 148 152 175
3 152 176 175
3 153 177 178
3 153 178 152
3 152 178 176
3 178 177 179
3 150 172 154
3 172 180 154
3 153 155 177
3 177 155 156
3 177 156 179
3 179 156 181
3 182 183 157
3 182 157 180
3 180 157 154
3 182 184 183
3 156 158 181
3 181 158 185
3 157 183 159
3 183 160 159
3 183 184 160
3 184 186 160
3 162 161 187
3 162 187 188
3 162 188 158
3 158 188 185
3 160 186 163
3 186 189 163
3 187 190 191
3 187 161 190
3 161 164 190
3 188 187 191
3 163 189 192
3 165 163 192
3 166 165 193
3 165 192 193
3 167 166 194
3 166 193 194
3 168 167 195
3 167 194 195
3 190 164 168
3 195 190 168
3 171 196 197
3 172 171 197
3 173 198 171
3 171 198 196
3 174 199 173
3 173 199 198
3 175 200 174
3 174 200 199
3 176 201 175
3 175 201 200
3 178 202 176
3 176 202 201
3 202 178 179
3 203 202 179
3 172 197 180
3 197 204 180
3 179 181 203
3 203 181 205
3 206 182 180
3 206 180 207
3 207 180 204
3 182 206 184
3 181 185 205
3 205 185 208
3 209 206 207
3 210 209 207
3 184 209 186
3 206 209 184
3 185 188 208
3 208 188 211
3 209 210 212
3 212 186 209
3 212 213 186
3 213 189 186
3 191 190 214
3 191 214 215
3 191 215 188
3 188 215 211
3 189 213 216
3 192 189 216
3 217 216 218
3 217 193 216
3 193 192 216
3 193 219 194
3 217 219 193
3 194 220 195
3 219 220 194
3 195 220 221
3 190 195 221
3 190 221 222
3 190 222 214
3 215 214 222
3 217 218 223
3 219 217 223
3 224 219 223
3 220 219 224
3 225 220 224
3 221 220 225
3 196 226 227
3 197 196 227
3 198 228 196
3 196 228 226
3 199 229 198
3 198 229 228
3 200 230 199
3 199 230 229
3 201 231 200
3 200 231 230
3 202 232 201
3 201 232 231
3 232 202 203
3 233 232 203
3 197 227 204
3 227 234 204
3 203 205 233
3 233 205 235
3 204 234 207
3 234 236 207
3 205 208 235
3 235 208 237
3 207 236 210
3 236 238 210
3 208 211 237
3 237 211 239
3 240 212 210
3 240 210 241
3 241 210 238
3 212 240 213
3 211 215 239
3 239 215 242
3 240 241 243
3 244 243 245
3 216 243 244
3 216 240 243
3 216 213 240
3 216 244 218
3 222 246 247
3 221 246 222
3 242 215 222
3 247 242 222
3 244 245 248
3 218 244 248
3 218 248 223
3 223 248 249
3 224 223 250
3 223 249 250
3 225 224 251
3 224 250 251
3 246 221 225
3 251 246 225
3 226 252 253
3 227 226 253
3 228 254 226
3 226 254 252
3 229 255 228
3 228 255 254
3 230 256 229
3 229 256 255
3 231 257 230
3 230 257 256
3 232 258 231
3 231 258 257
3 258 232 233
3 259 258 233
3 227 253 234
3 253 260 234
3 233 235 259
3 259 235 261
3 234 260 236
3 260 262 236
3 235 237 261
3 261 237 263
3 236 262 238
3 262 264 238
3 265 239 266
3 265 263 239
3 263 237 239
3 265 266 267
3 238 264 241
3 264 268 241
3 266 269 270
3 266 239 269
3 239 242 269
3 267 266 270
3 241 268 271
3 243 241 271
3 271 245 243
3 272 245 271
3 247 273 274
3 246 273 247
3 269 242 247
3 274 269 247
3 245 272 275
3 248 245 275
3 249 248 276
3 248 275 276
3 250 249 277
3 249 276 277
3 251 250 278
3 250 277 278
3 273 246 251
3 278 273 251
3 252 279 280
3 253 252 280
3 254 281 252
3 252 281 279
3 255 282 254
3 254 282 281
3 256 283 255
3 255 283 282
3 257 284 256
3 256 284 283
3 258 285 257
3 257 285 284
3 285 258 259
3 286 285 259
3 253 280 260
3 280 287 260
3 259 261 286
3 286 261 288
3 260 287 262
3 287 289 262
3 261 263 288
3 288 263 290
3 262 289 264
3 289 291 264
3 263 292 290
3 265 292 263
3 292 265 267
3 293 292 267
3 264 291 268
3 291 294 268
3 270 295 296
3 269 295 270
3 293 267 270
3 296 293 270
3 268 294 297
3 271 268 297
3 297 272 271
3 298 272 297
3 274 299 300
3 273 299 274
3 295 269 274
3 300 295 274
3 272 298 301
3 275 272 301
3 276 275 302
3 275 301 302
3 277 276 303
3 276 302 303
3 278 277 304
3 277 303 304
3 299 273 278
3 304 299 278
3 279 305 280
3 306 305 279
3 306 279 307
3 307 279 281
3 282 308 281
3 281 308 307
3 283 309 282
3 282 309 308
3 284 310 283
3 283 310 309
3 311 312 310
3 311 310 285
3 285 310 284
3 285 286 311
3 305 313 314
3 305 314 280
3 280 314 287
3 306 313 305
3 311 315 312
3 315 311 286
3 315 286 316
3 316 286 288
3 287 314 289
3 314 317 289
3 288 290 316
3 316 290 318
3 319 320 321
3 319 317 320
3 319 291 317
3 291 289 317
3 290 322 318
3 292 322 290
3 322 292 293
3 323 322 293
3 319 321 324
3 324 291 319
3 324 325 291
3 325 294 291
3 296 326 327
3 295 326 296
3 323 293 296
3 327 323 296
3 294 325 328
3 297 294 328
3 328 298 297
3 329 298 328
3 300 299 330
3 300 330 331
3 300 331 295
3 295 331 326
3 298 329 332
3 301 298 332
3 333 332 334
3 333 302 332
3 302 301 332
3 302 335 303
3 333 335 302
3 336 303 335
3 336 337 303
3 337 304 303
3 330 299 304
3 330 304 338
3 338 304 337
3 331 330 338
3 333 334 339
3 335 333 339
3 340 335 339
3 336 335 340
3 307 341 342
3 306 307 342
3 308 343 307
3 307 343 341
3 309 344 308
3 308 344 343
3 310 345 309
3 309 345 344
3 345 310 312
3 346 345 312
3 313 347 348
3 314 313 348
3 342 313 306
3 347 313 342
3 312 349 346
3 315 349 312
3 349 315 316
3 350 349 316
3 314 348 317
3 348 351 317
3 316 318 350
3 350 318 352
3 320 353 354
3 321 320 354
3 351 320 317
3 353 320 351
3 318 355 352
3 322 355 318
3 355 322 323
3 356 355 323
3 321 354 357
3 324 321 357
3 357 325 324
3 358 325 357
3 327 359 360
3 326 359 327
3 356 323 327
3 360 356 327
3 325 358 361
3 328 325 361
3 361 329 328
3 362 329 361
3 326 331 359
3 359 331 363
3 329 362 364
3 332 329 364
3 364 334 332
3 365 334 364
3 337 366 367
3 336 366 337
3 338 337 368
3 337 367 368
3 363 331 338
3 368 363 338
3 334 365 369
3 339 334 369
3 340 339 370
3 339 369 370
3 366 336 340
3 370 366 340
3 341 371 372
3 342 341 372
3 343 373 341
3 341 373 371
3 344 374 343
3 343 374 373
3 345 375 344
3 344 375 374
3 375 345 346
3 376 375 346
3 347 377 378
3 348 347 378
3 372 347 342
3 377 347 372
3 346 379 376
3 349 379 346
3 379 349 350
3 380 379 350
3 348 378 351
3 378 381 351
3 350 352 380
3 380 352 382
3 353 383 354
3 353 384 383
3 353 351 384
3 351 381 384
3 352 385 382
3 355 385 352
3 385 355 356
3 386 385 356
3 354 383 357
3 383 358 357
3 383 384 358
3 384 387 358
3 360 388 389
3 359 388 360
3 386 356 360
3 389 386 360
3 390 361 358
3 390 358 391
3 391 358 387
3 361 390 362
3 359 363 388
3 388 363 392
3 390 391 393
3 394 393 395
3 364 393 394
3 364 390 393
3 364 362 390
3 364 394 365
3 367 366 396
3 397 367 396
3 397 398 367
3 398 368 367
3 392 363 368
3 398 392 368
3 394 395 399
3 365 394 399
3 365 399 369
3 369 399 400
3 370 369 401
3 369 400 401
3 396 366 370
3 396 370 402
3 402 370 401
3 397 396 402
3 371 403 372
3 404 403 371
3 404 371 405
3 405 371 373
3 374 406 373
3 373 406 405
3 375 407 374
3 374 407 406
3 407 375 376
3 408 407 376
3 377 409 378
3 377 410 409
3 372 410 377
3 372 411 410
3 372 403 411
3 404 411 403
3 376 412 408
3 379 412 376
3 412 379 380
3 413 412 380
3 409 414 415
3 409 415 378
3 378 415 381
3 410 414 409
3 380 382 413
3 413 382 416
3 381 415 384
3 415 417 384
3 382 418 416
3 385 418 382
3 418 385 386
3 419 418 386
3 384 417 387
3 417 420 387
3 389 421 422
3 388 421 389
3 419 386 389
3 422 419 389
3 387 420 391
3 420 423 391
3 388 392 421
3 421 392 424
3 391 423 425
3 393 391 425
3 425 395 393
3 426 395 425
3 398 397 427
3 398 427 428
3 398 428 392
3 392 428 424
3 395 426 429
3 399 395 429
3 400 399 430
3 399 429 430
3 401 400 431
3 400 430 431
3 402 401 432
3 401 431 432
3 427 397 402
3 427 402 433
3 433 402 432
3 428 427 433
3 405 434 435
3 404 405 435
3 406 436 405
3 405 436 434
3 437 438 436
3 437 436 407
3 407 436 406
3 407 408 437
3 411 439 440
3 410 411 440
3 435 411 404
3 439 411 435
3 437 441 438
3 408 441 437
3 408 412 441
3 412 442 441
3 442 412 413
3 443 442 413
3 414 444 445
3 415 414 445
3 440 414 410
3 444 414 440
3 413 416 443
3 443 416 446
3 415 445 417
3 445 447 417
3 416 448 446
3 418 448 416
3 448 418 419
3 449 448 419
3 417 447 420
3 447 450 420
3 422 451 452
3 421 451 422
3 449 419 422
3 452 449 422
3 420 450 423
3 450 453 423
3 421 424 451
3 451 424 454
3 423 453 455
3 425 423 455
3 455 426 425
3 456 426 455
3 424 428 454
3 454 428 457
3 426 456 458
3 429 426 458
3 430 429 459
3 429 458 459
3 431 430 460
3 430 459 460
3 432 431 461
3 431 460 461
3 433 432 462
3 432 461 462
3 457 428 433
3 462 457 433
3 434 463 435
3 434 436 464
3 463 434 464
3 436 438 464
3 439 465 466
3 440 439 466
3 463 439 435
3 463 467 439
3 467 465 439
3 464 467 463
3 468 467 464
3 438 468 464
3 438 441 468
3 441 469 468
3 442 470 441
3 441 470 469
3 470 442 443
3 471 470 443
3 444 472 473
3 445 444 473
3 466 444 440
3 472 444 466
3 443 446 471
3 471 446 474
3 445 473 447
3 473 475 447
3 446 476 474
3 448 476 446
3 476 448 449
3 477 476 449
3 447 475 450
3 475 478 450
3 452 479 480
3 451 479 452
3 477 449 452
3 480 477 452
3 450 478 453
3 478 481 453
3 451 454 479
3 479 454 482
3 453 481 483
3 455 453 483
3 483 456 455
3 484 456 483
3 454 457 482
3 482 457 485
3 456 484 486
3 458 456 486
3 487 486 488
3 487 459 486
3 459 458 486
3 459 489 460
3 487 489 459
3 490 460 489
3 490 491 460
3 491 461 460
3 462 461 492
3 461 491 492
3 485 457 462
3 492 485 462
3 487 488 493
3 489 487 493
3 494 489 493
3 490 489 494
3 465 495 496
3 466 465 496
3 467 497 465
3 465 497 495
3 468 498 467
3 467 498 497
3 469 499 468
3 468 499 498
3 470 500 469
3 469 500 499
3 500 470 471
3 501 500 471
3 472 502 503
3 473 472 503
3 496 472 466
3 502 472 496
3 471 474 501
3 501 474 504
3 473 503 475
3 503 505 475
3 474 506 504
3 476 506 474
3 506 476 477
3 507 506 477
3 475 505 478
3 505 508 478
3 480 479 509
3 480 509 510
3 480 510 477
3 477 510 507
3 478 508 481
3 508 511 481
3 509 512 513
3 509 479 512
3 479 482 512
3 510 509 513
3 481 511 514
3 483 481 514
3 514 484 483
3 515 484 514
3 482 485 512
3 512 485 516
3 484 515 517
3 486 484 517
3 517 488 486
3 518 488 517
3 491 490 519
3 520 491 519
3 520 521 491
3 521 492 491
3 516 485 492
3 521 516 492
3 488 518 522
3 493 488 522
3 494 493 523
3 493 522 523
3 519 490 494
3 519 494 524
3 524 494 523
3 520 519 524
3 495 525 526
3 496 495 526
3 497 527 495
3 495 527 525
3 498 528 497
3 497 528 527
3 499 529 498
3 498 529 528
3 500 530 499
3 499 530 529
3 530 500 501
3 531 530 501
3 502 532 503
3 502 533 532
3 502 496 533
3 496 526 533
3 501 504 531
3 531 504 534
3 532 535 536
3 532 536 503
3 503 536 505
3 533 535 532
3 537 504 506
3 537 538 504
3 538 534 504
3 506 507 537
3 505 536 508
3 536 539 508
3 540 538 537
3 541 538 540
3 507 510 540
3 537 507 540
3 508 539 511
3 539 542 511
3 513 541 540
3 513 512 541
3 512 543 541
3 510 513 540
3 511 542 544
3 514 511 544
3 544 515 514
3 545 515 544
3 512 516 543
3 543 516 546
3 515 545 547
3 517 515 547
3 518 548 549
3 518 517 548
3 517 547 548
3 548 550 549
3 521 551 552
3 520 551 521
3 546 516 521
3 552 546 521
3 518 549 522
3 549 550 553
3 549 553 522
3 522 553 523
3 524 523 554
3 523 553 554
3 551 520 524
3 554 551 524
3 525 555 526
3 556 555 525
3 556 525 557
3 557 525 527
3 528 558 527
3 527 558 557
3 529 559 528
3 528 559 558
3 560 561 559
3 560 559 530
3 530 559 529
3 530 531 560
3 555 562 563
3 555 563 526
3 526 563 533
3 556 562 555
3 560 564 561
3 564 560 531
3 564 531 565
3 565 531 534
3 535 566 567
3 536 535 567
3 563 535 533
3 566 535 563
3 534 538 565
3 565 538 568
3 536 567 539
3 567 569 539
3 538 541 568
3 568 541 570
3 539 569 542
3 569 571 542
3 541 543 570
3 570 543 572
3 542 571 573
3 544 542 573
3 573 545 544
3 574 545 573
3 543 546 572
3 572 546 575
3 545 574 576
3 547 545 576
3 577 576 578
3 577 548 576
3 548 547 576
3 548 577 550
3 552 579 580
3 551 579 552
3 575 546 552
3 580 575 552
3 577 578 581
3 550 577 581
3 550 581 553
3 553 581 582
3 554 553 583
3 553 582 583
3 579 551 554
3 583 579 554
3 557 584 585
3 556 557 585
3 558 586 557
3 557 586 584
3 559 587 558
3 558 587 586
3 587 559 561
3 588 587 561
3 562 589 590
3 563 562 590
3 585 562 556
3 589 562 585
3 561 591 588
3 564 591 561
3 591 564 565
3 592 591 565
3 566 593 567
3 566 594 593
3 566 563 594
3 563 590 594
3 565 568 592
3 592 568 595
3 593 596 597
3 593 597 567
3 567 597 569
3 594 596 593
3 568 570 595
3 595 570 598
3 569 597 571
3 597 599 571
3 570 572 598
3 598 572 600
3 571 599 601
3 573 571 601
3 601 574 573
3 602 574 601
3 572 575 600
3 600 575 603
3 604 576 574
3 604 574 605
3 605 574 602
3 576 604 578
3 580 606 607
3 579 606 580
3 603 575 580
3 607 603 580
3 604 605 608
3 578 604 608
3 578 608 581
3 581 608 609
3 582 581 610
3 581 609 610
3 583 582 611
3 582 610 611
3 606 579 583
3 611 606 583
3 584 612 585
3 584 586 613
3 612 584 613
3 586 587 614
3 613 586 614
3 587 588 614
3 589 615 616
3 590 589 616
3 612 589 585
3 612 617 589
3 617 615 589
3 613 617 612
3 618 617 613
3 614 618 613
3 619 618 614
3 588 619 614
3 588 591 619
3 591 620 619
3 620 591 592
3 621 620 592
3 590 616 594
3 616 622 594
3 592 595 621
3 621 595 623
3 596 624 597
3 596 625 624
3 596 594 625
3 594 622 625
3 595 598 623
3 623 598 626
3 624 627 599
3 597 624 599
3 628 624 625
3 627 624 628
3 598 600 626
3 626 600 629
3 599 627 601
3 627 602 601
3 627 628 602
3 628 630 602
3 600 603 629
3 629 603 631
3 602 630 605
3 630 632 605
3 607 633 634
3 606 633 607
3 631 603 607
3 634 631 607
3 605 632 635
3 608 605 635
3 609 608 636
3 608 635 636
3 610 609 637
3 609 636 637
3 611 610 638
3 610 637 638
3 633 606 611
3 638 633 611
3 615 639 616
3 640 639 615
3 640 615 641
3 641 615 617
3 618 642 617
3 617 642 641
3 619 643 618
3 618 643 642
3 644 645 643
3 644 643 620
3 620 643 619
3 620 621 644
3 639 646 647
3 639 647 616
3 616 647 622
3 640 646 639
3 644 648 645
3 648 644 621
3 648 621 649
3 649 621 623
3 622 647 625
3 647 650 625
3 623 626 649
3 649 626 651
3 625 650 628
3 650 652 628
3 626 629 651
3 651 629 653
3 628 652 630
3 652 654 630
3 629 631 653
3 653 631 655
3 630 654 632
3 654 656 632
3 634 657 658
3 633 657 634
3 655 631 634
3 658 655 634
3 632 656 659
3 635 632 659
3 636 635 660
3 635 659 660
3 637 636 661
3 636 660 661
3 638 637 662
3 637 661 662
3 657 633 638
3 662 657 638
3 641 663 664
3 640 641 664
3 642 665 641
3 641 665 663
3 643 666 642
3 642 666 665
3 666 643 645
3 667 666 645
3 646 668 669
3 647 646 669
3 664 646 640
3 668 646 664
3 645 670 667
3 648 670 645
3 670 648 649
3 671 670 649
3 647 669 650
3 669 672 650
3 649 651 671
3 671 651 673
3 650 672 652
3 672 674 652
3 651 653 673
3 673 653 675
3 652 674 654
3 674 676 654
3 653 655 675
3 675 655 677
3 678 679 656
3 678 656 676
3 676 656 654
3 678 680 679
3 658 681 682
3 657 681 658
3 677 655 658
3 682 677 658
3 656 679 659
3 679 680 683
3 679 683 659
3 659 683 660
3 661 660 684
3 660 683 684
3 662 661 685
3 661 684 685
3 681 657 662
3 685 681 662
3 663 686 664
3 687 686 663
3 687 663 688
3 688 663 665
3 689 690 688
3 689 688 666
3 666 688 665
3 666 667 689
3 668 691 669
3 668 692 691
3 664 692 668
3 664 693 692
3 664 686 693
3 687 693 686
3 689 694 690
3 695 696 694
3 670 695 694
3 670 694 689
3 670 689 667
3 670 671 695
3 691 697 698
3 691 698 669
3 669 698 672
3 692 697 691
3 695 699 696
3 699 695 671
3 699 671 700
3 700 671 673
3 672 698 674
3 698 701 674
3 673 675 700
3 700 675 702
3 674 701 676
3 701 703 676
3 675 677 702
3 702 677 704
3 676 703 705
3 678 676 705
3 705 680 678
3 706 680 705
3 682 707 708
3 681 707 682
3 704 677 682
3 708 704 682
3 680 706 709
3 683 680 709
3 684 683 710
3 683 709 710
3 685 684 711
3 684 710 711
3 707 681 685
3 711 707 685
3 688 712 687
3 688 690 712
3 693 713 714
3 692 693 714
3 712 693 687
3 712 715 693
3 715 713 693
3 690 715 712
3 690 694 715
3 694 716 715
3 716 694 696
3 717 716 696
3 697 718 698
3 697 719 718
3 697 692 719
3 692 714 719
3 720 696 699
3 720 721 696
3 721 717 696
3 699 700 720
3 718 722 723
3 718 723 698
3 698 723 701
3 719 722 718
3 720 724 721
3 724 720 700
3 724 700 725
3 725 700 702
3 701 723 703
3 723 726 703
3 727 728 729
3 727 729 725
3 727 725 704
3 704 725 702
3 703 726 730
3 705 703 730
3 730 706 705
3 731 706 730
3 708 728 727
3 708 707 728
3 707 732 728
3 704 708 727
3 706 731 733
3 709 706 733
3 710 709 734
3 709 733 734
3 711 710 735
3 710 734 735
3 732 707 711
3 735 732 711
3 713 736 714
3 737 736 713
3 737 713 738
3 738 713 715
3 739 740 738
3 739 738 716
3 716 738 715
3 716 717 739
3 736 741 742
3 736 742 714
3 714 742 719
3 737 741 736
3 739 743 740
3 743 739 717
3 743 717 744
3 744 717 721
3 722 745 723
3 722 746 745
3 722 719 746
3 719 742 746
3 747 721 724
3 747 748 721
3 748 744 721
3 724 725 747
3 745 749 726
3 723 745 726
3 750 745 746
3 749 745 750
3 729 748 747
3 729 728 748
3 728 751 748
3 725 729 747
3 726 749 730
3 749 731 730
3 749 750 731
3 750 752 731
3 753 754 755
3 753 755 751
3 753 751 732
3 732 751 728
3 731 752 756
3 733 731 756
3 734 733 757
3 733 756 757
3 754 753 735
3 754 735 757
3 757 735 734
3 732 735 753
3 738 758 737
3 738 740 758
3 741 759 742
3 741 737 758
3 741 758 759
3 759 758 760
3 740 743 761
3 740 761 758
3 758 761 760
3 743 744 761
3 759 762 746
3 742 759 746
3 760 763 759
3 763 762 759
3 761 764 760
3 764 763 760
3 744 748 764
3 761 744 764
3 762 765 750
3 746 762 750
3 763 766 762
3 766 765 762
3 764 767 763
3 767 766 763
3 748 751 767
3 764 748 767
3 765 768 752
3 750 765 752
3 766 769 765
3 769 768 765
3 755 754 769
3 755 769 767
3 767 769 766
3 751 755 767
3 752 768 756
3 757 756 768
3 769 757 768
3 754 757 769
